<?xml version="1.0" encoding="utf-8"?>
<svg viewBox="0 0 400 400" xmlns="http://www.w3.org/2000/svg">
  <g>
    <path style="fill: rgb(216, 216, 216); stroke: rgb(0, 0, 0); stroke-width: 0px;" d="M 117.406 -0.698 L 119.838 89.902 L 90.448 119.639 L 171.487 198.979 L 90.847 278.221 L 121.521 309.394 L 117.16 400.601 L -0.239 282.994 L -0.102 116.873 L 117.406 -0.698 Z"/>
    <path style="fill: rgb(216, 216, 216); stroke: rgb(0, 0, 0); stroke-width: 0px;" d="M 281.712 -1.316 L 280.008 89.958 L 309.245 120.507 L 230.822 199.681 L 309.031 280.606 L 279.995 309.511 L 283.289 400.718 L 400.202 283.654 L 400.141 115.064 L 281.712 -1.316 Z"/>
    <path style="fill: rgb(216, 216, 216); stroke: rgb(0, 0, 0);"/>
    <path style="fill: rgb(216, 216, 216); stroke: rgb(0, 0, 0); stroke-width: 0px;" d="M 200.032 230.511 L 120.633 309.756 L 116.573 400.472 L 284.145 400.262 L 280.162 309.339 L 200.032 230.511 Z"/>
    <path style="fill: rgb(216, 216, 216); stroke: rgb(0, 0, 0);"/>
    <path style="fill: rgb(216, 216, 216); stroke: rgb(0, 0, 0); stroke-width: 0px;" d="M 116.835 -0.545 L 119.154 90.193 L 200.52 169.52 L 281.02 89.527 L 282.576 -0.262 L 116.835 -0.545 Z"/>
  </g>
</svg>