<?xml version="1.0" encoding="utf-8"?>
<!-- Generator: Adobe Illustrator 22.1.0, SVG Export Plug-In . SVG Version: 6.00 Build 0)  -->
<svg version="1.1" id="completed" xmlns="http://www.w3.org/2000/svg" xmlns:xlink="http://www.w3.org/1999/xlink" x="0px" y="0px"
	 viewBox="0 0 36.1 35.8" style="enable-background:new 0 0 36.1 35.8;" xml:space="preserve">
<style type="text/css">
	.svg-completed{fill:#9F9E9F;}
</style>
<g>
	<g>
		<path class="svg-completed" d="M18.1,34.5C8.9,34.5,1.5,27,1.5,17.9c0-9.1,7.4-16.6,16.6-16.6c9.1,0,16.6,7.4,16.6,16.6
			C34.6,27,27.2,34.5,18.1,34.5z M18.1,3.3c-8,0-14.6,6.5-14.6,14.6c0,8,6.5,14.6,14.6,14.6c8,0,14.6-6.5,14.6-14.6
			C32.6,9.8,26.1,3.3,18.1,3.3z"/>
	</g>
	<g>
		<polygon class="svg-completed" points="16.3,23.7 7.9,15.7 9.3,14.2 16.1,20.7 27.7,5.7 29.3,7 		"/>
	</g>
</g>
</svg>
