<?xml version="1.0" encoding="UTF-8"?>
<svg width="23px" height="18px" viewBox="0 0 23 18" version="1.1" xmlns="http://www.w3.org/2000/svg" xmlns:xlink="http://www.w3.org/1999/xlink">
    <!-- Generator: Sketch 55 (78076) - https://sketchapp.com -->
    <title>Group 2 Copy</title>
    <desc>Created with Sketch.</desc>
    <g id="Page-1" stroke="none" stroke-width="1" fill="none" fill-rule="evenodd">
        <g id="Group-2-Copy" transform="translate(1.000000, 0.000000)" stroke="#FFFFFF" stroke-width="1.2">
            <rect id="Rectangle" x="1" y="2" width="6" height="6" rx="3"></rect>
            <path d="M4,8 L4,8 C6.209139,8 8,9.790861 8,12 L8,16 C7.0900155,16.6666667 5.75668217,17 4,17 C2.24331783,17 0.909984497,16.6666667 0,16 L0,12 C-2.705415e-16,9.790861 1.790861,8 4,8 Z" id="Rectangle" stroke-linejoin="round"></path>
            <path d="M18.1321675,4 C13.1653764,7.38348515 10.6819809,9.07522773 10.6819809,9.07522773 C10.0875521,9.69561348 9.47894644,10.4371674 10.3499457,11.578209 C11.2209449,12.7192505 12.5753747,11.9657425 13.0675793,11.578209 C13.0675793,11.578209 14.7557754,9.05213932 18.1321675,4 Z" id="Path-3" stroke-linejoin="round"></path>
            <path d="M17.9857443,14.3914858 C19.0784539,14.9721645 19.6289453,15.2625039 19.6372184,15.2625039 C20.4221887,13.9791409 20.9338446,12.9792917 21.1759789,11.1510839 C21.348607,9.54469135 21.0855696,7.89721683 20.3868668,6.20866031" id="Path-4" stroke-linecap="round" stroke-linejoin="round"></path>
            <path d="M8.51325356,1.54853025 C9.47564645,1.03682599 10.6942333,0.780973857 12.1690141,0.780973857 C13.6437949,0.780973857 14.8863438,1.07453751 15.8966607,1.66166481" id="Path-5" stroke-linecap="round" stroke-linejoin="round"></path>
            <path d="M12.1690141,0.780973857 L12.1690141,3.09706678" id="Path-6" stroke-linecap="round" stroke-linejoin="round"></path>
            <path d="M16.5,15.9329981 L9.5,15.9329981" id="Path-7"></path>
        </g>
    </g>
</svg>