<?xml version="1.0" encoding="utf-8"?>
<svg version="1.0" width="24" height="24" viewBox="0 0 24 24" xmlns="http://www.w3.org/2000/svg" xmlns:bx="https://boxy-svg.com">
  <path fill="none" stroke="none&quot; d=&quot;M0 0h24v24H0z" d="M0 0h24v24H0z"/>
  <path fill="#575754" stroke="none" d="M 10.66 20.961 C 10.564 20.945 10.452 20.832 10.404 20.736 C 10.357 20.655 10.357 20.655 10.357 20.061 L 10.357 19.465 L 10.293 19.449 C 10.26 19.449 10.149 19.417 10.037 19.384 C 9.431 19.24 8.633 18.902 8.09 18.565 C 7.979 18.5 7.899 18.451 7.883 18.451 C 7.883 18.451 7.692 18.628 7.468 18.854 C 7.197 19.128 7.037 19.273 6.99 19.288 C 6.894 19.336 6.702 19.336 6.606 19.288 C 6.511 19.24 4.787 17.535 4.724 17.422 C 4.675 17.341 4.66 17.31 4.66 17.213 C 4.66 17.02 4.66 17.004 5.138 16.537 C 5.362 16.312 5.537 16.119 5.537 16.103 C 5.537 16.103 5.489 16.006 5.426 15.894 C 5.058 15.298 4.74 14.51 4.58 13.851 L 4.532 13.642 L 3.925 13.642 C 3.336 13.642 3.303 13.625 3.239 13.594 C 3.16 13.561 3.064 13.449 3.032 13.369 C 3 13.304 3 13.24 3 12.001 C 3 10.714 3 10.714 3.032 10.633 C 3.096 10.521 3.16 10.441 3.256 10.392 C 3.35 10.36 3.35 10.36 3.941 10.36 L 4.532 10.36 L 4.532 10.312 C 4.564 10.199 4.66 9.845 4.724 9.636 C 4.884 9.154 5.17 8.509 5.426 8.107 L 5.553 7.898 L 5.138 7.48 C 4.675 7.014 4.66 6.982 4.66 6.805 C 4.66 6.611 4.644 6.628 5.633 5.646 C 6.191 5.083 6.559 4.729 6.606 4.713 C 6.702 4.665 6.846 4.649 6.958 4.697 C 7.053 4.729 7.101 4.777 7.468 5.131 C 7.692 5.356 7.866 5.55 7.883 5.55 C 7.883 5.55 7.979 5.501 8.09 5.437 C 8.745 5.035 9.574 4.713 10.309 4.552 L 10.357 4.536 L 10.357 3.941 C 10.357 3.346 10.357 3.346 10.404 3.265 C 10.452 3.169 10.564 3.056 10.66 3.024 C 10.788 2.992 13.212 2.992 13.34 3.024 C 13.436 3.056 13.548 3.169 13.596 3.265 C 13.643 3.346 13.643 3.346 13.643 3.941 L 13.643 4.536 L 13.691 4.552 C 14.489 4.729 15.288 5.051 16.069 5.533 L 16.117 5.566 L 16.516 5.148 C 16.771 4.906 16.947 4.729 16.994 4.713 C 17.107 4.649 17.298 4.665 17.394 4.713 C 17.506 4.777 19.26 6.531 19.309 6.628 C 19.325 6.66 19.34 6.724 19.34 6.788 C 19.357 6.965 19.34 6.982 18.862 7.464 L 18.447 7.898 L 18.59 8.124 C 18.942 8.703 19.26 9.475 19.42 10.15 L 19.469 10.36 L 20.059 10.36 C 20.648 10.36 20.664 10.36 20.745 10.392 C 20.824 10.441 20.921 10.537 20.968 10.617 C 20.984 10.666 21 10.762 21 11.968 C 21 13.417 21 13.352 20.888 13.48 C 20.857 13.529 20.792 13.577 20.761 13.594 C 20.697 13.625 20.664 13.642 20.075 13.642 L 19.469 13.642 L 19.42 13.883 C 19.34 14.157 19.213 14.559 19.1 14.848 C 18.989 15.138 18.75 15.62 18.59 15.894 L 18.447 16.119 L 18.862 16.537 C 19.34 17.02 19.357 17.036 19.34 17.213 C 19.34 17.278 19.325 17.341 19.309 17.39 C 19.26 17.47 17.506 19.24 17.394 19.288 C 17.282 19.336 17.154 19.353 17.043 19.304 C 16.947 19.273 16.899 19.24 16.532 18.854 C 16.308 18.628 16.117 18.451 16.117 18.451 C 16.101 18.451 16.037 18.5 15.941 18.548 C 15.367 18.902 14.6 19.224 13.963 19.384 C 13.851 19.417 13.74 19.449 13.707 19.449 L 13.643 19.465 L 13.643 20.061 C 13.643 20.655 13.643 20.655 13.596 20.736 C 13.548 20.832 13.436 20.945 13.34 20.977 C 13.212 21.009 10.772 21.009 10.66 20.961 Z M 12.75 19.562 C 12.75 19.256 12.75 19.015 12.766 18.982 C 12.798 18.886 12.878 18.773 12.958 18.725 C 13.022 18.693 13.101 18.661 13.34 18.613 C 13.995 18.468 14.553 18.275 15.112 17.985 C 15.335 17.872 15.686 17.663 15.862 17.535 C 16.037 17.406 16.197 17.39 16.357 17.47 C 16.421 17.503 16.516 17.583 16.82 17.872 L 17.202 18.259 L 17.728 17.728 L 18.271 17.197 L 17.872 16.811 C 17.458 16.376 17.425 16.345 17.425 16.183 C 17.425 16.055 17.458 15.991 17.633 15.701 C 17.921 15.283 18.08 14.961 18.271 14.527 C 18.431 14.125 18.558 13.642 18.638 13.24 C 18.654 13.143 18.686 13.03 18.702 13.014 C 18.734 12.934 18.83 12.837 18.91 12.805 C 18.958 12.773 18.989 12.757 19.532 12.757 L 20.106 12.757 L 20.106 12.001 L 20.106 11.245 L 19.58 11.245 C 18.973 11.245 18.926 11.245 18.814 11.132 C 18.718 11.052 18.671 10.971 18.638 10.762 C 18.479 9.877 18.127 9.025 17.617 8.252 C 17.458 8.011 17.425 7.947 17.425 7.818 C 17.425 7.657 17.458 7.625 17.872 7.191 L 18.271 6.805 L 17.728 6.274 L 17.202 5.743 L 16.82 6.129 C 16.404 6.547 16.34 6.58 16.181 6.58 C 16.053 6.58 15.974 6.547 15.83 6.451 C 15.128 5.936 14.25 5.582 13.34 5.389 C 13.101 5.341 13.022 5.308 12.958 5.276 C 12.878 5.228 12.798 5.116 12.766 5.019 C 12.75 4.987 12.75 4.745 12.75 4.44 L 12.75 3.909 L 12 3.909 L 11.25 3.909 L 11.25 4.44 C 11.25 4.745 11.25 4.987 11.234 5.019 C 11.202 5.116 11.122 5.228 11.043 5.276 C 10.978 5.308 10.899 5.341 10.66 5.389 C 9.766 5.566 9 5.887 8.234 6.403 C 8.107 6.483 7.994 6.547 7.947 6.563 C 7.836 6.595 7.708 6.58 7.627 6.531 C 7.58 6.515 7.421 6.354 7.181 6.113 L 6.798 5.743 L 6.272 6.274 L 5.744 6.805 L 6.128 7.191 C 6.543 7.625 6.575 7.657 6.575 7.818 C 6.575 7.947 6.559 7.995 6.367 8.269 C 6.208 8.526 6.048 8.8 5.936 9.025 C 5.681 9.539 5.442 10.264 5.346 10.794 C 5.33 10.971 5.282 11.052 5.186 11.132 C 5.074 11.245 5.027 11.245 4.421 11.245 L 3.894 11.245 L 3.894 12.001 L 3.894 12.757 L 4.469 12.757 C 5.011 12.757 5.042 12.773 5.107 12.805 C 5.17 12.837 5.266 12.934 5.298 13.014 C 5.314 13.03 5.346 13.175 5.377 13.32 C 5.553 14.205 5.888 15.009 6.432 15.829 C 6.495 15.91 6.543 16.006 6.559 16.039 C 6.59 16.119 6.575 16.28 6.543 16.36 C 6.527 16.393 6.335 16.585 6.128 16.811 L 5.744 17.197 L 6.272 17.728 L 6.814 18.259 L 7.181 17.889 C 7.596 17.47 7.66 17.422 7.82 17.422 C 7.947 17.422 8.01 17.455 8.266 17.615 C 8.969 18.098 9.766 18.42 10.66 18.613 C 10.899 18.661 10.978 18.693 11.043 18.725 C 11.122 18.773 11.202 18.886 11.234 18.982 C 11.25 19.015 11.25 19.256 11.25 19.562 L 11.25 20.092 L 12 20.092 L 12.75 20.092 L 12.75 19.562 Z M 11.521 17.374 C 10.612 17.293 9.75 16.988 9.016 16.489 C 7.708 15.62 6.894 14.317 6.654 12.757 C 6.606 12.484 6.59 11.791 6.622 11.502 C 6.782 9.925 7.58 8.558 8.856 7.625 C 9.542 7.126 10.373 6.788 11.266 6.66 C 11.474 6.628 11.569 6.628 12 6.628 C 12.431 6.628 12.526 6.628 12.734 6.66 C 14.521 6.917 16.021 7.995 16.82 9.588 C 17.123 10.15 17.314 10.858 17.378 11.518 C 17.394 11.776 17.394 12.29 17.362 12.564 C 17.298 13.304 17.043 14.076 16.644 14.736 C 15.91 15.991 14.681 16.891 13.277 17.245 C 12.862 17.341 12.575 17.374 12.096 17.39 C 11.857 17.39 11.601 17.374 11.521 17.374 Z M 12.271 16.489 C 12.958 16.441 13.469 16.296 14.058 15.991 C 14.458 15.797 14.793 15.556 15.128 15.218 C 15.383 14.977 15.575 14.752 15.734 14.51 C 16.484 13.384 16.692 12.033 16.324 10.762 C 16.197 10.312 16.021 9.925 15.75 9.539 C 15.432 9.025 15.016 8.606 14.489 8.252 C 14.25 8.092 13.754 7.85 13.484 7.753 C 12.51 7.416 11.49 7.416 10.532 7.753 C 10.244 7.85 9.75 8.092 9.511 8.252 C 8.888 8.687 8.41 9.202 8.043 9.845 C 7.803 10.296 7.627 10.81 7.532 11.374 C 7.5 11.582 7.5 12.355 7.532 12.564 C 7.612 13.111 7.771 13.642 8.01 14.076 C 8.107 14.285 8.346 14.639 8.505 14.832 C 8.761 15.154 9.144 15.508 9.511 15.749 C 10.165 16.183 10.932 16.441 11.729 16.489 C 11.84 16.489 11.952 16.505 11.984 16.505 C 12 16.505 12.127 16.505 12.271 16.489 Z M 10.802 15.106 C 10.644 15.073 10.58 15.041 10.452 14.945 C 10.293 14.848 10.165 14.687 10.086 14.542 C 9.958 14.269 9.973 14.462 9.973 12.001 C 9.973 9.797 9.973 9.797 10.006 9.668 C 10.116 9.298 10.373 9.04 10.723 8.912 C 10.867 8.864 11.122 8.848 11.266 8.88 C 11.506 8.928 11.506 8.928 12.75 9.748 C 14.857 11.148 14.92 11.197 15.032 11.374 C 15.175 11.566 15.223 11.759 15.223 12.001 C 15.223 12.194 15.191 12.339 15.096 12.515 C 14.984 12.757 14.936 12.789 13.867 13.497 C 12.239 14.575 11.634 14.993 11.537 15.025 C 11.33 15.138 11.027 15.17 10.802 15.106 Z M 11.266 14.157 C 11.346 14.108 11.792 13.802 12.287 13.48 C 12.766 13.159 13.404 12.724 13.707 12.532 C 14.027 12.322 14.282 12.13 14.298 12.113 C 14.33 12.081 14.33 12.033 14.33 11.985 C 14.33 11.92 14.33 11.904 14.266 11.856 C 14.234 11.824 13.835 11.551 13.388 11.26 C 12.941 10.955 12.256 10.489 11.857 10.231 C 11.474 9.974 11.138 9.765 11.106 9.748 C 11.043 9.733 10.962 9.765 10.915 9.829 C 10.867 9.877 10.867 9.877 10.867 12.001 C 10.867 14.35 10.851 14.157 10.962 14.221 C 11.059 14.269 11.106 14.269 11.266 14.157 Z" style="" bx:origin="0.5 0.5"/>
</svg>