<svg height='100px' width='100px'  fill="#FFFFFF" xmlns="http://www.w3.org/2000/svg" xmlns:xlink="http://www.w3.org/1999/xlink" version="1.1" x="0px" y="0px" viewBox="0 0 100 100" enable-background="new 0 0 100 100" xml:space="preserve"><path d="M56.695,24.852c0,2.748-2.228,4.975-4.975,4.975c-2.747,0-4.974-2.227-4.974-4.975c0-2.747,2.228-4.974,4.974-4.974  C54.468,19.878,56.695,22.104,56.695,24.852z M61.671,40.753c0-5.544-4.454-10.038-9.95-10.038c-5.494,0-9.949,4.494-9.949,10.038  H61.671z M87.772,42.799H15.671v14.783h2V44.799h33.05v12.783h2V44.799h33.052v12.783h2V42.799z M16.671,59.246  c-2.747,0-4.974,2.228-4.974,4.975s2.227,4.975,4.974,4.975c2.748,0,4.974-2.228,4.974-4.975S19.418,59.246,16.671,59.246z   M26.621,80.122c0-5.545-4.454-10.039-9.95-10.039c-5.495,0-9.949,4.494-9.949,10.039H26.621z M86.772,59.246  c-2.749,0-4.976,2.228-4.976,4.975s2.227,4.976,4.976,4.976c2.748,0,4.975-2.229,4.975-4.976S89.521,59.246,86.772,59.246z   M96.722,80.122c0-5.544-4.453-10.038-9.949-10.038c-5.494,0-9.95,4.494-9.95,10.038H96.722z M51.72,59.246  c-2.747,0-4.973,2.228-4.973,4.975s2.227,4.976,4.973,4.976c2.748,0,4.976-2.229,4.976-4.976S54.468,59.246,51.72,59.246z   M61.671,80.122c0-5.544-4.454-10.038-9.951-10.038c-5.493,0-9.948,4.494-9.948,10.038H61.671z"></path></svg>