<?xml version="1.0" encoding="utf-8"?>
<!-- Generator: Adobe Illustrator 22.1.0, SVG Export Plug-In . SVG Version: 6.00 Build 0)  -->
<svg version="1.1" id="overview" xmlns="http://www.w3.org/2000/svg" xmlns:xlink="http://www.w3.org/1999/xlink" x="0px" y="0px"
	 viewBox="0 0 36.1 35.8" style="enable-background:new 0 0 36.1 35.8;" xml:space="preserve">
<style type="text/css">
	.svg-overview{fill:#9F9E9F;}
</style>
<g>
	<g>
		<path class="svg-overview" d="M17.7,34.8c-9.1,0-16.6-7.4-16.6-16.6c0-9.1,7.4-16.6,16.6-16.6c9.1,0,16.6,7.4,16.6,16.6
			C34.3,27.3,26.9,34.8,17.7,34.8z M17.7,3.6c-8,0-14.6,6.5-14.6,14.6c0,8,6.5,14.6,14.6,14.6c8,0,14.6-6.5,14.6-14.6
			C32.3,10.2,25.8,3.6,17.7,3.6z"/>
	</g>
</g>
<g>
	<rect x="11.3" y="9.9" class="svg-overview" width="4.9" height="4.9"/>
	<rect x="19.5" y="9.9" transform="matrix(6.123234e-17 -1 1 6.123234e-17 9.6239 34.2161)" class="svg-overview" width="4.9" height="4.9"/>
	<rect x="11.3" y="16.4" class="svg-overview" width="4.9" height="4.9"/>
	
		<rect x="19.5" y="16.4" transform="matrix(6.123234e-17 -1 1 6.123234e-17 3.0927 40.7473)" class="svg-overview" width="4.9" height="4.9"/>
	<rect x="11.3" y="22.5" class="svg-overview" width="4.9" height="4.9"/>
	
		<rect x="19.5" y="22.5" transform="matrix(6.123234e-17 -1 1 6.123234e-17 -3.0415 46.8815)" class="svg-overview" width="4.9" height="4.9"/>
</g>
</svg>
