<?xml version="1.0" encoding="utf-8"?>
<!-- Generator: Adobe Illustrator 22.1.0, SVG Export Plug-In . SVG Version: 6.00 Build 0)  -->
<svg version="1.1" id="processing-pass" xmlns="http://www.w3.org/2000/svg" xmlns:xlink="http://www.w3.org/1999/xlink" x="0px" y="0px"
	 viewBox="0 0 36.1 35.8" style="enable-background:new 0 0 36.1 35.8;" xml:space="preserve">
<g>
	<g>
		<path class="fill-primary-500" d="M18.1,34.2c-1.8,0-3.6-0.3-5.2-0.9l0.6-1.9c1.5,0.5,3,0.8,4.6,0.8V34.2z M8.1,30.8c-1.4-1.1-2.6-2.4-3.6-3.9
			l1.7-1.1c0.9,1.3,1.9,2.4,3.2,3.4L8.1,30.8z M2.3,22.1c-0.4-1.4-0.6-2.8-0.6-4.2c0-0.4,0-0.7,0-1.1l2,0.1c0,0.3,0,0.6,0,0.9
			c0,1.3,0.2,2.5,0.5,3.7L2.3,22.1z M4.9,12.4L3,11.7C3.7,10,4.6,8.5,5.8,7.2l1.5,1.3C6.3,9.7,5.4,11,4.9,12.4z M10.9,5.5l-1-1.7
			c1.5-0.9,3.2-1.5,5-1.9l0.4,2C13.7,4.2,12.3,4.7,10.9,5.5z"/>
	</g>
	<g>
		<path class="fill-primary-500" d="M18.1,34.2v-2c7.9,0,14.3-6.4,14.3-14.3c0-7.9-6.4-14.3-14.3-14.3v-2c9,0,16.3,7.3,16.3,16.3
			C34.3,26.9,27,34.2,18.1,34.2z"/>
	</g>
	<g>
		<polygon class="fill-primary-500" points="18.2,24 9.7,16 11.1,14.5 17.9,21 28.6,7 30.2,8.3 		"/>
	</g>
</g>
</svg>
