<?xml version="1.0" standalone="no"?>
<!DOCTYPE svg PUBLIC "-//W3C//DTD SVG 20010904//EN" "http://www.w3.org/TR/2001/REC-SVG-20010904/DTD/svg10.dtd">

<svg version="1.0" xmlns="http://www.w3.org/2000/svg" width="128.000000pt" height="128.000000pt" viewBox="0 0 128.000000 128.000000" preserveAspectRatio="xMidYMid meet">

<path stroke="none" d="
M52 126

C19 120 -5 87 1 53

C6 29 24 9 48 2

C56 0 72 0 80 2

C119 13 139 56 121 92

C112 110 95 123 75 127

C66 128 62 128 52 126

Z

M84 82

L84 77

L64 77

L44 77

L44 82

L44 88

L64 87

L84 87

L84 82

Z

M46 56

C51 53 52 45 48 40

C44 37 41 36 36 39

C29 42 28 52 35 56

C39 58 42 58 46 56

Z

M93 56

C100 52 99 41 91 38

C87 37 84 37 80 40

C78 42 78 44 78 47

C78 56 85 61 93 56

Z

"/>



</svg>

