<?xml version="1.0" standalone="no"?>

<!DOCTYPE svg PUBLIC "-//W3C//DTD SVG 20010904//EN"

 "http://www.w3.org/TR/2001/REC-SVG-20010904/DTD/svg10.dtd">

<svg version="1.0" xmlns="http://www.w3.org/2000/svg"

 width="128.000000pt" height="128.000000pt" viewBox="0 0 128.000000 128.000000"

 preserveAspectRatio="xMidYMid meet">

<path stroke="none" d="
M56 127

C34 124 17 112 7 93

C3 84 1 75 1 64

C1 39 14 18 36 7

C44 3 53 1 64 1

C89 1 110 14 121 36

C125 44 127 53 127 64

C127 89 115 109 93 121

C82 126 66 129 56 127

Z

M99 100

C99 98 93 90 89 86

C86 85 82 82 79 80

C74 78 72 78 64 78

C56 78 54 78 49 80

C46 82 42 85 39 86

C35 90 29 98 29 100

L29 101

L64 101

L99 101

L99 100

Z

M46 62

L49 65

L54 61

L58 57

L54 53

L51 49

L55 46

L59 42

L55 38

L52 34

L48 38

L43 42

L40 38

L36 35

L32 39

L28 43

L31 47

L35 51

L31 55

L27 58

L31 62

L34 66

L39 62

L43 58

L46 62

Z

M88 61

L92 65

L95 61

L99 57

L96 54

C94 52 93 50 93 49

C93 49 95 47 97 45

L100 42

L97 38

C95 37 93 35 93 35

C93 35 91 37 88 38

L85 42

L81 38

L77 35

L74 39

L70 43

L73 47

L76 50

L72 54

L69 58

L72 62

L76 66

L80 62

L84 58

L88 61

Z

"/>


</svg>

