<?xml version="1.0" standalone="no"?>

<!DOCTYPE svg PUBLIC "-//W3C//DTD SVG 20010904//EN"

 "http://www.w3.org/TR/2001/REC-SVG-20010904/DTD/svg10.dtd">

<svg version="1.0" xmlns="http://www.w3.org/2000/svg"

 width="128.000000pt" height="128.000000pt" viewBox="0 0 128.000000 128.000000"

 preserveAspectRatio="xMidYMid meet">

<path stroke="none" d="
M52 126

C19 120 -5 87 1 53

C6 29 24 9 48 2

C56 0 72 0 80 2

C119 13 139 56 121 92

C112 110 95 123 75 127

C66 128 62 128 52 126

Z

M71 100

C82 98 91 91 96 82

L98 78

L81 77

C72 77 56 77 47 77

L30 78

L32 82

C36 90 46 98 56 100

C62 101 64 101 71 100

Z

M40 54

L43 51

L46 54

L50 57

L53 54

C55 53 57 51 57 50

C57 50 54 46 50 42

L43 36

L36 43

L29 50

L32 53

C34 55 36 57 36 57

C36 57 38 56 40 54

Z

M82 54

L85 51

L89 54

L92 57

L96 54

L99 50

L92 43

L85 36

L78 43

L71 50

L74 53

C76 55 78 57 78 57

C78 57 80 56 82 54

Z

"/>


</svg>

