<?xml version="1.0" encoding="utf-8"?>
<!-- Generator: Adobe Illustrator 22.1.0, SVG Export Plug-In . SVG Version: 6.00 Build 0)  -->
<svg version="1.1" id="shared-press" xmlns="http://www.w3.org/2000/svg" xmlns:xlink="http://www.w3.org/1999/xlink" x="0px" y="0px"
	 viewBox="0 0 80.2 79.7" style="enable-background:new 0 0 80.2 79.7;" xml:space="preserve">
<style type="text/css">
	.svg-shared0{fill:none;stroke:#308EA5;stroke-width:7;stroke-miterlimit:10;}
	.svg-shared1{fill:#308EA5;}
	.svg-shared2{fill:none;stroke:#308EA5;stroke-width:6;stroke-miterlimit:10;}
</style>
<path class="svg-shared0" d="M27.7,64.5h-7.6c-3.1,0-5.7-2.6-5.7-5.7V16.4c0-3.1,2.6-5.7,5.7-5.7h34.7c3.1,0,5.7,2.6,5.7,5.7v11.8"/>
<line class="svg-shared0" x1="24.1" y1="23.7" x2="50.1" y2="23.7"/>
<line class="svg-shared0" x1="24.1" y1="35.3" x2="48.7" y2="35.3"/>
<line class="svg-shared0" x1="24.1" y1="46.9" x2="36.4" y2="46.9"/>
<line class="svg-shared0" x1="24.1" y1="23.7" x2="50.1" y2="23.7"/>
<path class="svg-shared1" d="M56.7,36.7v8.4c0,0-19.5-1.9-22.3,20.8c0,0,4.2-8,12.8-9.6s9.5,0.6,9.5,0.6v8.1l13.9-13.6L56.7,36.7z"/>
</svg>
