<svg version="1.1" baseProfile="tiny" id="svg-smile"
	 xmlns="http://www.w3.org/2000/svg" xmlns:xlink="http://www.w3.org/1999/xlink" x="0px" y="0px" viewBox="0 0 114 84"
	 xml:space="preserve">
      <g>
        <path d="M110.1,47.9c-2.4-4.8-6.2-7.8-8.4-6.7c-2.2,1-2.1,5.4,0,10c-12,9.9-27.6,15.9-44.7,15.9c-17.1,0-32.7-6-44.7-15.9
          c2.1-4.6,2.2-9,0-10c-2.2-1.1-6,2-8.4,6.7c-2.4,4.8-2.5,9.5-0.3,10.6c1.8,0.8,4.5-0.9,6.8-4C19.2,70.7,36.8,81.7,57,81.7
          c20.2,0,37.8-11,46.6-27.2c2.3,3.1,5,4.8,6.8,4C112.6,57.4,112.5,52.7,110.1,47.9z"/>
        <circle cx="36.6" cy="12.1" r="9.8"/>
        <circle cx="77.4" cy="12.1" r="9.8"/>
      </g>
</svg>
