<?xml version="1.0" standalone="no"?>

<!DOCTYPE svg PUBLIC "-//W3C//DTD SVG 20010904//EN"

 "http://www.w3.org/TR/2001/REC-SVG-20010904/DTD/svg10.dtd">

<svg version="1.0" xmlns="http://www.w3.org/2000/svg"

 width="1200.000000pt" height="1246.000000pt" viewBox="0 0 1200.000000 1246.000000"

 preserveAspectRatio="xMidYMid meet">

<path  stroke="none" d="
M190 1244

C184 1243 180 1241 176 1236

C168 1229 169 1234 168 1149

L168 1073

L121 1073

C75 1073 74 1073 70 1071

C67 1069 65 1067 64 1065

C62 1062 62 1061 62 821

C62 581 62 580 64 577

C65 575 67 573 70 571

C74 569 75 569 121 569

L168 569

L168 319

C168 69 168 69 170 64

C173 57 178 53 184 50

C188 48 189 48 514 48

C840 48 840 48 845 51

C850 53 863 65 940 142

C1017 219 1029 232 1031 237

C1034 243 1034 243 1034 406

L1034 569

L1081 569

C1127 569 1128 569 1132 571

C1135 573 1137 575 1138 577

C1140 580 1141 581 1141 821

C1141 1060 1140 1062 1139 1065

C1137 1067 1135 1069 1133 1070

C1130 1072 1129 1073 1082 1073

L1034 1073

L1034 1148

C1034 1224 1034 1224 1031 1230

C1027 1238 1020 1243 1011 1244

C1004 1245 197 1245 190 1244

Z

"/>

<path  stroke="none" d="
M190 1244

C184 1243 180 1241 176 1236

C168 1229 169 1234 169 1149

L169 1073

L122 1073

C75 1073 75 1073 70 1071

C67 1069 65 1067 64 1065

C62 1062 62 1061 62 821

C62 581 62 580 64 577

C65 575 67 573 70 571

C75 569 75 569 122 569

L169 570

L168 320

C168 88 168 69 170 65

C172 59 177 53 184 50

C189 48 189 48 514 48

C840 48 840 48 845 51

C850 53 863 65 940 142

C1018 221 1029 232 1031 237

C1034 243 1034 243 1034 406

L1034 570

L1081 569

C1128 569 1128 569 1132 571

C1135 573 1137 575 1138 577

C1140 580 1141 581 1141 821

C1141 1060 1140 1062 1139 1065

C1137 1067 1135 1069 1133 1070

C1130 1072 1129 1073 1082 1073

L1034 1073

L1034 1148

C1034 1224 1034 1224 1031 1230

C1027 1238 1020 1243 1011 1244

C1004 1245 197 1245 190 1244

Z

"/>

<path  stroke="none" d="
M397 1244

C509 1244 693 1244 805 1244

L1009 1245

L601 1245

L194 1245

L397 1244

Z

M601 1191

L222 1191

L221 1132

L221 1073

L601 1073

L981 1073

L981 1132

L981 1192

L981 1192

L981 1192

L601 1191

Z

M97 1072

C110 1072 132 1072 144 1072

L168 1073

L121 1073

L74 1073

L97 1072

Z

M1058 1072

C1071 1072 1091 1072 1104 1072

L1128 1073

L1081 1073

L1035 1073

L1058 1072

Z

M65 1068

L64 1066

L66 1067

C67 1068 68 1069 68 1070

L68 1070

L68 1070

C67 1070 66 1069 65 1068

Z

M61 821

L61 585

L62 703

C62 768 62 874 62 939

L61 1058

L61 821

Z

M1140 821

L1140 585

L1141 703

C1141 768 1141 874 1141 939

L1140 1058

L1140 821

Z

M324 945

C325 928 325 928 373 854

C400 813 422 779 422 779

L422 778

L378 778

L334 779

L334 755

L334 732

L413 732

L492 732

L491 749

C491 767 491 767 442 840

C415 881 393 915 393 915

L393 916

L443 916

L493 916

L493 939

L493 963

L408 963

L324 963

L324 945

Z

M556 847

L556 732

L583 732

L611 732

L611 847

L612 963

L584 963

L556 963

L556 847

Z

M691 847

L691 732

L741 732

C793 733 798 733 815 738

C840 746 857 763 861 787

C863 796 864 816 862 824

C856 855 834 876 799 883

C792 885 783 885 768 886

L746 886

L746 924

L747 963

L719 963

L691 963

L691 847

Z

M784 840

C792 838 795 837 800 832

C805 828 808 823 809 814

C812 797 806 784 791 779

C786 777 783 777 766 776

L746 776

L746 809

L746 842

L762 842

C774 842 780 842 784 840

Z

M1135 574

L1134 572

L1136 573

C1137 574 1138 575 1138 576

L1138 576

L1138 576

C1137 576 1136 575 1135 574

Z

M295 569

L221 569

L221 335

L221 102

L272 102

L324 102

L324 143

L324 185

L346 185

L369 185

L369 231

L370 278

L346 277

L323 277

L323 323

L323 369

L346 369

L370 369

L369 415

L369 462

L346 462

L323 462

L323 508

L323 554

L346 554

L370 554

L370 562

L370 570

L370 570

L370 570

L295 569

Z

M462 562

L462 554

L439 554

L415 554

L415 508

L415 462

L438 462

L462 462

L462 416

L462 370

L438 369

L415 369

L415 323

L415 277

L438 277

L462 277

L462 231

L462 186

L438 185

L415 185

L415 143

L415 102

L615 102

L815 102

L814 126

C814 163 816 178 826 198

C832 211 839 220 849 230

C867 248 889 258 914 261

C919 262 935 262 952 262

L981 262

L980 415

L980 569

L721 569

L462 569

L462 562

Z

M381 461

C387 461 397 461 403 461

L414 462

L392 462

L371 462

L381 461

Z

M939 142

L853 56

L939 142

C987 190 1026 229 1026 229

L1026 229

L1026 229

C1026 229 987 190 939 142

Z

M381 184

C387 184 397 184 403 184

L414 185

L392 185

L371 185

L381 184

Z

"/>

<path stroke="none" d="
M601 1191

L222 1191

L221 1132

L221 1073

L601 1073

L981 1073

L981 1132

L981 1192

L981 1192

L981 1192

L601 1191

Z

M61 821

L61 585

L62 703

C62 768 62 874 62 939

L61 1058

L61 821

Z

M1140 821

L1140 585

L1141 703

C1141 768 1141 874 1141 939

L1140 1058

L1140 821

Z

M324 945

C325 928 325 928 373 854

C400 813 422 779 422 779

L422 778

L378 778

L334 779

L334 755

L334 732

L413 732

L492 732

L491 749

C491 767 491 767 442 840

C415 881 393 915 393 915

L393 916

L443 916

L493 916

L493 939

L493 963

L408 963

L324 963

L324 945

Z

M556 847

L556 732

L583 732

L611 732

L611 847

L612 963

L584 963

L556 963

L556 847

Z

M691 847

L691 732

L741 732

C793 733 798 733 815 738

C840 746 857 763 861 787

C863 796 864 816 862 824

C856 855 834 876 799 883

C792 885 783 885 768 886

L746 886

L746 924

L747 963

L719 963

L691 963

L691 847

Z

M784 840

C792 838 795 837 800 832

C805 828 808 823 809 814

C812 797 806 784 791 779

C786 777 783 777 766 776

L746 776

L746 809

L746 842

L762 842

C774 842 780 842 784 840

Z

M295 569

L221 569

L221 335

L221 102

L272 102

L324 102

L324 143

L324 185

L346 185

L369 185

L369 231

L370 278

L346 277

L323 277

L323 323

L323 369

L346 369

L370 369

L369 415

L369 462

L346 462

L323 462

L323 508

L323 554

L346 554

L370 554

L370 562

L370 570

L370 570

L370 570

L295 569

Z

M462 562

L462 554

L439 554

L415 554

L415 508

L415 462

L438 462

L462 462

L462 416

L462 370

L438 369

L415 369

L415 323

L415 277

L438 277

L462 277

L462 231

L462 186

L438 185

L415 185

L415 143

L415 102

L615 102

L815 102

L814 126

C814 163 816 178 826 198

C832 211 839 220 849 230

C867 248 889 258 914 261

C919 262 935 262 952 262

L981 262

L980 415

L980 569

L721 569

L462 569

L462 562

Z

M939 142

L853 56

L939 142

C987 190 1026 229 1026 229

L1026 229

L1026 229

C1026 229 987 190 939 142

Z

"/>

<path stroke="none" d="
M221 1190

C221 1189 221 1163 221 1131

L222 1074

L601 1074

L980 1074

L980 1132

L980 1191

L601 1191

L222 1191

L221 1190

Z

M1140 821

L1140 585

L1141 703

C1141 768 1141 874 1141 939

L1140 1058

L1140 821

Z

M325 961

C324 961 324 953 324 945

C324 929 324 929 373 854

C400 813 422 779 422 779

L422 778

L378 778

L335 778

L335 755

L335 733

L413 733

L491 733

L491 749

C491 766 491 766 442 840

C415 881 393 915 393 915

L393 916

L442 916

L492 917

L492 939

L492 962

L408 962

C363 962 325 962 325 961

Z

M556 961

C556 960 556 908 556 846

L557 733

L584 732

L611 732

L611 847

L611 962

L584 962

L557 962

L556 961

Z

M691 961

C691 960 691 908 691 846

L692 733

L734 732

C793 732 808 734 828 744

C846 752 857 768 861 787

C863 796 864 816 862 824

C856 855 834 876 799 883

C792 885 783 885 768 886

L746 886

L746 924

L746 962

L719 962

L692 962

L691 961

Z

M784 840

C792 838 795 837 800 832

C805 828 808 823 809 814

C812 797 806 784 791 779

C786 777 783 777 766 776

L746 776

L746 809

L746 842

L762 842

C774 842 780 842 784 840

Z

M221 341

C221 215 221 110 222 108

L223 103

L273 103

L323 103

L323 144

L323 186

L346 185

L369 185

L369 231

L369 277

L346 277

L323 277

L323 323

L323 369

L346 369

L369 370

L369 416

L369 462

L346 462

L323 462

L323 508

L323 554

L346 554

L369 555

L369 562

L369 569

L295 569

L221 569

L221 341

Z

M462 562

L462 554

L439 554

L415 554

L415 508

L415 462

L438 462

L462 462

L462 416

L462 370

L438 369

L415 369

L415 323

L415 277

L439 277

L463 278

L463 231

L463 185

L439 185

L415 185

L415 144

L416 103

L615 103

L814 103

L814 133

C815 156 815 165 816 171

C822 195 832 214 849 230

C865 245 882 255 904 260

C909 261 919 261 945 262

L980 263

L980 416

L980 569

L721 569

L462 569

L462 562

Z

"/>

<path fill="#fdfdfd" stroke="none" d="
M221 1190

C221 1189 221 1163 221 1131

L222 1074

L601 1074

L980 1074

L980 1132

L980 1191

L601 1191

L222 1191

L221 1190

Z

M325 961

C324 961 324 953 324 945

C324 929 324 929 373 854

C400 813 423 779 423 779

L425 778

L424 778

C423 778 403 778 379 778

L335 778

L335 755

L335 733

L413 733

L491 733

L491 749

C491 766 491 766 442 840

C415 881 392 915 392 915

L391 916

L392 916

C392 916 415 916 442 916

L492 917

L492 939

L492 962

L408 962

C363 962 325 962 325 961

Z

M556 961

C556 960 556 908 556 846

L557 733

L584 732

L611 732

L611 847

L611 962

L584 962

L557 962

L556 961

Z

M691 961

C691 960 691 908 691 846

L692 733

L734 732

C793 732 808 734 828 744

C846 752 857 768 861 787

C863 796 864 816 862 824

C856 855 834 876 799 883

C792 885 783 885 768 886

L746 886

L746 924

L746 962

L719 962

L692 962

L691 961

Z

M784 840

C792 838 795 837 800 832

C805 828 808 823 809 814

C812 797 806 784 791 779

C786 777 783 777 766 776

L746 776

L746 809

L746 842

L762 842

C774 842 780 842 784 840

Z

M221 341

C221 215 221 110 222 108

L223 103

L273 103

L323 103

L323 144

L323 186

L346 185

L369 185

L369 231

L369 277

L346 277

L323 277

L323 323

L323 369

L346 369

L369 370

L369 416

L369 462

L346 462

L323 462

L323 508

L323 554

L346 554

L369 555

L369 562

L369 569

L295 569

L221 569

L221 341

Z

M462 562

L462 554

L439 554

L415 554

L415 508

L415 462

L438 462

L462 462

L462 416

L462 370

L438 369

L415 369

L415 323

L415 277

L439 277

L463 278

L463 231

L463 185

L439 185

L415 185

L415 144

L416 103

L615 103

L814 103

L814 133

C815 156 815 165 816 171

C822 195 832 214 849 230

C865 245 882 255 904 260

C909 261 919 261 945 262

L980 263

L980 416

L980 569

L721 569

L462 569

L462 562

Z

"/>

<path fill="#ffffff" stroke="none" d="
M221 1190

C221 1189 221 1163 221 1131

L222 1074

L601 1074

L980 1074

L980 1132

L980 1191

L601 1191

L222 1191

L221 1190

Z

M325 961

C324 961 324 953 324 945

C324 929 324 929 373 854

C400 813 423 779 423 779

L425 778

L424 778

C423 778 403 778 379 778

L335 778

L335 755

L335 733

L413 733

L491 733

L491 749

C491 766 491 766 442 840

C415 881 392 915 392 915

L391 916

L392 916

C392 916 415 916 442 916

L492 917

L492 939

L492 962

L408 962

C363 962 325 962 325 961

Z

M327 941

L326 935

L326 948

L326 961

L327 954

C327 951 327 945 327 941

Z

M556 961

C556 960 556 908 556 846

L557 733

L580 732

L603 732

L601 734

L599 735

L603 740

L608 744

L609 742

L611 740

L611 851

L611 962

L584 962

L557 962

L556 961

Z

M691 961

C691 960 691 908 691 846

L692 733

L734 732

C793 732 808 734 828 744

C846 752 857 768 861 787

C863 796 864 816 862 824

C856 855 834 876 799 883

C792 885 783 885 768 886

L746 886

L746 924

L746 962

L719 962

L692 962

L691 961

Z

M755 845

L755 844

L767 844

C778 844 787 842 793 839

C798 837 806 829 808 825

C813 816 813 801 808 792

C806 786 798 780 791 777

C786 775 783 775 766 774

C752 774 747 774 745 775

C744 776 744 781 744 805

L744 833

L743 833

L742 833

L742 835

L742 837

L743 836

L744 836

L744 839

C744 840 745 842 745 843

C746 843 748 844 749 844

L752 844

L752 845

C752 845 752 846 752 846

L752 847

L754 847

L756 846

L755 845

Z

M221 340

C221 215 221 110 222 108

L223 103

L273 103

L323 103

L323 145

L323 187

L345 187

L367 187

L367 230

L367 272

L349 272

C334 272 330 272 329 274

C328 274 326 275 325 275

L323 275

L322 277

C322 278 322 300 322 324

L323 369

L346 369

L369 370

L369 416

L369 462

L346 462

L323 462

L323 508

L323 555

L345 555

L368 555

L368 561

C368 564 368 567 367 567

L366 568

L367 567

L367 565

L296 565

L224 565

L224 566

L225 568

L223 568

L221 568

L221 340

Z

M464 567

C463 567 463 564 463 560

L463 554

L439 554

L415 554

L415 508

L415 462

L438 462

L462 462

L462 416

L462 370

L438 369

L415 369

L415 323

L415 277

L439 277

L463 278

L463 231

L463 185

L439 185

L415 185

L415 144

L416 103

L615 103

L814 103

L814 133

C815 156 815 165 816 171

C822 195 832 214 849 230

C865 245 882 255 904 260

C909 261 919 261 945 262

L980 263

L980 415

L980 568

L979 568

L977 568

L978 566

L978 565

L721 565

L464 565

L464 567

L465 568

L465 568

C464 568 464 568 464 567

Z

M745 842

C745 841 745 826 745 808

L746 776

L766 776

C784 776 786 776 791 778

C798 781 805 786 807 792

C810 798 811 806 810 814

C809 823 806 827 801 833

C792 841 784 843 762 843

L746 843

L745 842

Z

M784 840

C792 838 795 837 800 832

C805 828 808 823 809 814

C812 797 806 784 791 779

C786 777 783 777 766 776

L746 776

L746 809

L746 842

L762 842

C774 842 780 842 784 840

Z

"/>

<path fill="#ffffff" stroke="none" d="
M221 1190

C221 1189 221 1163 221 1131

L222 1074

L601 1074

L980 1074

L980 1132

L980 1191

L601 1191

L222 1191

L221 1190

Z

M325 961

C324 961 324 953 324 945

C324 929 324 929 373 854

C400 813 423 779 423 779

L425 778

L424 778

C423 778 403 778 379 778

L335 778

L335 755

L335 733

L413 733

L491 733

L491 749

C491 766 491 766 442 840

C415 881 392 915 392 915

L391 916

L392 916

C392 916 415 916 442 916

L492 917

L492 939

L492 962

L408 962

C363 962 325 962 325 961

Z

M327 941

L326 935

L326 948

L326 961

L327 954

C327 951 327 945 327 941

Z

M556 961

C556 960 556 908 556 846

L557 733

L580 732

L603 732

L601 734

L599 735

L603 740

L608 744

L609 742

L611 740

L611 851

L611 962

L584 962

L557 962

L556 961

Z

M691 961

C691 960 691 908 691 846

L692 733

L734 732

C793 732 808 734 828 744

C846 752 857 768 861 787

C863 796 864 816 862 824

C856 855 834 876 799 883

C792 885 783 885 768 886

L746 886

L746 924

L746 962

L719 962

L692 962

L691 961

Z

M755 845

L755 844

L767 844

C778 844 787 842 793 839

C798 837 806 829 808 825

C813 816 813 801 808 792

C806 786 798 780 791 777

C786 775 783 775 766 774

C752 774 747 774 745 775

C744 776 744 781 744 805

L744 833

L743 833

L742 833

L742 835

L742 837

L743 836

L744 836

L744 839

C744 840 745 842 745 843

C746 843 748 844 749 844

L752 844

L752 845

C752 845 752 846 752 846

L752 847

L754 847

L756 846

L755 845

Z

M221 340

C221 215 221 110 222 108

L223 103

L273 103

L323 103

L323 145

L323 187

L345 187

L367 187

L367 230

L367 272

L349 272

C334 272 330 272 329 274

C328 274 326 275 325 275

L323 275

L322 277

C322 278 322 300 322 324

L323 369

L346 369

L369 370

L369 416

L369 462

L346 462

L323 462

L323 508

L323 555

L345 555

L368 555

L368 561

C368 564 368 567 367 567

L366 568

L367 567

L367 565

L296 565

L224 565

L224 566

L225 568

L223 568

L221 568

L221 340

Z

M464 567

C463 567 463 564 463 560

L463 554

L439 554

L415 554

L415 508

L415 462

L438 462

L462 462

L462 416

L462 370

L438 369

L415 369

L415 323

L415 277

L439 277

L463 278

L463 231

L463 185

L439 185

L415 185

L415 144

L416 103

L615 103

L814 103

L814 133

C815 156 815 165 816 171

C822 195 832 214 849 230

C865 245 882 255 904 260

C909 261 919 261 945 262

L980 263

L980 415

L980 568

L979 568

L977 568

L978 566

L978 565

L721 565

L464 565

L464 567

L465 568

L465 568

C464 568 464 568 464 567

Z

M745 842

C745 841 745 826 745 808

L746 776

L766 776

C784 776 786 776 791 778

C798 781 805 786 807 792

C810 798 811 806 810 814

C809 823 806 827 801 833

C792 841 784 843 762 843

L746 843

L745 842

Z

M784 840

C792 838 795 837 800 832

C805 828 808 823 809 814

C812 797 806 784 791 779

C786 777 783 777 766 776

L746 776

L746 809

L746 842

L762 842

C774 842 780 842 784 840

Z

"/>

</svg>

