<?xml version="1.0" standalone="no"?>

<!DOCTYPE svg PUBLIC "-//W3C//DTD SVG 20010904//EN"

 "http://www.w3.org/TR/2001/REC-SVG-20010904/DTD/svg10.dtd">

<svg version="1.0" xmlns="http://www.w3.org/2000/svg"

 width="1662.000000pt" height="1406.000000pt" viewBox="0 0 1662.000000 1406.000000"

 preserveAspectRatio="xMidYMid meet">

<path fill="#ed3b00" stroke="none" d="
M659 1404

L659 1403

L629 1402

C613 1401 596 1400 592 1400

C588 1399 580 1398 575 1398

C569 1398 563 1397 561 1396

C558 1396 552 1395 548 1395

C541 1395 538 1394 535 1393

C532 1392 529 1391 527 1391

C524 1391 520 1390 517 1390

C514 1389 509 1388 507 1388

C504 1388 501 1387 500 1387

C499 1386 494 1385 489 1384

C484 1384 480 1383 479 1383

C477 1381 468 1379 462 1378

C459 1378 456 1377 455 1376

C455 1375 452 1374 448 1374

C445 1374 441 1373 441 1372

C440 1372 438 1371 436 1371

C434 1371 432 1370 430 1370

C429 1369 426 1368 424 1368

C421 1367 419 1366 418 1365

C417 1365 416 1364 414 1364

C413 1364 410 1363 409 1363

C408 1362 405 1361 404 1361

C402 1361 401 1360 400 1359

C399 1357 398 1357 395 1357

L390 1357

L390 1356

C389 1355 387 1354 385 1354

C382 1353 380 1352 379 1352

C379 1351 378 1351 377 1351

C375 1351 373 1350 371 1349

C369 1348 366 1347 365 1347

C365 1347 363 1346 361 1345

C360 1344 358 1343 357 1343

C356 1343 355 1342 354 1342

C353 1341 351 1340 350 1340

L347 1340

L347 1339

C347 1338 345 1337 342 1336

C333 1333 332 1332 331 1331

C330 1331 329 1330 327 1330

C326 1330 324 1329 323 1328

C322 1327 320 1326 319 1326

C318 1326 317 1325 316 1325

C315 1324 314 1323 313 1323

L311 1323

L310 1322

L310 1320

L308 1320

C306 1320 305 1319 304 1318

C303 1318 300 1316 297 1314

C294 1313 292 1311 292 1311

C291 1311 290 1310 288 1309

L285 1309

L285 1308

C285 1308 283 1306 280 1305

C278 1304 275 1302 274 1302

C273 1301 271 1300 270 1299

C265 1297 263 1296 262 1294

C261 1294 260 1293 260 1293

C259 1293 257 1292 255 1290

C251 1287 250 1286 249 1286

C249 1286 247 1285 247 1284

C246 1283 244 1282 243 1282

C243 1282 242 1281 241 1281

C240 1279 238 1277 234 1276

C233 1276 232 1274 231 1274

C230 1273 229 1272 228 1272

C228 1272 227 1271 226 1270

C225 1269 224 1268 224 1268

C223 1268 221 1267 219 1265

C217 1263 215 1262 215 1262

C215 1262 213 1260 210 1259

C208 1257 206 1255 206 1255

L205 1255

L205 1254

L205 1252

L204 1252

C203 1252 201 1251 200 1250

C192 1243 190 1241 188 1240

C183 1237 139 1194 139 1192

L139 1191

L138 1191

L136 1190

L136 1189

L136 1187

L135 1187

C134 1187 132 1185 131 1183

C130 1182 128 1180 128 1180

L127 1180

L127 1179

C127 1178 126 1176 124 1175

C123 1174 121 1171 119 1169

C118 1167 116 1165 115 1164

L114 1164

L114 1163

C114 1162 112 1159 110 1157

C105 1152 104 1150 102 1146

C101 1145 100 1143 99 1143

C99 1142 98 1141 98 1140

L98 1139

L97 1139

L96 1139

L95 1136

C94 1134 92 1132 91 1130

C90 1129 89 1128 89 1127

C89 1127 88 1125 86 1123

C84 1120 83 1118 83 1117

C83 1117 82 1116 81 1115

C78 1112 77 1110 76 1108

L75 1105

L74 1105

L73 1105

L73 1104

C73 1102 66 1089 65 1088

L64 1088

L64 1086

C64 1085 63 1084 63 1083

C62 1082 60 1080 59 1077

C59 1075 57 1071 56 1070

C55 1068 54 1066 54 1066

C54 1065 54 1064 53 1064

C53 1063 52 1062 51 1060

L51 1057

L50 1057

L49 1057

L49 1056

C49 1055 48 1052 43 1041

C42 1039 41 1037 41 1036

L41 1034

L40 1034

L39 1034

L39 1030

C38 1028 37 1026 37 1025

C36 1024 35 1023 35 1021

C35 1020 34 1018 34 1016

C33 1015 32 1013 32 1011

C32 1010 31 1009 31 1008

C30 1007 29 1006 29 1004

C29 1003 28 1000 28 999

C27 998 26 995 26 993

C26 992 25 990 25 989

C24 988 23 986 23 984

C22 982 22 979 21 978

C21 977 20 974 20 972

C19 969 18 967 17 966

C17 965 16 963 16 960

L16 955

L15 955

L14 955

L14 949

C13 946 12 943 12 942

C11 941 10 938 10 934

C9 924 6 908 5 906

C4 905 4 900 4 895

C4 890 3 884 3 880

C0 870 0 789 3 787

C4 786 4 783 4 771

C4 760 4 754 5 752

C6 749 7 745 7 743

C7 740 8 735 8 732

C9 728 10 723 10 720

C10 718 11 715 11 714

C12 713 15 703 16 693

C16 690 17 687 18 686

C18 685 20 682 20 679

C21 672 23 664 25 661

C25 660 26 658 26 657

C26 655 27 653 27 652

C28 650 29 648 29 646

C30 641 35 627 37 622

C38 620 39 617 39 616

C39 615 39 614 40 614

C41 613 41 612 41 611

C41 610 42 608 43 606

C44 604 45 601 45 600

C45 599 46 598 47 597

C47 595 48 594 48 593

C48 592 49 591 50 590

C50 589 51 588 51 587

C51 586 52 584 53 583

C53 581 54 579 54 578

C54 577 55 576 56 575

C56 574 57 573 57 573

C57 571 62 561 63 561

C64 560 64 559 64 557

C64 556 65 554 66 553

C66 553 67 551 67 550

L67 548

L69 548

L70 547

L70 544

C70 543 71 541 72 540

C72 539 73 538 73 538

C73 537 75 533 78 528

C81 523 83 518 83 518

C83 517 83 516 84 516

C85 515 89 509 89 507

L89 505

L90 505

L91 505

L92 502

L93 499

L94 499

L95 499

L95 497

C95 496 96 495 96 494

C97 493 99 490 101 486

C102 485 102 483 103 483

C104 482 106 479 107 476

C108 475 109 472 111 470

C113 468 114 466 114 465

C114 464 115 463 116 462

C118 459 120 457 120 456

C120 456 122 453 125 449

C127 445 130 440 131 439

C132 437 135 434 136 433

C138 431 139 429 139 428

C139 428 140 426 141 426

C142 425 143 423 143 423

C143 422 144 420 146 419

C148 417 150 414 151 412

C151 410 153 409 154 408

C155 407 156 406 156 406

C156 404 161 398 166 394

C167 392 168 390 169 389

C172 384 177 377 179 377

C179 377 181 375 182 374

C182 372 184 370 185 370

L186 370

L186 368

L186 367

L188 366

L189 366

L189 365

C189 364 190 363 192 361

C194 360 195 358 195 358

C195 357 196 356 197 355

C198 353 200 351 201 350

C204 346 225 324 232 317

C234 315 240 309 245 304

C250 299 254 295 255 295

L256 295

L256 294

C256 293 264 286 266 285

L268 284

L268 283

L268 281

L269 281

C269 281 271 279 274 277

C285 267 294 258 296 258

C296 257 299 255 302 252

C304 250 307 248 308 248

C308 248 310 247 310 246

C311 244 313 243 313 243

C314 243 316 242 317 240

C318 238 320 237 320 237

C322 237 331 230 331 228

L331 227

L333 227

C334 227 336 226 336 225

C337 224 338 223 338 223

C339 223 340 222 341 221

C342 220 344 219 345 218

C346 217 348 216 349 215

C350 214 351 213 352 213

L353 213

L354 212

L354 210

L355 210

C356 210 358 209 360 207

C362 205 364 204 365 204

C365 204 366 203 367 202

C368 201 371 199 373 198

C375 196 378 194 378 194

C378 193 379 193 379 193

C380 193 381 192 382 191

C383 190 385 189 385 189

C386 189 387 189 387 188

C388 187 394 183 395 183

C396 183 397 182 397 181

C398 180 399 179 400 179

C401 179 402 178 403 178

C404 177 405 176 406 176

L407 176

L408 175

L408 173

L409 173

C410 173 411 172 412 171

C414 169 418 167 421 166

C423 165 424 164 424 163

L425 162

L427 162

C428 162 433 159 435 157

C435 157 437 156 438 155

C440 155 441 154 441 153

L441 152

L443 152

C444 152 446 151 447 150

C448 149 451 147 454 146

C456 145 459 143 459 143

C459 143 462 141 465 140

C468 138 471 137 471 136

L471 135

L473 135

C474 135 476 134 477 133

C479 132 481 131 481 131

L483 131

L483 130

L483 129

L486 128

L489 127

L489 126

L489 125

L492 124

C494 124 496 123 496 123

C497 122 505 118 506 118

C507 118 508 117 509 116

C510 115 512 114 513 114

C514 114 515 113 516 113

C517 112 518 111 519 111

C520 111 521 110 522 110

C523 109 524 108 525 108

C527 108 529 107 530 106

C530 105 532 104 533 104

C535 104 536 103 538 103

C539 102 540 101 542 101

L544 101

L544 100

L545 98

L547 98

C549 98 551 97 552 96

C553 95 554 94 556 94

C557 94 558 93 559 93

C560 92 561 91 562 91

C564 91 566 90 567 89

C567 88 570 87 571 87

C573 87 575 86 575 86

C576 85 577 84 578 84

C579 84 581 83 582 83

C584 82 586 81 588 81

C590 80 591 79 592 78

C593 78 595 77 597 77

C599 77 601 76 602 75

C603 74 605 73 606 73

C607 73 608 72 609 71

C611 71 613 70 615 70

C616 70 618 69 619 69

C620 68 621 67 622 67

C625 67 639 63 640 61

C641 61 643 60 644 60

C646 60 649 59 651 58

C653 57 656 56 657 56

C659 56 661 55 663 55

C664 54 667 53 669 53

C670 53 672 52 673 52

C674 51 676 50 679 50

C682 49 685 48 686 48

C687 47 689 46 690 46

C692 46 694 45 696 45

C698 44 701 43 703 43

C704 43 707 42 708 41

C709 40 713 39 716 39

C723 38 734 35 735 34

C736 34 739 33 742 33

C745 32 748 31 749 31

C750 30 753 29 756 29

C759 29 764 28 767 28

C769 27 773 26 776 26

C778 26 780 25 782 25

C783 24 786 23 789 23

L794 23

L794 70

C794 116 794 118 792 119

C791 120 789 120 787 120

C785 120 782 121 781 122

C780 123 776 124 773 124

C770 124 766 125 765 126

C760 127 753 129 747 130

C744 131 741 132 740 133

C739 133 737 134 734 134

C732 134 730 135 728 135

C727 136 726 137 725 137

C723 137 721 138 720 139

C718 139 715 140 713 141

C710 141 708 142 707 142

C707 143 705 144 703 144

C698 145 691 148 689 150

C688 150 686 151 685 151

C683 151 682 152 681 153

C680 153 679 154 679 154

C678 154 676 155 675 156

C673 156 670 157 668 158

L664 158

L664 160

L664 161

L661 161

L657 161

L657 163

L656 164

L654 164

C653 164 651 165 649 166

C647 167 644 168 643 168

L641 168

L640 170

L640 171

L637 171

C636 171 633 172 632 173

C630 174 629 175 628 175

C627 175 626 176 624 176

C623 177 621 178 620 178

C619 178 617 179 616 180

C615 181 613 182 611 182

C610 182 608 183 607 184

C606 184 605 185 604 185

L602 185

L601 187

L601 188

L600 188

C599 188 595 190 591 192

C588 193 584 195 584 195

C583 195 582 196 581 197

C580 198 578 199 577 199

C576 199 575 199 575 200

C574 201 566 205 562 206

L560 207

L560 208

L560 209

L558 209

C557 209 549 213 547 215

C546 215 545 216 545 216

C544 216 542 217 540 219

C538 221 536 222 535 222

C534 222 533 223 532 224

C531 225 530 226 529 226

C528 226 523 229 521 231

C521 231 519 232 518 233

C516 233 515 234 515 235

L515 236

L513 236

C512 236 511 237 510 238

C509 238 508 240 507 240

C502 242 489 250 489 252

C488 253 487 253 486 253

L484 253

L484 254

C484 256 481 258 477 260

L475 260

L475 261

C475 261 473 263 470 265

C467 267 465 269 465 269

L465 270

L463 270

L461 270

L461 272

L460 274

L459 274

C458 274 456 275 454 277

C452 279 450 280 449 280

L447 280

L446 282

L446 284

L444 284

C444 284 442 285 441 287

C440 289 438 290 438 290

C437 290 435 292 433 294

C431 295 429 297 429 297

L428 297

L428 299

L427 301

L426 301

C425 301 422 303 416 309

C415 310 414 311 413 311

C413 311 411 312 410 314

C403 320 395 328 393 328

L392 329

L392 330

C392 331 379 345 364 360

C359 365 352 372 350 375

C348 378 345 382 344 382

C343 383 342 384 342 384

C342 385 341 386 340 387

C336 391 332 397 329 400

C328 402 326 404 326 404

L325 404

L325 406

C324 407 322 409 321 411

C319 413 317 415 317 416

C317 416 316 417 315 418

C315 419 313 421 312 423

C311 425 309 428 308 429

C306 430 305 432 305 433

C305 433 304 434 303 435

C303 436 301 437 301 438

C300 442 298 444 296 445

C296 446 294 448 293 451

C292 453 291 455 290 455

L289 455

L287 460

L285 465

L284 465

L283 465

L281 470

C280 473 279 475 278 475

C278 475 276 477 275 480

C274 482 272 486 270 489

C268 493 267 496 267 497

C267 497 266 498 266 499

C264 500 261 506 261 508

C261 509 260 510 260 511

C259 511 258 513 257 516

C256 518 253 523 251 527

C250 530 248 534 248 535

C248 536 247 537 247 538

C246 539 245 541 244 543

C244 544 243 546 243 547

C242 547 242 548 242 549

C242 550 241 552 241 553

C239 554 237 561 236 567

L235 570

L234 570

L233 570

L232 575

C231 578 230 580 230 581

C229 581 229 582 229 584

C229 585 228 587 228 589

C226 593 224 600 223 606

C223 608 222 610 221 611

C221 612 220 615 220 618

C219 621 219 624 218 624

C217 625 217 627 217 629

C217 631 216 634 216 636

C215 637 214 642 213 647

C210 667 209 676 208 680

C206 686 206 768 208 777

C210 785 212 799 213 809

C214 813 215 817 215 818

C216 820 217 823 217 826

C218 834 220 842 222 844

C222 845 223 847 223 848

C223 850 224 853 224 855

C225 856 226 858 226 860

C226 861 227 862 227 863

C228 864 229 866 229 867

C231 873 233 880 235 880

C235 881 236 882 236 883

C236 885 236 886 237 886

C237 887 238 889 238 891

C239 893 240 895 241 895

L242 896

L242 899

L242 902

L243 902

L244 902

L244 905

C245 907 246 908 247 908

L248 909

L248 910

C248 911 249 914 251 917

C253 920 255 925 256 927

C257 930 259 932 260 933

C260 934 261 935 261 936

C261 937 262 939 264 941

C266 943 267 945 267 946

C268 947 270 950 272 952

C273 955 275 957 275 958

C275 958 276 960 277 962

C282 966 282 967 282 968

C282 969 285 972 289 977

C291 979 292 981 292 981

L293 983

L294 983

L295 983

L295 984

C295 984 296 986 297 987

C298 989 302 992 305 996

C308 999 315 1007 320 1012

C326 1018 330 1022 330 1023

L330 1024

L331 1024

C331 1024 333 1025 335 1027

C336 1029 339 1031 340 1031

L342 1032

L342 1033

L342 1035

L343 1035

C344 1035 346 1036 348 1038

C350 1040 353 1043 356 1045

C358 1046 360 1048 361 1049

C362 1050 364 1052 367 1053

C369 1055 371 1057 371 1057

L371 1058

L372 1058

C373 1058 375 1060 377 1062

C380 1063 382 1065 383 1065

C383 1065 385 1066 386 1067

C386 1068 388 1069 389 1069

L391 1069

L391 1070

C391 1071 403 1079 405 1079

L406 1079

L406 1080

C406 1081 414 1085 416 1085

C416 1085 417 1086 418 1087

C419 1088 421 1089 422 1089

C423 1089 424 1090 425 1091

C426 1091 427 1092 428 1092

C428 1092 429 1093 430 1093

C431 1094 432 1095 434 1095

C436 1096 437 1097 437 1098

L438 1099

L439 1099

C440 1099 444 1101 448 1103

C451 1104 455 1106 456 1106

C457 1106 459 1107 460 1108

C461 1109 463 1110 464 1110

C465 1110 466 1111 467 1112

C468 1112 469 1113 471 1113

C472 1113 473 1114 474 1114

C475 1115 477 1116 479 1116

C481 1117 483 1117 483 1118

C483 1119 491 1122 498 1123

C499 1123 501 1124 502 1125

C503 1125 505 1126 508 1127

C510 1127 512 1128 513 1129

C515 1129 516 1130 518 1130

C519 1130 520 1131 522 1131

C523 1132 525 1133 528 1133

C530 1133 533 1134 534 1135

C535 1135 537 1136 540 1137

C542 1137 545 1138 547 1139

C549 1139 552 1140 554 1140

C555 1140 557 1141 559 1141

C560 1142 564 1143 568 1144

C573 1144 576 1145 577 1146

C578 1146 580 1147 582 1147

C585 1147 589 1148 592 1148

C594 1149 599 1150 602 1150

C606 1150 609 1151 610 1151

C612 1153 617 1153 626 1154

C634 1154 641 1155 643 1156

C653 1160 778 1159 782 1155

C783 1154 786 1154 789 1154

L794 1154

L794 1274

L794 1395

L791 1396

C790 1396 788 1397 787 1397

C785 1397 779 1398 772 1398

C764 1399 756 1399 754 1400

C752 1400 733 1401 713 1402

C693 1403 676 1404 675 1404

C674 1405 670 1405 666 1405

L659 1405

L659 1404

Z

M869 1242

L869 1100

L896 1100

C914 1100 924 1100 925 1101

C926 1102 928 1104 929 1106

C930 1109 931 1118 931 1178

C932 1216 932 1251 933 1258

L934 1269

L943 1269

L952 1269

L952 1268

L952 1267

L954 1267

L956 1267

L956 1266

L956 1265

L958 1265

L960 1265

L960 1264

L960 1263

L963 1263

C965 1263 967 1263 968 1262

C970 1261 976 1259 979 1258

L981 1258

L981 1257

L981 1256

L983 1256

L985 1256

L985 1255

L985 1254

L988 1254

L991 1254

L991 1253

L991 1252

L993 1252

C994 1252 995 1252 996 1251

C996 1250 997 1250 998 1250

L1000 1250

L1000 1249

L1000 1248

L1002 1248

C1003 1248 1004 1248 1005 1247

C1005 1246 1006 1246 1007 1246

C1008 1246 1010 1245 1011 1244

C1014 1241 1017 1240 1019 1240

C1021 1240 1022 1239 1023 1238

C1024 1237 1027 1236 1029 1236

C1032 1235 1038 1232 1039 1230

L1039 1229

L1043 1229

L1047 1229

L1048 1227

L1048 1225

L1052 1225

C1056 1225 1060 1224 1062 1221

C1063 1220 1065 1219 1066 1219

C1068 1219 1069 1218 1070 1217

C1071 1216 1079 1212 1081 1212

C1081 1212 1082 1211 1083 1211

C1083 1210 1085 1209 1086 1209

L1089 1209

L1089 1206

L1089 1204

L1092 1204

C1094 1204 1095 1204 1096 1203

C1096 1202 1097 1202 1099 1202

L1102 1202

L1102 1200

L1102 1198

L1105 1198

C1108 1198 1112 1196 1114 1194

C1115 1193 1117 1192 1118 1192

L1120 1192

L1121 1190

L1121 1188

L1123 1188

C1124 1188 1126 1187 1126 1187

C1127 1186 1128 1185 1129 1185

C1129 1185 1131 1184 1132 1183

C1132 1182 1134 1181 1135 1181

L1137 1181

L1137 1179

L1137 1177

L1140 1177

L1143 1177

L1143 1176

L1143 1175

L1145 1175

C1146 1175 1147 1174 1148 1173

C1148 1172 1150 1171 1151 1171

C1152 1171 1157 1168 1158 1167

C1158 1166 1160 1166 1161 1165

L1164 1164

L1164 1163

L1164 1161

L1166 1161

C1167 1161 1170 1159 1172 1158

C1174 1156 1176 1154 1177 1154

C1177 1154 1179 1153 1181 1151

C1182 1149 1185 1148 1185 1148

C1186 1148 1188 1147 1188 1146

C1189 1145 1190 1144 1191 1144

C1191 1144 1193 1143 1194 1141

C1196 1139 1198 1138 1200 1138

L1202 1137

L1202 1135

L1202 1133

L1204 1133

C1205 1133 1208 1132 1210 1130

C1211 1129 1213 1127 1214 1127

L1216 1126

L1216 1125

L1216 1123

L1218 1123

C1220 1123 1227 1117 1227 1115

L1227 1114

L1228 1114

C1229 1114 1232 1111 1236 1108

C1239 1105 1243 1102 1244 1101

C1246 1100 1247 1098 1247 1097

L1247 1096

L1249 1096

C1249 1096 1253 1094 1256 1091

C1259 1087 1262 1085 1263 1085

L1264 1085

L1264 1083

C1264 1082 1265 1081 1267 1080

C1269 1079 1270 1078 1270 1077

L1270 1075

L1272 1075

C1273 1075 1275 1074 1276 1072

C1277 1070 1278 1069 1279 1069

C1279 1069 1281 1067 1282 1066

C1283 1063 1284 1062 1285 1062

L1287 1062

L1287 1060

C1287 1059 1289 1056 1291 1056

C1291 1056 1293 1054 1295 1052

C1296 1050 1298 1048 1299 1048

L1300 1048

L1300 1047

C1300 1047 1303 1043 1306 1040

C1309 1037 1312 1033 1312 1032

L1312 1031

L1314 1031

L1315 1031

L1316 1029

C1316 1028 1318 1026 1320 1024

C1323 1021 1325 1018 1326 1016

C1327 1014 1329 1012 1330 1012

L1331 1012

L1331 1010

L1331 1008

L1333 1008

L1335 1007

L1335 1006

L1335 1004

L1336 1004

L1337 1004

L1337 1002

L1337 1000

L1338 1000

C1340 1000 1343 997 1343 995

C1343 994 1345 991 1347 989

C1348 987 1350 985 1350 984

L1350 983

L1351 983

C1352 983 1354 981 1355 979

C1356 976 1358 973 1359 972

C1361 971 1362 969 1362 968

C1362 967 1363 966 1364 965

C1365 964 1366 962 1367 960

C1369 958 1370 956 1371 956

L1372 956

L1372 954

C1372 953 1373 951 1374 951

C1374 950 1375 948 1375 948

L1375 946

L1377 946

L1379 945

L1379 943

C1379 941 1379 940 1380 940

C1381 939 1381 938 1381 937

L1381 935

L1383 935

L1385 934

L1385 932

L1385 929

L1386 929

L1387 929

L1387 927

C1387 926 1388 924 1389 924

C1390 923 1391 922 1391 921

C1391 920 1391 919 1392 919

C1392 918 1393 917 1394 915

L1394 912

L1396 912

L1397 912

L1397 911

C1397 909 1402 899 1403 899

C1404 898 1404 897 1404 895

L1404 893

L1405 893

L1406 893

L1406 890

L1406 887

L1408 887

L1410 886

L1410 884

L1410 881

L1411 881

L1412 881

L1412 878

L1412 875

L1414 875

L1416 874

L1416 871

C1416 869 1417 867 1418 866

C1418 864 1419 862 1419 861

L1419 858

L1420 858

L1422 858

L1423 854

C1423 852 1424 850 1424 849

C1425 849 1425 847 1425 845

C1425 843 1426 842 1427 841

C1428 840 1429 839 1429 836

L1429 833

L1430 833

L1431 833

L1431 829

C1431 827 1432 825 1433 824

C1434 822 1435 820 1435 818

L1435 814

L1436 814

L1437 814

L1437 808

L1437 802

L1439 802

L1441 801

L1441 797

C1441 795 1442 791 1443 789

C1443 787 1444 784 1444 782

C1444 781 1445 778 1446 777

C1448 776 1449 769 1450 752

C1450 746 1451 743 1452 742

C1453 740 1454 737 1454 728

C1454 722 1455 716 1455 716

C1456 715 1456 699 1456 677

L1456 639

L1455 639

L1454 639

L1454 628

C1454 619 1454 617 1452 615

C1450 613 1450 611 1450 605

C1450 601 1450 598 1449 598

C1448 597 1448 594 1448 591

C1448 587 1448 585 1446 584

C1445 582 1444 580 1444 577

C1444 575 1443 571 1443 570

C1442 569 1441 566 1441 563

L1441 559

L1439 559

L1437 559

L1437 554

L1437 549

L1436 549

L1435 549

L1435 545

C1435 543 1434 541 1433 540

C1432 538 1431 536 1431 535

L1431 532

L1430 532

L1429 532

L1429 529

C1429 528 1428 526 1427 525

C1426 524 1425 522 1425 520

C1425 518 1425 516 1424 516

C1423 515 1423 514 1423 512

L1423 510

L1421 509

L1419 509

L1419 507

C1419 505 1418 503 1417 502

C1417 500 1416 498 1416 497

L1416 495

L1414 495

L1412 494

L1412 492

C1412 489 1409 484 1407 484

L1406 484

L1406 481

L1406 478

L1405 478

L1404 478

L1404 475

L1404 472

L1402 472

C1401 471 1399 468 1398 463

L1397 461

L1395 461

L1394 461

L1394 459

L1394 458

L1393 457

L1391 457

L1391 455

L1391 453

L1389 453

L1387 453

L1387 450

C1387 448 1386 446 1384 445

C1383 444 1381 441 1380 438

C1379 436 1377 434 1376 434

L1375 434

L1375 433

C1375 432 1373 429 1371 427

C1368 424 1366 422 1366 421

L1365 419

L1364 419

L1362 419

L1362 418

C1362 417 1361 415 1359 413

C1357 412 1356 410 1356 409

L1356 407

L1354 407

L1352 407

L1352 405

C1352 404 1351 403 1349 402

C1347 401 1346 400 1346 399

C1346 398 1340 392 1338 392

L1337 392

L1337 390

C1337 388 1335 386 1333 386

L1331 386

L1331 385

C1331 384 1329 381 1327 379

C1325 377 1322 374 1321 373

C1319 372 1318 371 1317 371

C1317 371 1315 370 1314 368

C1312 366 1310 365 1309 365

L1308 365

L1308 363

L1308 362

L1306 361

L1304 361

L1304 360

L1304 359

L1302 359

L1300 359

L1300 357

L1300 355

L1299 355

C1296 355 1291 352 1291 350

L1290 348

L1289 348

L1287 348

L1287 346

L1286 344

L1284 344

L1281 344

L1281 343

L1281 342

L1278 342

L1275 342

L1275 340

L1275 338

L1273 338

L1271 338

L1271 336

L1270 334

L1268 334

L1266 334

L1266 333

L1266 332

L1264 332

L1262 332

L1262 330

L1262 328

L1260 328

C1258 328 1257 327 1255 326

C1252 323 1248 321 1246 321

L1244 321

L1243 319

L1243 317

L1240 317

L1237 317

L1237 316

L1237 315

L1235 315

C1234 315 1233 314 1232 313

C1231 312 1229 311 1228 311

L1225 311

L1225 309

L1224 307

L1221 307

L1218 307

L1218 306

L1218 305

L1216 305

L1214 305

L1214 304

L1214 303

L1213 303

L1211 303

L1211 304

L1211 305

L1210 305

L1208 305

L1208 303

L1208 301

L1205 300

L1202 300

L1202 299

L1202 297

L1200 297

C1200 296 1198 296 1197 296

L1195 296

L1195 295

L1195 294

L1191 294

L1187 294

L1187 292

L1187 290

L1182 290

L1177 290

L1177 288

L1177 286

L1173 286

L1168 286

L1168 285

L1168 284

L1163 284

L1158 284

L1158 282

L1158 280

L1155 280

C1153 280 1149 279 1147 278

C1145 277 1143 276 1142 277

L1139 277

L1139 275

L1138 273

L1133 273

C1129 273 1127 273 1126 271

C1124 270 1122 269 1119 269

L1114 269

L1114 268

L1114 267

L1111 267

C1110 267 1108 266 1107 266

L1106 265

L1105 266

C1104 266 1103 267 1102 267

L1100 267

L1100 265

L1099 263

L1091 263

L1083 263

L1083 261

L1083 259

L1075 259

L1066 259

L1066 258

L1066 257

L1055 257

L1044 257

L1044 255

L1043 253

L1037 253

C1027 253 1011 251 1010 250

C1009 249 995 248 953 248

C902 248 896 248 895 250

C893 251 890 251 881 252

L869 252

L869 132

C869 40 869 12 870 11

C871 10 875 10 881 10

C887 10 891 10 892 9

C892 8 897 8 905 8

C913 8 918 8 919 7

C919 6 921 6 924 6

L929 6

L929 5

L929 4

L956 4

L983 4

L983 3

L983 2

L994 2

C1001 2 1006 2 1007 3

C1007 4 1011 4 1016 4

L1025 4

L1025 5

L1025 6

L1047 6

L1069 6

L1069 7

L1070 8

L1085 9

L1100 9

L1100 11

L1101 13

L1117 13

L1133 13

L1133 15

L1134 17

L1142 17

C1146 17 1150 17 1151 18

C1151 19 1155 19 1161 19

L1171 19

L1171 21

L1172 23

L1180 23

L1188 23

L1188 25

L1188 27

L1194 27

L1200 27

L1200 28

L1200 29

L1207 29

L1213 29

L1213 31

L1213 33

L1218 33

C1220 33 1223 34 1224 35

C1225 36 1227 36 1231 36

L1238 36

L1238 38

L1239 40

L1243 40

L1248 40

L1248 42

L1249 44

L1252 44

C1254 44 1256 44 1257 45

C1257 46 1259 46 1262 46

L1267 46

L1267 48

L1267 50

L1271 50

L1275 50

L1275 51

L1275 52

L1277 52

C1278 52 1279 52 1280 53

C1280 54 1282 54 1284 54

L1288 54

L1288 55

L1288 56

L1293 56

L1298 56

L1298 58

L1299 61

L1301 61

L1304 61

L1304 62

C1304 65 1308 67 1312 67

C1315 67 1317 68 1318 69

C1319 70 1320 71 1321 71

L1323 71

L1323 72

L1323 73

L1326 73

L1329 73

L1329 75

L1329 77

L1336 77

L1342 77

L1342 79

L1342 81

L1345 81

C1347 81 1350 83 1350 86

L1351 88

L1356 88

L1361 88

L1361 90

L1361 92

L1363 92

L1365 92

L1365 93

L1365 94

L1369 94

L1373 94

L1373 96

L1373 98

L1376 98

L1379 98

L1379 99

C1379 101 1385 104 1389 104

L1392 104

L1392 106

L1392 108

L1394 108

C1394 108 1396 109 1397 110

C1397 110 1399 111 1400 111

L1402 111

L1402 113

L1403 115

L1405 115

L1408 115

L1408 116

C1408 118 1412 121 1414 121

L1417 121

L1417 123

L1417 125

L1420 125

L1423 125

L1423 127

L1423 129

L1425 129

L1427 129

L1427 130

L1427 131

L1430 131

C1432 131 1433 132 1434 133

C1434 135 1436 136 1437 136

L1440 136

L1440 138

C1440 140 1442 142 1444 142

L1446 142

L1446 144

C1446 146 1448 148 1450 148

L1452 148

L1452 150

L1452 152

L1455 152

C1456 152 1459 153 1460 154

C1461 155 1462 156 1463 156

C1465 156 1467 159 1467 160

L1467 162

L1469 163

C1471 163 1472 164 1473 165

C1473 166 1474 167 1476 167

C1477 168 1478 169 1479 170

L1480 173

L1481 173

C1482 173 1485 175 1488 178

C1491 181 1494 183 1495 183

L1496 183

L1496 184

L1496 185

L1499 186

C1500 187 1501 188 1502 189

L1503 192

L1504 192

C1505 192 1506 194 1507 196

C1508 198 1510 200 1510 200

L1511 200

L1511 202

L1511 204

L1513 204

L1515 204

L1515 205

L1515 206

L1517 206

C1519 206 1521 208 1521 211

L1521 212

L1523 213

C1524 213 1525 214 1526 215

C1526 217 1527 218 1529 218

C1530 219 1531 221 1532 223

L1534 227

L1536 227

L1538 227

L1538 228

C1538 229 1538 230 1538 231

C1538 232 1538 233 1539 233

C1540 234 1540 235 1540 236

L1540 238

L1542 238

C1544 238 1546 240 1546 243

L1546 245

L1548 246

C1549 246 1550 248 1551 249

C1552 251 1554 254 1556 256

C1558 258 1559 260 1559 261

L1559 262

L1561 262

L1563 263

L1563 265

C1563 267 1564 269 1565 270

C1566 271 1567 272 1567 273

C1567 273 1568 275 1569 276

C1570 276 1571 278 1571 279

C1571 279 1572 281 1574 283

C1576 284 1577 287 1577 288

C1577 289 1578 291 1579 292

C1581 293 1582 295 1583 297

C1584 299 1585 300 1586 300

L1588 300

L1588 303

L1588 306

L1589 306

L1590 306

L1590 309

C1590 310 1591 312 1592 313

C1593 314 1594 315 1594 316

L1594 317

L1595 317

L1596 317

L1596 319

C1596 321 1597 323 1598 324

C1599 324 1600 326 1600 327

L1600 329

L1601 329

L1602 329

L1602 331

C1602 332 1603 334 1604 335

C1605 337 1607 340 1608 343

L1609 348

L1611 348

L1613 348

L1613 352

L1613 356

L1614 356

L1615 356

L1615 359

C1615 360 1616 362 1617 364

C1618 365 1619 367 1619 368

L1619 371

L1620 371

L1621 371

L1621 374

L1621 377

L1623 377

L1625 377

L1625 382

L1625 387

L1626 387

L1627 387

L1627 390

C1627 391 1628 393 1629 395

C1630 396 1631 398 1631 400

C1631 401 1631 403 1632 403

C1632 404 1633 406 1633 409

L1634 414

L1636 415

L1638 415

L1638 420

L1638 425

L1639 425

L1640 425

L1640 429

C1640 431 1641 433 1642 434

C1643 436 1644 438 1644 442

C1644 445 1644 447 1645 448

C1646 448 1646 450 1646 453

L1646 458

L1648 458

L1650 458

L1650 466

C1650 470 1650 474 1651 475

C1652 475 1652 478 1652 482

C1652 487 1652 489 1654 491

C1656 492 1656 494 1656 503

C1656 508 1656 514 1657 515

C1658 516 1658 524 1659 532

C1660 552 1660 552 1658 566

C1657 577 1657 582 1658 592

C1660 607 1660 606 1659 626

C1658 634 1658 642 1657 643

C1656 644 1656 650 1656 655

C1656 665 1656 666 1654 668

C1652 670 1652 672 1652 677

C1652 681 1652 684 1651 685

C1650 685 1650 689 1650 694

L1650 703

L1648 703

L1646 703

L1646 709

L1646 715

L1645 715

L1644 715

L1644 721

C1644 725 1644 727 1642 729

C1641 730 1640 732 1640 735

L1640 740

L1639 740

L1638 740

L1638 745

L1638 750

L1637 750

C1635 750 1633 753 1633 757

C1633 759 1633 761 1632 762

C1631 762 1631 764 1631 766

L1631 771

L1629 771

L1627 772

L1627 776

L1627 780

L1626 780

L1625 780

L1625 783

C1625 784 1624 786 1623 787

C1621 788 1621 790 1621 793

L1621 798

L1620 798

L1619 798

L1619 802

L1619 805

L1617 805

L1615 805

L1615 809

L1615 813

L1614 813

L1613 813

L1613 817

L1613 821

L1611 821

L1609 821

L1608 824

C1608 825 1607 827 1607 828

C1606 829 1606 831 1606 832

C1606 833 1605 835 1604 835

C1603 836 1602 838 1602 839

L1602 842

L1601 842

L1600 842

L1600 844

C1600 845 1599 847 1598 848

C1597 849 1596 851 1596 853

C1596 855 1595 857 1594 858

C1593 859 1592 860 1592 861

L1592 863

L1591 863

L1590 863

L1590 866

L1590 869

L1589 869

L1588 869

L1588 872

L1588 875

L1586 875

L1584 875

L1584 877

C1583 877 1583 879 1583 880

C1583 881 1582 883 1580 885

C1578 887 1577 888 1577 891

L1577 894

L1576 894

L1575 894

L1575 897

L1575 900

L1574 900

C1572 900 1569 904 1569 906

L1569 907

L1568 907

L1567 907

L1567 909

L1567 911

L1566 911

L1565 911

L1565 913

C1565 914 1564 915 1563 916

C1562 917 1561 918 1561 919

L1561 921

L1560 921

L1559 921

L1558 923

C1558 925 1557 927 1556 928

C1555 929 1554 930 1554 931

L1554 932

L1553 932

L1552 932

L1552 934

C1552 935 1551 937 1549 938

C1547 940 1546 942 1546 943

C1546 945 1545 947 1543 949

C1541 950 1540 952 1540 953

C1540 954 1539 955 1538 956

C1537 957 1536 958 1536 959

L1536 961

L1535 961

L1533 962

L1533 963

L1533 965

L1532 965

C1530 965 1527 970 1527 972

C1527 973 1526 974 1524 976

C1522 978 1521 979 1521 980

C1521 981 1520 982 1519 983

C1518 984 1517 985 1517 986

L1517 988

L1516 988

L1515 988

L1515 990

L1515 992

L1513 992

L1511 992

L1511 994

C1511 994 1509 997 1508 999

C1506 1001 1504 1003 1504 1004

L1504 1005

L1503 1005

L1502 1005

L1502 1007

L1502 1009

L1500 1009

L1498 1009

L1498 1011

C1498 1012 1496 1014 1494 1015

L1492 1016

L1492 1017

L1492 1019

L1491 1019

L1490 1019

L1490 1021

C1490 1022 1489 1024 1488 1025

C1487 1025 1486 1027 1486 1027

C1486 1029 1483 1031 1481 1032

L1479 1033

L1479 1034

C1479 1035 1477 1037 1475 1039

C1473 1041 1471 1044 1471 1045

L1471 1046

L1469 1046

L1467 1046

L1467 1048

L1467 1050

L1466 1050

L1465 1050

L1465 1052

L1465 1053

L1463 1053

L1461 1053

L1461 1055

L1461 1057

L1460 1057

L1458 1058

L1458 1059

C1458 1060 1457 1061 1456 1062

C1455 1062 1453 1064 1453 1065

C1452 1066 1451 1067 1450 1067

L1449 1067

L1448 1070

C1447 1071 1446 1072 1445 1073

L1442 1074

L1442 1076

C1442 1076 1440 1079 1438 1082

C1435 1084 1433 1086 1433 1087

C1433 1087 1432 1088 1431 1089

C1430 1089 1428 1091 1428 1092

C1427 1093 1426 1094 1425 1094

C1424 1094 1417 1101 1417 1103

L1417 1105

L1415 1105

C1415 1105 1413 1106 1411 1108

C1409 1110 1407 1111 1407 1111

L1405 1111

L1404 1113

C1403 1115 1398 1121 1396 1121

C1396 1121 1394 1123 1393 1125

C1392 1127 1391 1128 1390 1128

L1388 1128

L1388 1130

L1388 1132

L1386 1132

L1384 1132

L1384 1134

L1383 1136

L1382 1136

C1381 1136 1378 1138 1375 1141

C1372 1144 1370 1146 1369 1146

C1369 1146 1365 1149 1362 1152

C1358 1156 1355 1159 1354 1159

C1353 1159 1352 1160 1350 1162

C1348 1164 1346 1165 1346 1165

L1344 1165

L1344 1167

L1344 1169

L1341 1169

L1339 1169

L1338 1171

C1337 1173 1336 1174 1333 1176

C1332 1177 1331 1178 1331 1179

L1331 1180

L1328 1180

C1326 1180 1323 1182 1323 1184

L1323 1186

L1320 1186

L1317 1186

L1317 1188

L1317 1190

L1315 1190

C1315 1190 1313 1191 1311 1193

C1309 1195 1308 1196 1307 1196

C1306 1196 1304 1197 1298 1202

C1298 1203 1296 1203 1296 1203

L1294 1203

L1294 1205

L1294 1207

L1292 1207

C1292 1207 1290 1208 1288 1210

C1286 1212 1284 1213 1284 1213

C1283 1213 1281 1214 1281 1215

C1280 1216 1278 1217 1277 1217

L1275 1217

L1275 1219

L1275 1221

L1273 1221

C1270 1221 1265 1224 1265 1226

L1265 1227

L1264 1227

C1263 1227 1262 1228 1261 1229

C1260 1229 1259 1230 1257 1230

L1255 1230

L1254 1232

L1254 1234

L1252 1234

L1250 1234

L1250 1236

L1250 1238

L1247 1238

L1244 1238

L1244 1239

L1244 1240

L1241 1240

L1238 1240

L1238 1242

L1238 1244

L1236 1244

C1234 1244 1232 1245 1230 1247

C1228 1249 1226 1250 1226 1250

C1225 1250 1223 1251 1222 1253

C1221 1254 1220 1255 1219 1255

L1217 1255

L1217 1256

L1217 1257

L1215 1257

C1214 1257 1213 1258 1212 1259

C1211 1260 1209 1261 1208 1261

L1205 1261

L1204 1263

L1204 1265

L1201 1265

L1198 1265

L1198 1266

L1198 1267

L1196 1267

C1195 1267 1194 1268 1193 1269

C1192 1270 1190 1271 1189 1271

L1187 1271

L1186 1273

L1186 1275

L1183 1275

C1182 1275 1180 1276 1180 1277

C1179 1277 1178 1278 1177 1278

C1176 1278 1175 1279 1174 1280

C1173 1281 1171 1282 1170 1282

L1167 1282

L1167 1283

L1167 1284

L1165 1284

L1163 1284

L1163 1285

L1163 1286

L1161 1286

L1159 1286

L1159 1287

L1159 1288

L1157 1288

C1156 1288 1154 1289 1154 1290

C1153 1291 1151 1292 1149 1292

L1147 1292

L1146 1293

L1146 1295

L1145 1294

C1144 1294 1142 1295 1141 1296

C1140 1297 1138 1298 1137 1298

L1134 1298

L1134 1300

C1133 1301 1132 1302 1129 1303

L1125 1303

L1125 1304

L1125 1305

L1122 1305

L1119 1305

L1119 1307

L1119 1309

L1115 1309

C1113 1309 1111 1310 1110 1311

C1109 1312 1107 1313 1105 1313

C1104 1313 1103 1313 1103 1314

C1102 1315 1101 1315 1099 1315

L1097 1315

L1096 1317

L1096 1319

L1092 1319

L1088 1319

L1088 1321

L1088 1323

L1084 1323

C1082 1323 1079 1324 1076 1325

L1071 1326

L1071 1328

L1071 1330

L1067 1330

L1063 1330

L1063 1332

L1063 1334

L1062 1334

L1060 1334

L1060 1333

L1059 1332

L1055 1334

C1053 1335 1049 1336 1047 1336

L1044 1336

L1044 1338

L1044 1340

L1039 1340

C1036 1340 1034 1340 1034 1341

C1033 1342 1031 1342 1030 1342

C1028 1342 1025 1343 1024 1344

C1023 1345 1021 1346 1018 1346

L1013 1346

L1013 1348

L1013 1350

L1007 1350

L1001 1351

L1000 1352

L1000 1353

L995 1353

L990 1353

L990 1355

L990 1357

L984 1357

L978 1357

L977 1359

L977 1361

L976 1361

C976 1361 975 1360 974 1360

L973 1359

L972 1360

C971 1360 970 1361 969 1361

L967 1361

L967 1362

L967 1363

L962 1363

C959 1363 957 1364 956 1365

C954 1366 952 1367 948 1367

L943 1367

L942 1369

L941 1372

L941 1370

L941 1369

L938 1369

C936 1369 935 1369 935 1370

C934 1371 933 1371 931 1371

C929 1371 928 1371 928 1372

C927 1373 925 1373 922 1373

C919 1373 917 1374 916 1375

C915 1376 912 1377 907 1377

C902 1378 898 1379 898 1379

L898 1380

L891 1380

C886 1380 884 1380 883 1382

C882 1384 880 1384 875 1384

L869 1384

L869 1242

Z

M491 1045

L492 1017

L622 1016

L752 1016

L752 937

L752 858

L536 857

L320 857

L320 829

L320 802

L831 802

L1342 802

L1342 829

L1342 857

L1126 857

L910 858

L909 937

L909 1016

L1039 1016

L1169 1016

L1169 1045

L1169 1074

L830 1074

L491 1074

L491 1045

Z

M945 754

C943 752 941 750 941 749

L940 747

L939 747

C936 747 935 742 935 731

L935 721

L938 720

C940 720 942 718 943 717

C943 715 945 714 946 714

L947 714

L947 713

C947 712 949 710 952 707

C961 698 966 692 966 691

C966 690 967 688 969 687

C971 685 972 682 973 681

C973 679 974 678 974 677

C975 677 975 675 975 674

L975 670

L977 670

L978 669

L978 639

L978 608

L977 608

C976 608 975 607 974 606

C974 605 972 605 970 605

C968 604 966 604 965 603

C965 603 960 602 953 602

C942 601 942 601 938 597

C935 594 935 593 935 584

C935 574 936 570 940 565

C942 564 943 562 943 561

L943 560

L973 560

L1003 560

L1003 562

L1004 564

L1006 564

L1009 564

L1009 565

C1009 566 1010 567 1012 569

C1014 570 1015 573 1015 574

C1016 576 1017 578 1018 578

L1019 579

L1019 624

C1019 654 1019 670 1020 671

C1021 671 1021 672 1021 673

C1021 676 1024 681 1026 681

C1027 681 1028 682 1029 683

C1030 684 1031 685 1032 685

L1034 685

L1034 686

L1034 687

L1036 687

L1038 687

L1038 689

L1038 691

L1042 691

C1044 691 1046 692 1048 693

C1050 696 1055 698 1058 698

C1060 698 1061 698 1062 699

C1062 700 1065 700 1069 700

L1076 700

L1076 701

L1076 702

L1083 702

C1087 702 1090 702 1091 703

C1091 704 1120 704 1174 704

C1241 704 1258 704 1259 705

C1260 706 1262 707 1264 708

C1267 708 1269 709 1270 711

C1270 712 1271 714 1272 714

C1273 715 1274 718 1274 725

C1274 733 1274 735 1272 736

C1271 738 1270 740 1270 741

C1269 744 1268 745 1266 745

C1264 745 1262 746 1262 746

C1260 747 1115 747 1102 746

C1095 745 1085 745 1078 745

L1066 745

L1066 743

L1066 741

L1060 741

C1055 740 1053 739 1053 738

L1052 737

L1050 737

C1048 737 1046 736 1044 736

C1042 735 1039 734 1038 734

L1035 734

L1035 732

L1034 730

L1031 730

C1029 730 1027 729 1026 728

C1025 727 1023 726 1022 726

L1020 726

L1020 725

L1020 724

L1017 724

L1014 724

L1014 722

L1014 721

L1012 720

C1010 719 1005 716 1003 714

C1003 713 1001 713 999 713

L997 714

L996 717

L996 720

L995 720

C994 720 993 721 992 722

C990 727 983 736 982 736

L981 736

L980 738

C978 743 969 751 963 754

C962 754 961 755 961 756

C960 757 957 757 954 757

C949 757 948 757 945 754

Z

M394 736

C392 735 391 733 391 732

C391 731 390 729 389 727

C383 718 391 698 402 697

C404 696 412 696 421 696

C433 696 436 696 438 694

C440 693 440 693 440 598

C441 504 441 504 444 501

C445 500 447 498 448 497

C449 496 452 496 462 496

C472 496 474 496 476 498

C478 499 479 500 479 500

C480 500 481 501 482 502

C484 504 484 508 484 599

C484 693 484 693 487 694

C489 696 495 696 518 696

C546 696 546 696 547 694

C549 691 549 681 549 583

C549 524 549 474 548 472

L548 468

L480 468

C443 468 411 467 410 467

C406 466 400 461 400 459

C400 458 399 457 398 456

C397 454 397 451 397 444

C397 436 397 433 398 431

C399 430 400 428 400 427

L400 425

L401 425

C402 425 404 424 405 423

C406 421 408 421 559 421

C712 421 712 421 715 423

C717 425 719 426 719 427

C719 428 720 430 721 431

C724 434 724 448 721 455

C718 462 717 464 716 464

C715 464 714 465 713 466

C712 467 707 468 656 468

L600 468

L599 471

C598 472 598 488 598 507

C598 539 598 542 600 544

C602 546 602 546 651 546

C685 546 701 547 703 548

C705 548 707 551 709 554

C713 559 713 560 713 567

C713 575 710 582 705 587

C702 591 702 591 652 591

C602 591 602 591 600 594

C598 597 598 598 598 644

C598 692 598 692 600 694

C603 696 603 696 660 696

C718 697 718 697 721 700

C726 705 726 709 726 723

C725 732 725 733 722 736

C720 740 720 740 559 740

C398 740 398 740 394 736

Z

M1059 691

C1058 689 1052 686 1049 686

L1047 686

L1047 684

L1047 682

L1045 682

L1043 682

L1043 680

C1043 679 1042 678 1041 677

C1040 676 1039 675 1039 674

C1039 673 1038 672 1037 671

C1035 670 1035 668 1035 595

C1035 521 1035 519 1037 517

C1038 515 1039 513 1039 512

L1039 510

L1040 510

L1041 510

L1041 508

L1042 506

L1044 506

C1045 506 1046 505 1047 505

C1048 504 1050 503 1052 503

C1054 503 1056 502 1057 501

C1059 500 1064 500 1084 500

C1108 500 1108 500 1111 497

C1113 495 1114 493 1114 491

L1114 489

L1076 488

C1044 488 1038 488 1038 486

C1037 486 1036 485 1036 485

C1033 485 1030 481 1028 476

C1026 471 1025 458 1027 455

C1030 452 1035 447 1037 447

C1039 446 1047 446 1057 446

C1072 446 1075 446 1076 444

L1077 443

L1075 440

C1074 439 1071 436 1069 434

C1067 433 1066 431 1066 430

C1066 429 1066 428 1065 428

C1064 427 1064 425 1064 423

C1064 421 1064 419 1065 419

C1066 418 1066 417 1066 415

C1066 414 1067 412 1069 410

C1071 408 1072 406 1072 405

C1072 404 1079 401 1083 401

C1087 401 1093 403 1094 405

C1094 405 1099 411 1105 417

C1111 423 1116 429 1116 429

L1116 430

L1117 430

C1118 430 1122 437 1122 439

L1122 440

L1124 440

C1124 441 1125 442 1126 444

L1127 446

L1142 446

C1158 446 1158 446 1159 442

C1160 440 1161 439 1162 439

L1164 439

L1164 438

C1164 436 1168 432 1172 429

C1175 427 1183 417 1183 415

C1183 415 1184 414 1184 413

C1185 413 1186 411 1188 408

C1189 406 1190 404 1191 403

L1193 403

L1193 402

L1193 401

L1198 401

C1201 401 1206 402 1208 403

L1213 404

L1213 406

C1213 406 1214 408 1216 409

C1218 411 1219 412 1219 415

L1219 418

L1221 418

L1223 418

L1223 422

C1223 424 1222 426 1220 428

C1218 430 1217 432 1217 433

C1217 433 1216 435 1215 435

C1214 436 1213 437 1213 438

L1213 440

L1212 440

L1210 441

L1210 443

L1210 445

L1212 445

C1212 446 1224 446 1237 446

C1252 446 1261 446 1263 447

C1266 449 1270 452 1270 454

L1270 455

L1272 455

L1273 456

L1273 467

C1273 475 1272 477 1271 478

C1270 479 1269 480 1269 481

C1269 481 1267 483 1266 484

C1264 485 1262 487 1262 487

L1262 488

L1211 488

C1160 488 1160 488 1158 491

C1158 493 1157 496 1157 497

L1158 500

L1193 500

C1219 500 1228 501 1229 502

C1230 502 1232 503 1234 503

C1235 503 1237 504 1238 505

C1239 505 1240 506 1242 506

L1244 506

L1244 508

C1244 508 1245 510 1246 512

C1250 518 1250 519 1250 597

C1250 676 1250 680 1246 682

C1245 683 1244 684 1244 685

C1244 685 1242 687 1240 688

C1238 689 1236 690 1235 691

C1233 692 1222 693 1147 693

C1063 693 1060 693 1059 691

Z

M1206 647

L1206 639

L1141 639

L1077 639

L1076 647

L1076 656

L1141 656

L1206 656

L1206 647

Z

M1206 598

L1206 591

L1204 591

C1203 590 1173 590 1139 590

L1077 591

L1076 598

L1076 606

L1141 606

L1206 606

L1206 598

Z

M1206 549

L1206 543

L1204 543

C1203 542 1174 542 1140 542

L1079 543

L1078 549

L1078 556

L1142 556

L1206 556

L1206 549

Z

M991 545

C991 543 982 536 980 536

L978 536

L978 535

C978 534 977 533 975 533

C974 532 972 531 972 531

C970 529 965 526 964 526

C963 526 962 525 961 524

C960 524 958 522 957 521

C952 519 941 509 941 506

C939 501 941 494 944 491

C946 489 948 486 949 485

C950 484 951 483 952 483

L953 483

L954 481

C954 479 959 476 963 476

C964 476 966 477 967 478

C969 478 970 479 972 479

L974 479

L974 480

L974 482

L976 483

C979 483 979 484 983 487

C985 489 987 490 987 490

C988 490 990 491 991 493

C992 495 994 496 995 496

C996 496 997 497 998 498

C998 499 1000 500 1000 500

C1001 500 1003 501 1004 503

C1006 505 1008 506 1008 506

L1009 506

L1009 507

C1009 508 1010 509 1011 510

C1015 513 1017 518 1017 523

C1017 528 1014 536 1012 536

C1011 536 1009 538 1006 541

C1001 546 1000 546 996 546

L991 546

L991 545

Z

M998 477

C998 475 991 471 983 466

C981 465 978 463 977 462

C977 462 975 461 975 461

L973 461

L973 459

L972 457

L971 457

C969 457 962 453 959 450

C958 449 955 446 952 444

C949 441 947 439 947 438

L947 436

L946 436

L944 436

L944 433

C944 432 945 428 946 426

C948 420 960 409 964 407

C968 406 975 408 980 411

C982 413 984 414 985 414

C985 414 986 415 987 416

C988 416 989 418 991 418

C992 419 993 420 993 421

C993 423 995 424 996 424

C998 425 1001 427 1002 428

C1003 429 1006 431 1007 431

L1009 432

L1009 433

C1009 434 1010 435 1011 436

C1012 436 1014 437 1014 438

C1015 439 1017 442 1018 443

C1021 446 1022 450 1022 459

C1022 464 1022 464 1017 469

C1015 471 1011 474 1010 475

C1008 475 1007 476 1007 477

L1007 478

L1003 478

L999 478

L998 477

Z

"/>

<path fill="#027ac9" stroke="none" d="
M663 1404

C665 1404 669 1404 671 1404

L675 1405

L667 1405

L659 1405

L663 1404

Z

M869 1242

L869 1100

L896 1100

C914 1100 924 1100 925 1101

C926 1102 928 1104 929 1106

C930 1109 931 1118 931 1178

C932 1216 932 1251 933 1258

L934 1269

L943 1269

L952 1269

L952 1268

L952 1267

L954 1267

L956 1267

L956 1266

L956 1265

L958 1265

L960 1265

L960 1264

L960 1263

L963 1263

C965 1263 967 1263 968 1262

C970 1261 976 1259 979 1258

L981 1258

L981 1257

L981 1256

L983 1256

L985 1256

L985 1255

L985 1254

L988 1254

L991 1254

L991 1253

L991 1252

L993 1252

C994 1252 995 1252 996 1251

C996 1250 997 1250 998 1250

L1000 1250

L1000 1249

L1000 1248

L1002 1248

C1003 1248 1004 1248 1005 1247

C1005 1246 1006 1246 1007 1246

C1008 1246 1010 1245 1011 1244

C1014 1241 1017 1240 1019 1240

C1021 1240 1022 1239 1023 1238

C1024 1237 1027 1236 1029 1236

C1032 1235 1038 1232 1039 1230

L1039 1229

L1043 1229

L1047 1229

L1048 1227

L1048 1225

L1052 1225

C1056 1225 1060 1224 1062 1221

C1063 1220 1065 1219 1066 1219

C1068 1219 1069 1218 1070 1217

C1071 1216 1079 1212 1081 1212

C1081 1212 1082 1211 1083 1211

C1083 1210 1085 1209 1086 1209

L1089 1209

L1089 1206

L1089 1204

L1092 1204

C1094 1204 1095 1204 1096 1203

C1096 1202 1097 1202 1099 1202

L1102 1202

L1102 1200

L1102 1198

L1105 1198

C1108 1198 1112 1196 1114 1194

C1115 1193 1117 1192 1118 1192

L1120 1192

L1121 1190

L1121 1188

L1123 1188

C1124 1188 1126 1187 1126 1187

C1127 1186 1128 1185 1129 1185

C1129 1185 1131 1184 1132 1183

C1132 1182 1134 1181 1135 1181

L1137 1181

L1137 1179

L1137 1177

L1140 1177

L1143 1177

L1143 1176

L1143 1175

L1145 1175

C1146 1175 1147 1174 1148 1173

C1148 1172 1150 1171 1151 1171

C1152 1171 1157 1168 1158 1167

C1158 1166 1160 1166 1161 1165

L1164 1164

L1164 1163

L1164 1161

L1166 1161

C1167 1161 1170 1159 1172 1158

C1174 1156 1176 1154 1177 1154

C1177 1154 1179 1153 1181 1151

C1182 1149 1185 1148 1185 1148

C1186 1148 1188 1147 1188 1146

C1189 1145 1190 1144 1191 1144

C1191 1144 1193 1143 1194 1141

C1196 1139 1198 1138 1200 1138

L1202 1137

L1202 1135

L1202 1133

L1204 1133

C1205 1133 1208 1132 1210 1130

C1211 1129 1213 1127 1214 1127

L1216 1126

L1216 1125

L1216 1123

L1218 1123

C1220 1123 1227 1117 1227 1115

L1227 1114

L1228 1114

C1229 1114 1232 1111 1236 1108

C1239 1105 1243 1102 1244 1101

C1246 1100 1247 1098 1247 1097

L1247 1096

L1249 1096

C1249 1096 1253 1094 1256 1091

C1259 1087 1262 1085 1263 1085

L1264 1085

L1264 1083

C1264 1082 1265 1081 1267 1080

C1269 1079 1270 1078 1270 1077

L1270 1075

L1272 1075

C1273 1075 1275 1074 1276 1072

C1277 1070 1278 1069 1279 1069

C1279 1069 1281 1067 1282 1066

C1283 1063 1284 1062 1285 1062

L1287 1062

L1287 1060

C1287 1059 1289 1056 1291 1056

C1291 1056 1293 1054 1295 1052

C1296 1050 1298 1048 1299 1048

L1300 1048

L1300 1047

C1300 1047 1303 1043 1306 1040

C1309 1037 1312 1033 1312 1032

L1312 1031

L1314 1031

L1315 1031

L1316 1029

C1316 1028 1318 1026 1320 1024

C1323 1021 1325 1018 1326 1016

C1327 1014 1329 1012 1330 1012

L1331 1012

L1331 1010

L1331 1008

L1333 1008

L1335 1007

L1335 1006

L1335 1004

L1336 1004

L1337 1004

L1337 1002

L1337 1000

L1338 1000

C1340 1000 1343 997 1343 995

C1343 994 1345 991 1347 989

C1348 987 1350 985 1350 984

L1350 983

L1351 983

C1352 983 1354 981 1355 979

C1356 976 1358 973 1359 972

C1361 971 1362 969 1362 968

C1362 967 1363 966 1364 965

C1365 964 1366 962 1367 960

C1369 958 1370 956 1371 956

L1372 956

L1372 954

C1372 953 1373 951 1374 951

C1374 950 1375 948 1375 948

L1375 946

L1377 946

L1379 945

L1379 943

C1379 941 1379 940 1380 940

C1381 939 1381 938 1381 937

L1381 935

L1383 935

L1385 934

L1385 932

L1385 929

L1386 929

L1387 929

L1387 927

C1387 926 1388 924 1389 924

C1390 923 1391 922 1391 921

C1391 920 1391 919 1392 919

C1392 918 1393 917 1394 915

L1394 912

L1396 912

L1397 912

L1397 911

C1397 909 1402 899 1403 899

C1404 898 1404 897 1404 895

L1404 893

L1405 893

L1406 893

L1406 890

L1406 887

L1408 887

L1410 886

L1410 884

L1410 881

L1411 881

L1412 881

L1412 878

L1412 875

L1414 875

L1416 874

L1416 871

C1416 869 1417 867 1418 866

C1418 864 1419 862 1419 861

L1419 858

L1420 858

L1422 858

L1423 854

C1423 852 1424 850 1424 849

C1425 849 1425 847 1425 845

C1425 843 1426 842 1427 841

C1428 840 1429 839 1429 836

L1429 833

L1430 833

L1431 833

L1431 829

C1431 827 1432 825 1433 824

C1434 822 1435 820 1435 818

L1435 814

L1436 814

L1437 814

L1437 808

L1437 802

L1439 802

L1441 801

L1441 797

C1441 795 1442 791 1443 789

C1443 787 1444 784 1444 782

C1444 781 1445 778 1446 777

C1448 776 1449 769 1450 752

C1450 746 1451 743 1452 742

C1453 740 1454 737 1454 728

C1454 722 1455 716 1455 716

C1456 715 1456 699 1456 677

L1456 639

L1455 639

L1454 639

L1454 628

C1454 619 1454 617 1452 615

C1450 613 1450 611 1450 605

C1450 601 1450 598 1449 598

C1448 597 1448 594 1448 591

C1448 587 1448 585 1446 584

C1445 582 1444 580 1444 577

C1444 575 1443 571 1443 570

C1442 569 1441 566 1441 563

L1441 559

L1439 559

L1437 559

L1437 554

L1437 549

L1436 549

L1435 549

L1435 545

C1435 543 1434 541 1433 540

C1432 538 1431 536 1431 535

L1431 532

L1430 532

L1429 532

L1429 529

C1429 528 1428 526 1427 525

C1426 524 1425 522 1425 520

C1425 518 1425 516 1424 516

C1423 515 1423 514 1423 512

L1423 510

L1421 509

L1419 509

L1419 507

C1419 505 1418 503 1417 502

C1417 500 1416 498 1416 497

L1416 495

L1414 495

L1412 494

L1412 492

C1412 489 1409 484 1407 484

L1406 484

L1406 481

L1406 478

L1405 478

L1404 478

L1404 475

L1404 472

L1402 472

C1401 471 1399 468 1398 463

L1397 461

L1395 461

L1394 461

L1394 459

L1394 458

L1393 457

L1391 457

L1391 455

L1391 453

L1389 453

L1387 453

L1387 450

C1387 448 1386 446 1384 445

C1383 444 1381 441 1380 438

C1379 436 1377 434 1376 434

L1375 434

L1375 433

C1375 432 1373 429 1371 427

C1368 424 1366 422 1366 421

L1365 419

L1364 419

L1362 419

L1362 418

C1362 417 1361 415 1359 413

C1357 412 1356 410 1356 409

L1356 407

L1354 407

L1352 407

L1352 405

C1352 404 1351 403 1349 402

C1347 401 1346 400 1346 399

C1346 398 1340 392 1338 392

L1337 392

L1337 390

C1337 388 1335 386 1333 386

L1331 386

L1331 385

C1331 384 1329 381 1327 379

C1325 377 1322 374 1321 373

C1319 372 1318 371 1317 371

C1317 371 1315 370 1314 368

C1312 366 1310 365 1309 365

L1308 365

L1308 363

L1308 362

L1306 361

L1304 361

L1304 360

L1304 359

L1302 359

L1300 359

L1300 357

L1300 355

L1299 355

C1296 355 1291 352 1291 350

L1290 348

L1289 348

L1287 348

L1287 346

L1286 344

L1284 344

L1281 344

L1281 343

L1281 342

L1278 342

L1275 342

L1275 340

L1275 338

L1273 338

L1271 338

L1271 336

L1270 334

L1268 334

L1266 334

L1266 333

L1266 332

L1264 332

L1262 332

L1262 330

L1262 328

L1260 328

C1258 328 1257 327 1255 326

C1252 323 1248 321 1246 321

L1244 321

L1243 319

L1243 317

L1240 317

L1237 317

L1237 316

L1237 315

L1235 315

C1234 315 1233 314 1232 313

C1231 312 1229 311 1228 311

L1225 311

L1225 309

L1224 307

L1221 307

L1218 307

L1218 306

L1218 305

L1216 305

L1214 305

L1214 304

L1214 303

L1213 303

L1211 303

L1211 304

L1211 305

L1210 305

L1208 305

L1208 303

L1208 301

L1205 300

L1202 300

L1202 299

L1202 297

L1200 297

C1200 296 1198 296 1197 296

L1195 296

L1195 295

L1195 294

L1191 294

L1187 294

L1187 292

L1187 290

L1182 290

L1177 290

L1177 288

L1177 286

L1173 286

L1168 286

L1168 285

L1168 284

L1163 284

L1158 284

L1158 282

L1158 280

L1155 280

C1153 280 1149 279 1147 278

C1145 277 1143 276 1142 277

L1139 277

L1139 275

L1138 273

L1133 273

C1129 273 1127 273 1126 271

C1124 270 1122 269 1119 269

L1114 269

L1114 268

L1114 267

L1111 267

C1110 267 1108 266 1107 266

L1106 265

L1105 266

C1104 266 1103 267 1102 267

L1100 267

L1100 265

L1099 263

L1091 263

L1083 263

L1083 261

L1083 259

L1075 259

L1066 259

L1066 258

L1066 257

L1055 257

L1044 257

L1044 255

L1043 253

L1037 253

C1027 253 1011 251 1010 250

C1009 249 995 248 953 248

C902 248 896 248 895 250

C893 251 890 251 881 252

L869 252

L869 132

C869 40 869 12 870 11

C871 10 875 10 881 10

C887 10 891 10 892 9

C892 8 897 8 905 8

C913 8 918 8 919 7

C919 6 921 6 924 6

L929 6

L929 5

L929 4

L956 4

L983 4

L983 3

L983 2

L994 2

C1001 2 1006 2 1007 3

C1007 4 1011 4 1016 4

L1025 4

L1025 5

L1025 6

L1047 6

L1069 6

L1069 7

L1070 8

L1085 9

L1100 9

L1100 11

L1101 13

L1117 13

L1133 13

L1133 15

L1134 17

L1142 17

C1146 17 1150 17 1151 18

C1151 19 1155 19 1161 19

L1171 19

L1171 21

L1172 23

L1180 23

L1188 23

L1188 25

L1188 27

L1194 27

L1200 27

L1200 28

L1200 29

L1207 29

L1213 29

L1213 31

L1213 33

L1218 33

C1220 33 1223 34 1224 35

C1225 36 1227 36 1231 36

L1238 36

L1238 38

L1239 40

L1243 40

L1248 40

L1248 42

L1249 44

L1252 44

C1254 44 1256 44 1257 45

C1257 46 1259 46 1262 46

L1267 46

L1267 48

L1267 50

L1271 50

L1275 50

L1275 51

L1275 52

L1277 52

C1278 52 1279 52 1280 53

C1280 54 1282 54 1284 54

L1288 54

L1288 55

L1288 56

L1293 56

L1298 56

L1298 58

L1299 61

L1301 61

L1304 61

L1304 62

C1304 65 1308 67 1312 67

C1315 67 1317 68 1318 69

C1319 70 1320 71 1321 71

L1323 71

L1323 72

L1323 73

L1326 73

L1329 73

L1329 75

L1329 77

L1336 77

L1342 77

L1342 79

L1342 81

L1345 81

C1347 81 1350 83 1350 86

L1351 88

L1356 88

L1361 88

L1361 90

L1361 92

L1363 92

L1365 92

L1365 93

L1365 94

L1369 94

L1373 94

L1373 96

L1373 98

L1376 98

L1379 98

L1379 99

C1379 101 1385 104 1389 104

L1392 104

L1392 106

L1392 108

L1394 108

C1394 108 1396 109 1397 110

C1397 110 1399 111 1400 111

L1402 111

L1402 113

L1403 115

L1405 115

L1408 115

L1408 116

C1408 118 1412 121 1414 121

L1417 121

L1417 123

L1417 125

L1420 125

L1423 125

L1423 127

L1423 129

L1425 129

L1427 129

L1427 130

L1427 131

L1430 131

C1432 131 1433 132 1434 133

C1434 135 1436 136 1437 136

L1440 136

L1440 138

C1440 140 1442 142 1444 142

L1446 142

L1446 144

C1446 146 1448 148 1450 148

L1452 148

L1452 150

L1452 152

L1455 152

C1456 152 1459 153 1460 154

C1461 155 1462 156 1463 156

C1465 156 1467 159 1467 160

L1467 162

L1469 163

C1471 163 1472 164 1473 165

C1473 166 1474 167 1476 167

C1477 168 1478 169 1479 170

L1480 173

L1481 173

C1482 173 1485 175 1488 178

C1491 181 1494 183 1495 183

L1496 183

L1496 184

L1496 185

L1499 186

C1500 187 1501 188 1502 189

L1503 192

L1504 192

C1505 192 1506 194 1507 196

C1508 198 1510 200 1510 200

L1511 200

L1511 202

L1511 204

L1513 204

L1515 204

L1515 205

L1515 206

L1517 206

C1519 206 1521 208 1521 211

L1521 212

L1523 213

C1524 213 1525 214 1526 215

C1526 217 1527 218 1529 218

C1530 219 1531 221 1532 223

L1534 227

L1536 227

L1538 227

L1538 228

C1538 229 1538 230 1538 231

C1538 232 1538 233 1539 233

C1540 234 1540 235 1540 236

L1540 238

L1542 238

C1544 238 1546 240 1546 243

L1546 245

L1548 246

C1549 246 1550 248 1551 249

C1552 251 1554 254 1556 256

C1558 258 1559 260 1559 261

L1559 262

L1561 262

L1563 263

L1563 265

C1563 267 1564 269 1565 270

C1566 271 1567 272 1567 273

C1567 273 1568 275 1569 276

C1570 276 1571 278 1571 279

C1571 279 1572 281 1574 283

C1576 284 1577 287 1577 288

C1577 289 1578 291 1579 292

C1581 293 1582 295 1583 297

C1584 299 1585 300 1586 300

L1588 300

L1588 303

L1588 306

L1589 306

L1590 306

L1590 309

C1590 310 1591 312 1592 313

C1593 314 1594 315 1594 316

L1594 317

L1595 317

L1596 317

L1596 319

C1596 321 1597 323 1598 324

C1599 324 1600 326 1600 327

L1600 329

L1601 329

L1602 329

L1602 331

C1602 332 1603 334 1604 335

C1605 337 1607 340 1608 343

L1609 348

L1611 348

L1613 348

L1613 352

L1613 356

L1614 356

L1615 356

L1615 359

C1615 360 1616 362 1617 364

C1618 365 1619 367 1619 368

L1619 371

L1620 371

L1621 371

L1621 374

L1621 377

L1623 377

L1625 377

L1625 382

L1625 387

L1626 387

L1627 387

L1627 390

C1627 391 1628 393 1629 395

C1630 396 1631 398 1631 400

C1631 401 1631 403 1632 403

C1632 404 1633 406 1633 409

L1634 414

L1636 415

L1638 415

L1638 420

L1638 425

L1639 425

L1640 425

L1640 429

C1640 431 1641 433 1642 434

C1643 436 1644 438 1644 442

C1644 445 1644 447 1645 448

C1646 448 1646 450 1646 453

L1646 458

L1648 458

L1650 458

L1650 466

C1650 470 1650 474 1651 475

C1652 475 1652 478 1652 482

C1652 487 1652 489 1654 491

C1656 492 1656 494 1656 503

C1656 508 1656 514 1657 515

C1658 516 1658 524 1659 532

C1660 552 1660 552 1658 566

C1657 577 1657 582 1658 592

C1660 607 1660 606 1659 626

C1658 634 1658 642 1657 643

C1656 644 1656 650 1656 655

C1656 665 1656 666 1654 668

C1652 670 1652 672 1652 677

C1652 681 1652 684 1651 685

C1650 685 1650 689 1650 694

L1650 703

L1648 703

L1646 703

L1646 709

L1646 715

L1645 715

L1644 715

L1644 721

C1644 725 1644 727 1642 729

C1641 730 1640 732 1640 735

L1640 740

L1639 740

L1638 740

L1638 745

L1638 750

L1637 750

C1635 750 1633 753 1633 757

C1633 759 1633 761 1632 762

C1631 762 1631 764 1631 766

L1631 771

L1629 771

L1627 772

L1627 776

L1627 780

L1626 780

L1625 780

L1625 783

C1625 784 1624 786 1623 787

C1621 788 1621 790 1621 793

L1621 798

L1620 798

L1619 798

L1619 802

L1619 805

L1617 805

L1615 805

L1615 809

L1615 813

L1614 813

L1613 813

L1613 817

L1613 821

L1611 821

L1609 821

L1608 824

C1608 825 1607 827 1607 828

C1606 829 1606 831 1606 832

C1606 833 1605 835 1604 835

C1603 836 1602 838 1602 839

L1602 842

L1601 842

L1600 842

L1600 844

C1600 845 1599 847 1598 848

C1597 849 1596 851 1596 853

C1596 855 1595 857 1594 858

C1593 859 1592 860 1592 861

L1592 863

L1591 863

L1590 863

L1590 866

L1590 869

L1589 869

L1588 869

L1588 872

L1588 875

L1586 875

L1584 875

L1584 877

C1583 877 1583 879 1583 880

C1583 881 1582 883 1580 885

C1578 887 1577 888 1577 891

L1577 894

L1576 894

L1575 894

L1575 897

L1575 900

L1574 900

C1572 900 1569 904 1569 906

L1569 907

L1568 907

L1567 907

L1567 909

L1567 911

L1566 911

L1565 911

L1565 913

C1565 914 1564 915 1563 916

C1562 917 1561 918 1561 919

L1561 921

L1560 921

L1559 921

L1558 923

C1558 925 1557 927 1556 928

C1555 929 1554 930 1554 931

L1554 932

L1553 932

L1552 932

L1552 934

C1552 935 1551 937 1549 938

C1547 940 1546 942 1546 943

C1546 945 1545 947 1543 949

C1541 950 1540 952 1540 953

C1540 954 1539 955 1538 956

C1537 957 1536 958 1536 959

L1536 961

L1535 961

L1533 962

L1533 963

L1533 965

L1532 965

C1530 965 1527 970 1527 972

C1527 973 1526 974 1524 976

C1522 978 1521 979 1521 980

C1521 981 1520 982 1519 983

C1518 984 1517 985 1517 986

L1517 988

L1516 988

L1515 988

L1515 990

L1515 992

L1513 992

L1511 992

L1511 994

C1511 994 1509 997 1508 999

C1506 1001 1504 1003 1504 1004

L1504 1005

L1503 1005

L1502 1005

L1502 1007

L1502 1009

L1500 1009

L1498 1009

L1498 1011

C1498 1012 1496 1014 1494 1015

L1492 1016

L1492 1017

L1492 1019

L1491 1019

L1490 1019

L1490 1021

C1490 1022 1489 1024 1488 1025

C1487 1025 1486 1027 1486 1027

C1486 1029 1483 1031 1481 1032

L1479 1033

L1479 1034

C1479 1035 1477 1037 1475 1039

C1473 1041 1471 1044 1471 1045

L1471 1046

L1469 1046

L1467 1046

L1467 1048

L1467 1050

L1466 1050

L1465 1050

L1465 1052

L1465 1053

L1463 1053

L1461 1053

L1461 1055

L1461 1057

L1460 1057

L1458 1058

L1458 1059

C1458 1060 1457 1061 1456 1062

C1455 1062 1453 1064 1453 1065

C1452 1066 1451 1067 1450 1067

L1449 1067

L1448 1070

C1447 1071 1446 1072 1445 1073

L1442 1074

L1442 1076

C1442 1076 1440 1079 1438 1082

C1435 1084 1433 1086 1433 1087

C1433 1087 1432 1088 1431 1089

C1430 1089 1428 1091 1428 1092

C1427 1093 1426 1094 1425 1094

C1424 1094 1417 1101 1417 1103

L1417 1105

L1415 1105

C1415 1105 1413 1106 1411 1108

C1409 1110 1407 1111 1407 1111

L1405 1111

L1404 1113

C1403 1115 1398 1121 1396 1121

C1396 1121 1394 1123 1393 1125

C1392 1127 1391 1128 1390 1128

L1388 1128

L1388 1130

L1388 1132

L1386 1132

L1384 1132

L1384 1134

L1383 1136

L1382 1136

C1381 1136 1378 1138 1375 1141

C1372 1144 1370 1146 1369 1146

C1369 1146 1365 1149 1362 1152

C1358 1156 1355 1159 1354 1159

C1353 1159 1352 1160 1350 1162

C1348 1164 1346 1165 1346 1165

L1344 1165

L1344 1167

L1344 1169

L1341 1169

L1339 1169

L1338 1171

C1337 1173 1336 1174 1333 1176

C1332 1177 1331 1178 1331 1179

L1331 1180

L1328 1180

C1326 1180 1323 1182 1323 1184

L1323 1186

L1320 1186

L1317 1186

L1317 1188

L1317 1190

L1315 1190

C1315 1190 1313 1191 1311 1193

C1309 1195 1308 1196 1307 1196

C1306 1196 1304 1197 1298 1202

C1298 1203 1296 1203 1296 1203

L1294 1203

L1294 1205

L1294 1207

L1292 1207

C1292 1207 1290 1208 1288 1210

C1286 1212 1284 1213 1284 1213

C1283 1213 1281 1214 1281 1215

C1280 1216 1278 1217 1277 1217

L1275 1217

L1275 1219

L1275 1221

L1273 1221

C1270 1221 1265 1224 1265 1226

L1265 1227

L1264 1227

C1263 1227 1262 1228 1261 1229

C1260 1229 1259 1230 1257 1230

L1255 1230

L1254 1232

L1254 1234

L1252 1234

L1250 1234

L1250 1236

L1250 1238

L1247 1238

L1244 1238

L1244 1239

L1244 1240

L1241 1240

L1238 1240

L1238 1242

L1238 1244

L1236 1244

C1234 1244 1232 1245 1230 1247

C1228 1249 1226 1250 1226 1250

C1225 1250 1223 1251 1222 1253

C1221 1254 1220 1255 1219 1255

L1217 1255

L1217 1256

L1217 1257

L1215 1257

C1214 1257 1213 1258 1212 1259

C1211 1260 1209 1261 1208 1261

L1205 1261

L1204 1263

L1204 1265

L1201 1265

L1198 1265

L1198 1266

L1198 1267

L1196 1267

C1195 1267 1194 1268 1193 1269

C1192 1270 1190 1271 1189 1271

L1187 1271

L1186 1273

L1186 1275

L1183 1275

C1182 1275 1180 1276 1180 1277

C1179 1277 1178 1278 1177 1278

C1176 1278 1175 1279 1174 1280

C1173 1281 1171 1282 1170 1282

L1167 1282

L1167 1283

L1167 1284

L1165 1284

L1163 1284

L1163 1285

L1163 1286

L1161 1286

L1159 1286

L1159 1287

L1159 1288

L1157 1288

C1156 1288 1154 1289 1154 1290

C1153 1291 1151 1292 1149 1292

L1147 1292

L1146 1293

L1146 1295

L1145 1294

C1144 1294 1142 1295 1141 1296

C1140 1297 1138 1298 1137 1298

L1134 1298

L1134 1300

C1133 1301 1132 1302 1129 1303

L1125 1303

L1125 1304

L1125 1305

L1122 1305

L1119 1305

L1119 1307

L1119 1309

L1115 1309

C1113 1309 1111 1310 1110 1311

C1109 1312 1107 1313 1105 1313

C1104 1313 1103 1313 1103 1314

C1102 1315 1101 1315 1099 1315

L1097 1315

L1096 1317

L1096 1319

L1092 1319

L1088 1319

L1088 1321

L1088 1323

L1084 1323

C1082 1323 1079 1324 1076 1325

L1071 1326

L1071 1328

L1071 1330

L1067 1330

L1063 1330

L1063 1332

L1063 1334

L1062 1334

L1060 1334

L1060 1333

L1059 1332

L1055 1334

C1053 1335 1049 1336 1047 1336

L1044 1336

L1044 1338

L1044 1340

L1039 1340

C1036 1340 1034 1340 1034 1341

C1033 1342 1031 1342 1030 1342

C1028 1342 1025 1343 1024 1344

C1023 1345 1021 1346 1018 1346

L1013 1346

L1013 1348

L1013 1350

L1007 1350

L1001 1351

L1000 1352

L1000 1353

L995 1353

L990 1353

L990 1355

L990 1357

L984 1357

L978 1357

L977 1359

L977 1361

L976 1361

C976 1361 975 1360 974 1360

L973 1359

L972 1360

C971 1360 970 1361 969 1361

L967 1361

L967 1362

L967 1363

L962 1363

C959 1363 957 1364 956 1365

C954 1366 952 1367 948 1367

L943 1367

L942 1369

L941 1372

L941 1370

L941 1369

L938 1369

C936 1369 935 1369 935 1370

C934 1371 933 1371 931 1371

C929 1371 928 1371 928 1372

C927 1373 925 1373 922 1373

C919 1373 917 1374 916 1375

C915 1376 912 1377 907 1377

C902 1378 898 1379 898 1379

L898 1380

L891 1380

C886 1380 884 1380 883 1382

C882 1384 880 1384 875 1384

L869 1384

L869 1242

Z

M491 1045

L492 1017

L622 1016

L752 1016

L752 937

L752 858

L536 857

L320 857

L320 829

L320 802

L831 802

L1342 802

L1342 829

L1342 857

L1126 857

L910 858

L909 937

L909 1016

L1039 1016

L1169 1016

L1169 1045

L1169 1074

L830 1074

L491 1074

L491 1045

Z

M945 754

C943 752 941 750 941 749

L940 747

L939 747

C936 747 935 742 935 731

L935 721

L938 720

C940 720 942 718 943 717

C943 715 945 714 946 714

L947 714

L947 713

C947 712 949 710 952 707

C961 698 966 692 966 691

C966 690 967 688 969 687

C971 685 972 682 973 681

C973 679 974 678 974 677

C975 677 975 675 975 674

L975 670

L977 670

L978 669

L978 639

L978 608

L977 608

C976 608 975 607 974 606

C974 605 972 605 970 605

C968 604 966 604 965 603

C965 603 960 602 953 602

C942 601 942 601 938 597

C935 594 935 593 935 584

C935 574 936 570 940 565

C942 564 943 562 943 561

L943 560

L973 560

L1003 560

L1003 562

L1004 564

L1006 564

L1009 564

L1009 565

C1009 566 1010 567 1012 569

C1014 570 1015 573 1015 574

C1016 576 1017 578 1018 578

L1019 579

L1019 624

C1019 654 1019 670 1020 671

C1021 671 1021 672 1021 673

C1021 676 1024 681 1026 681

C1027 681 1028 682 1029 683

C1030 684 1031 685 1032 685

L1034 685

L1034 686

L1034 687

L1036 687

L1038 687

L1038 689

L1038 691

L1042 691

C1044 691 1046 692 1048 693

C1050 696 1055 698 1058 698

C1060 698 1061 698 1062 699

C1062 700 1065 700 1069 700

L1076 700

L1076 701

L1076 702

L1083 702

C1087 702 1090 702 1091 703

C1091 704 1120 704 1174 704

C1241 704 1258 704 1259 705

C1260 706 1262 707 1264 708

C1267 708 1269 709 1270 711

C1270 712 1271 714 1272 714

C1273 715 1274 718 1274 725

C1274 733 1274 735 1272 736

C1271 738 1270 740 1270 741

C1269 744 1268 745 1266 745

C1264 745 1262 746 1262 746

C1260 747 1115 747 1102 746

C1095 745 1085 745 1078 745

L1066 745

L1066 743

L1066 741

L1060 741

C1055 740 1053 739 1053 738

L1052 737

L1050 737

C1048 737 1046 736 1044 736

C1042 735 1039 734 1038 734

L1035 734

L1035 732

L1034 730

L1031 730

C1029 730 1027 729 1026 728

C1025 727 1023 726 1022 726

L1020 726

L1020 725

L1020 724

L1017 724

L1014 724

L1014 722

L1014 721

L1012 720

C1010 719 1005 716 1003 714

C1003 713 1001 713 999 713

L997 714

L996 717

L996 720

L995 720

C994 720 993 721 992 722

C990 727 983 736 982 736

L981 736

L980 738

C978 743 969 751 963 754

C962 754 961 755 961 756

C960 757 957 757 954 757

C949 757 948 757 945 754

Z

M394 736

C392 735 391 733 391 732

C391 731 390 729 389 727

C383 718 391 698 402 697

C404 696 412 696 421 696

C433 696 436 696 438 694

C440 693 440 693 440 598

C441 504 441 504 444 501

C445 500 447 498 448 497

C449 496 452 496 462 496

C472 496 474 496 476 498

C478 499 479 500 479 500

C480 500 481 501 482 502

C484 504 484 508 484 599

C484 693 484 693 487 694

C489 696 495 696 518 696

C546 696 546 696 547 694

C549 691 549 681 549 583

C549 524 549 474 548 472

L548 468

L480 468

C443 468 411 467 410 467

C406 466 400 461 400 459

C400 458 399 457 398 456

C397 454 397 451 397 444

C397 436 397 433 398 431

C399 430 400 428 400 427

L400 425

L401 425

C402 425 404 424 405 423

C406 421 408 421 559 421

C712 421 712 421 715 423

C717 425 719 426 719 427

C719 428 720 430 721 431

C724 434 724 448 721 455

C718 462 717 464 716 464

C715 464 714 465 713 466

C712 467 707 468 656 468

L600 468

L599 471

C598 472 598 488 598 507

C598 539 598 542 600 544

C602 546 602 546 651 546

C685 546 701 547 703 548

C705 548 707 551 709 554

C713 559 713 560 713 567

C713 575 710 582 705 587

C702 591 702 591 652 591

C602 591 602 591 600 594

C598 597 598 598 598 644

C598 692 598 692 600 694

C603 696 603 696 660 696

C718 697 718 697 721 700

C726 705 726 709 726 723

C725 732 725 733 722 736

C720 740 720 740 559 740

C398 740 398 740 394 736

Z

M1059 691

C1058 689 1052 686 1049 686

L1047 686

L1047 684

L1047 682

L1045 682

L1043 682

L1043 680

C1043 679 1042 678 1041 677

C1040 676 1039 675 1039 674

C1039 673 1038 672 1037 671

C1035 670 1035 668 1035 595

C1035 521 1035 519 1037 517

C1038 515 1039 513 1039 512

L1039 510

L1040 510

L1041 510

L1041 508

L1042 506

L1044 506

C1045 506 1046 505 1047 505

C1048 504 1050 503 1052 503

C1054 503 1056 502 1057 501

C1059 500 1064 500 1084 500

C1108 500 1108 500 1111 497

C1113 495 1114 493 1114 491

L1114 489

L1076 488

C1044 488 1038 488 1038 486

C1037 486 1036 485 1036 485

C1033 485 1030 481 1028 476

C1026 471 1025 458 1027 455

C1030 452 1035 447 1037 447

C1039 446 1047 446 1057 446

C1072 446 1075 446 1076 444

L1077 443

L1075 440

C1074 439 1071 436 1069 434

C1067 433 1066 431 1066 430

C1066 429 1066 428 1065 428

C1064 427 1064 425 1064 423

C1064 421 1064 419 1065 419

C1066 418 1066 417 1066 415

C1066 414 1067 412 1069 410

C1071 408 1072 406 1072 405

C1072 404 1079 401 1083 401

C1087 401 1093 403 1094 405

C1094 405 1099 411 1105 417

C1111 423 1116 429 1116 429

L1116 430

L1117 430

C1118 430 1122 437 1122 439

L1122 440

L1124 440

C1124 441 1125 442 1126 444

L1127 446

L1142 446

C1158 446 1158 446 1159 442

C1160 440 1161 439 1162 439

L1164 439

L1164 438

C1164 436 1168 432 1172 429

C1175 427 1183 417 1183 415

C1183 415 1184 414 1184 413

C1185 413 1186 411 1188 408

C1189 406 1190 404 1191 403

L1193 403

L1193 402

L1193 401

L1198 401

C1201 401 1206 402 1208 403

L1213 404

L1213 406

C1213 406 1214 408 1216 409

C1218 411 1219 412 1219 415

L1219 418

L1221 418

L1223 418

L1223 422

C1223 424 1222 426 1220 428

C1218 430 1217 432 1217 433

C1217 433 1216 435 1215 435

C1214 436 1213 437 1213 438

L1213 440

L1212 440

L1210 441

L1210 443

L1210 445

L1212 445

C1212 446 1224 446 1237 446

C1252 446 1261 446 1263 447

C1266 449 1270 452 1270 454

L1270 455

L1272 455

L1273 456

L1273 467

C1273 475 1272 477 1271 478

C1270 479 1269 480 1269 481

C1269 481 1267 483 1266 484

C1264 485 1262 487 1262 487

L1262 488

L1211 488

C1160 488 1160 488 1158 491

C1158 493 1157 496 1157 497

L1158 500

L1193 500

C1219 500 1228 501 1229 502

C1230 502 1232 503 1234 503

C1235 503 1237 504 1238 505

C1239 505 1240 506 1242 506

L1244 506

L1244 508

C1244 508 1245 510 1246 512

C1250 518 1250 519 1250 597

C1250 676 1250 680 1246 682

C1245 683 1244 684 1244 685

C1244 685 1242 687 1240 688

C1238 689 1236 690 1235 691

C1233 692 1222 693 1147 693

C1063 693 1060 693 1059 691

Z

M1206 647

L1206 639

L1141 639

L1077 639

L1076 647

L1076 656

L1141 656

L1206 656

L1206 647

Z

M1206 598

L1206 591

L1204 591

C1203 590 1173 590 1139 590

L1077 591

L1076 598

L1076 606

L1141 606

L1206 606

L1206 598

Z

M1206 549

L1206 543

L1204 543

C1203 542 1174 542 1140 542

L1079 543

L1078 549

L1078 556

L1142 556

L1206 556

L1206 549

Z

M991 545

C991 543 982 536 980 536

L978 536

L978 535

C978 534 977 533 975 533

C974 532 972 531 972 531

C970 529 965 526 964 526

C963 526 962 525 961 524

C960 524 958 522 957 521

C952 519 941 509 941 506

C939 501 941 494 944 491

C946 489 948 486 949 485

C950 484 951 483 952 483

L953 483

L954 481

C954 479 959 476 963 476

C964 476 966 477 967 478

C969 478 970 479 972 479

L974 479

L974 480

L974 482

L976 483

C979 483 979 484 983 487

C985 489 987 490 987 490

C988 490 990 491 991 493

C992 495 994 496 995 496

C996 496 997 497 998 498

C998 499 1000 500 1000 500

C1001 500 1003 501 1004 503

C1006 505 1008 506 1008 506

L1009 506

L1009 507

C1009 508 1010 509 1011 510

C1015 513 1017 518 1017 523

C1017 528 1014 536 1012 536

C1011 536 1009 538 1006 541

C1001 546 1000 546 996 546

L991 546

L991 545

Z

M998 477

C998 475 991 471 983 466

C981 465 978 463 977 462

C977 462 975 461 975 461

L973 461

L973 459

L972 457

L971 457

C969 457 962 453 959 450

C958 449 955 446 952 444

C949 441 947 439 947 438

L947 436

L946 436

L944 436

L944 433

C944 432 945 428 946 426

C948 420 960 409 964 407

C968 406 975 408 980 411

C982 413 984 414 985 414

C985 414 986 415 987 416

C988 416 989 418 991 418

C992 419 993 420 993 421

C993 423 995 424 996 424

C998 425 1001 427 1002 428

C1003 429 1006 431 1007 431

L1009 432

L1009 433

C1009 434 1010 435 1011 436

C1012 436 1014 437 1014 438

C1015 439 1017 442 1018 443

C1021 446 1022 450 1022 459

C1022 464 1022 464 1017 469

C1015 471 1011 474 1010 475

C1008 475 1007 476 1007 477

L1007 478

L1003 478

L999 478

L998 477

Z

"/>

<path fill="#ffff00" stroke="none" d="
M491 1073

C491 1072 491 1059 491 1044

L492 1017

L622 1016

L752 1016

L752 937

L752 858

L536 857

L321 857

L321 830

L321 803

L831 803

L1342 803

L1342 830

L1342 857

L1126 857

L910 858

L909 937

L909 1016

L1039 1016

L1169 1017

L1169 1045

L1169 1074

L830 1074

L492 1074

L491 1073

Z

M945 754

C934 743 935 744 935 732

C935 722 936 722 938 720

C940 719 942 718 943 716

C944 715 945 714 946 714

L947 714

L947 713

C947 712 949 710 952 707

C961 698 966 692 966 691

C966 690 967 688 969 687

C971 685 972 682 973 681

C973 679 974 678 974 677

C975 677 975 676 975 674

C975 673 976 671 977 670

C978 669 978 664 978 638

L978 608

L977 608

C976 608 975 607 974 606

C974 605 972 605 970 605

C968 604 966 604 965 603

C965 603 960 602 953 602

C942 601 942 601 938 597

C935 594 935 594 935 584

C935 573 936 570 941 564

C945 560 945 560 973 560

C1001 560 1002 560 1003 562

C1004 563 1005 564 1006 564

C1008 564 1015 571 1015 575

C1016 576 1017 578 1018 578

L1019 579

L1019 624

C1019 654 1019 670 1020 671

C1021 671 1021 672 1021 673

C1021 676 1024 681 1025 681

C1026 681 1027 682 1029 683

C1030 684 1032 685 1034 686

C1036 687 1038 689 1038 690

L1038 691

L1042 691

C1044 691 1046 692 1048 693

C1050 696 1055 698 1058 698

C1060 698 1061 698 1062 699

C1062 700 1065 700 1069 700

C1072 700 1075 700 1076 701

C1076 702 1079 702 1083 702

C1087 702 1090 702 1091 703

C1091 704 1120 704 1174 704

C1241 704 1258 704 1259 705

C1260 706 1262 707 1264 708

C1268 708 1270 711 1273 717

C1274 718 1274 723 1274 727

C1274 733 1274 735 1272 736

C1271 737 1270 740 1270 741

C1269 744 1268 745 1266 745

C1264 745 1262 746 1262 746

C1260 747 1115 747 1102 746

C1095 745 1085 745 1079 745

L1067 744

L1066 743

L1066 741

L1060 741

C1057 740 1054 739 1053 739

C1052 738 1050 737 1049 737

C1042 735 1036 733 1035 732

C1034 731 1033 730 1031 730

C1029 730 1027 729 1026 729

C1025 727 1019 724 1017 724

C1016 724 1015 723 1014 722

C1013 721 1012 720 1012 720

C1011 720 1009 718 1006 716

C1003 714 1001 713 999 713

L997 714

L996 716

C996 717 995 719 995 720

C994 720 993 721 993 722

C989 728 984 735 982 736

C981 737 980 738 980 738

C980 740 971 750 968 752

C966 752 965 753 963 754

C962 754 961 755 961 756

C960 757 957 757 954 757

C949 757 948 757 945 754

Z

M396 738

C392 734 387 724 387 719

C387 713 391 704 395 700

C399 696 402 696 421 696

C433 696 436 696 438 694

C440 693 440 693 440 598

C441 504 441 504 444 501

C445 500 447 498 448 497

C449 496 452 496 462 496

C474 496 474 496 479 500

C484 504 484 504 484 598

C484 693 484 693 487 694

C489 696 495 696 518 696

C546 696 546 696 547 694

C549 691 549 681 549 583

C549 524 549 474 548 472

L548 468

L480 468

C443 468 411 467 410 467

C406 466 400 461 400 459

C400 458 399 457 398 456

C396 453 396 434 398 431

C399 430 400 429 400 428

C400 427 402 425 403 424

C407 421 407 421 560 421

C712 421 712 421 716 424

C717 425 719 427 719 428

C719 429 720 430 721 431

C723 434 724 448 721 454

C720 457 719 459 719 460

C718 461 716 463 714 465

C711 468 711 468 655 468

L600 468

L599 471

C598 472 598 488 598 507

C598 539 598 542 600 544

C602 546 602 546 651 546

C685 546 701 547 703 548

C705 548 707 551 709 554

C713 559 713 560 713 567

C713 576 710 583 704 588

C700 591 700 591 651 591

C602 591 602 591 600 594

C598 597 598 598 598 644

C598 692 598 692 600 694

C603 696 603 696 660 696

C718 697 718 697 721 700

C726 705 726 709 726 723

C725 733 725 733 722 736

C719 740 719 740 559 740

C399 740 399 740 396 738

Z

M1060 691

C1057 689 1052 686 1050 686

L1048 686

L1047 684

L1047 682

L1045 682

L1044 682

L1043 680

C1043 679 1042 678 1041 677

C1040 675 1039 674 1039 674

C1039 673 1038 672 1037 671

C1035 669 1035 667 1035 594

C1035 520 1035 520 1039 513

C1041 508 1043 506 1044 506

C1045 506 1046 505 1047 505

C1048 504 1050 503 1052 503

C1054 503 1056 502 1057 501

C1059 500 1064 500 1084 500

C1108 500 1108 500 1111 497

C1113 495 1114 493 1114 491

L1114 489

L1076 488

C1045 488 1039 488 1038 486

C1037 486 1036 485 1036 485

C1034 485 1029 480 1028 476

C1027 473 1026 469 1026 464

C1026 457 1026 457 1031 452

C1036 447 1036 447 1055 446

C1073 446 1077 445 1077 443

C1077 443 1075 440 1072 437

C1068 434 1066 430 1066 430

C1066 429 1066 428 1065 428

C1064 427 1064 425 1064 423

C1064 421 1064 419 1065 419

C1066 418 1066 417 1066 416

C1066 413 1072 405 1076 403

C1079 400 1087 400 1090 403

C1093 404 1111 423 1117 429

C1120 433 1122 437 1122 438

L1122 440

L1124 440

C1124 441 1125 442 1126 443

L1127 446

L1142 446

C1157 446 1157 446 1159 443

C1160 441 1162 439 1163 439

L1164 439

L1164 438

C1164 436 1168 431 1172 429

C1175 427 1183 417 1183 415

L1183 414

L1184 413

C1185 413 1186 412 1186 410

C1187 409 1189 406 1191 405

C1194 401 1195 401 1199 401

C1205 401 1210 403 1215 408

C1218 411 1219 412 1219 415

L1219 418

L1221 418

L1223 419

L1223 422

C1223 423 1221 426 1220 428

C1218 430 1217 432 1217 433

C1217 433 1216 435 1215 435

C1214 436 1213 437 1213 438

C1213 438 1212 439 1212 440

C1211 441 1210 442 1210 443

L1210 445

L1212 445

C1212 446 1224 446 1237 446

C1252 446 1261 446 1263 447

C1266 449 1270 452 1270 454

L1270 455

L1272 455

L1273 456

L1273 465

C1273 473 1273 475 1271 477

C1270 479 1269 480 1269 481

C1269 481 1267 483 1264 485

C1260 488 1260 488 1210 488

C1160 488 1160 488 1158 491

C1158 493 1157 496 1157 497

L1158 500

L1193 500

C1219 500 1228 501 1229 502

C1230 502 1232 503 1234 503

C1235 503 1237 504 1238 505

C1239 505 1240 506 1241 506

C1243 506 1244 508 1247 515

C1251 522 1251 524 1251 599

C1250 675 1250 680 1246 682

C1245 683 1244 684 1244 685

C1244 685 1242 687 1240 688

C1238 689 1236 690 1235 691

C1233 692 1223 693 1147 693

C1062 693 1061 693 1060 691

Z

M1206 647

L1206 639

L1141 639

L1077 639

L1076 647

L1076 656

L1141 656

L1206 656

L1206 647

Z

M1206 598

L1206 591

L1204 591

C1203 590 1173 590 1139 590

L1077 591

L1076 598

L1076 606

L1141 606

L1206 606

L1206 598

Z

M1206 549

L1206 543

L1204 543

C1203 542 1174 542 1140 542

L1079 543

L1078 549

L1078 556

L1142 556

L1206 556

L1206 549

Z

M989 542

C987 540 984 538 982 537

C981 536 978 535 977 534

C967 527 965 526 964 526

C963 526 962 525 961 524

C960 524 958 522 957 521

C952 519 942 510 941 506

C940 505 940 502 941 499

C941 494 942 493 950 485

C958 477 959 476 962 476

C964 476 966 477 967 478

C969 478 970 479 971 479

C972 479 973 480 974 480

C974 481 976 483 979 484

C981 485 983 487 984 488

C985 488 987 491 990 492

C992 494 994 496 995 496

C995 496 997 497 998 498

C998 499 1000 500 1000 500

C1002 500 1014 512 1016 515

C1016 517 1017 520 1017 523

C1017 528 1014 536 1012 536

C1011 536 1008 538 1006 541

C1001 545 1000 546 997 546

C993 546 992 545 989 542

Z

M998 477

C998 475 989 469 986 468

C983 467 974 460 973 458

C972 458 971 457 970 457

C968 457 964 454 960 450

C958 449 954 445 952 443

C949 441 947 438 947 437

L947 436

L946 436

L944 435

L944 433

C944 427 953 414 961 409

C965 406 974 407 980 411

C982 413 984 414 985 414

C985 414 986 415 987 416

C988 416 989 418 991 418

L993 419

L993 421

L993 423

L996 424

C997 425 1000 427 1002 428

C1004 429 1006 431 1007 431

L1009 432

L1009 433

C1009 434 1010 435 1011 436

C1012 436 1014 437 1014 438

C1015 439 1017 442 1018 443

C1021 446 1022 450 1022 459

C1022 464 1022 464 1018 468

C1011 474 1005 478 1002 478

L999 478

L998 477

Z

"/>

<path fill="#fdfdfd" stroke="none" d="
M491 1073

C491 1072 491 1059 491 1044

L492 1017

L622 1016

L752 1016

L752 937

L752 858

L536 857

L321 857

L321 830

L321 803

L831 803

L1342 803

L1342 830

L1342 857

L1126 857

L910 858

L909 937

L909 1016

L1039 1016

L1169 1017

L1169 1045

L1169 1074

L830 1074

L492 1074

L491 1073

Z

M945 754

C934 743 935 744 935 732

C935 722 936 722 938 720

C940 719 942 718 943 716

C944 715 945 714 946 714

L947 714

L947 713

C947 712 949 710 952 707

C961 698 966 692 966 691

C966 690 967 688 969 687

C971 685 972 682 973 681

C973 679 974 678 974 677

C975 677 975 676 975 674

C975 673 976 671 977 670

C978 669 978 664 978 638

L978 608

L977 608

C976 608 975 607 974 606

C974 605 972 605 970 605

C968 604 966 604 965 603

C965 603 960 602 953 602

C942 601 942 601 938 597

C935 594 935 594 935 584

C935 573 936 570 941 564

C945 560 945 560 973 560

C1001 560 1002 560 1003 562

C1004 563 1005 564 1006 564

C1008 564 1015 571 1015 575

C1016 576 1017 578 1018 578

L1019 579

L1019 624

C1019 654 1019 670 1020 671

C1021 671 1021 672 1021 673

C1021 676 1024 681 1025 681

C1026 681 1027 682 1029 683

C1030 684 1032 685 1034 686

C1036 687 1038 689 1038 690

L1038 691

L1042 691

C1044 691 1046 692 1048 693

C1050 696 1055 698 1058 698

C1060 698 1061 698 1062 699

C1062 700 1065 700 1069 700

C1072 700 1075 700 1076 701

C1076 702 1079 702 1083 702

C1087 702 1090 702 1091 703

C1091 704 1120 704 1174 704

C1241 704 1258 704 1259 705

C1260 706 1262 707 1264 708

C1268 708 1270 711 1273 717

C1274 718 1274 723 1274 727

C1274 733 1274 735 1272 736

C1271 737 1270 740 1270 741

C1269 744 1268 745 1266 745

C1264 745 1262 746 1262 746

C1260 747 1115 747 1102 746

C1095 745 1085 745 1079 745

L1067 744

L1066 743

L1066 741

L1060 741

C1057 740 1054 739 1053 739

C1052 738 1050 737 1049 737

C1042 735 1036 733 1035 732

C1034 731 1033 730 1031 730

C1029 730 1027 729 1026 729

C1025 727 1019 724 1017 724

C1016 724 1015 723 1014 722

C1013 721 1012 720 1012 720

C1011 720 1009 718 1006 716

C1003 714 1001 713 999 713

L997 714

L996 716

C996 717 995 719 995 720

C994 720 993 721 993 722

C989 728 984 735 982 736

C981 737 980 738 980 738

C980 740 971 750 968 752

C966 752 965 753 963 754

C962 754 961 755 961 756

C960 757 957 757 954 757

C949 757 948 757 945 754

Z

M396 738

C392 734 387 724 387 719

C387 713 391 704 395 700

C399 696 402 696 421 696

C433 696 436 696 438 694

C440 693 440 693 440 598

C441 504 441 504 444 501

C445 500 447 498 448 497

C449 496 452 496 462 496

C474 496 474 496 479 500

C484 504 484 504 484 598

C484 693 484 693 487 694

C489 696 495 696 518 696

C546 696 546 696 547 694

C549 691 549 681 549 583

C549 524 549 474 548 472

L548 468

L480 468

C443 468 411 467 410 467

C406 466 400 461 400 459

C400 458 399 457 398 456

C396 453 396 434 398 431

C399 430 400 429 400 428

C400 427 402 425 403 424

C407 421 407 421 560 421

C712 421 712 421 716 424

C717 425 719 427 719 428

C719 429 720 430 721 431

C723 434 724 448 721 454

C720 457 719 459 719 460

C718 461 716 463 714 465

C711 468 711 468 655 468

L600 468

L599 471

C598 472 598 488 598 507

C598 539 598 542 600 544

C602 546 602 546 651 546

C685 546 701 547 703 548

C705 548 707 551 709 554

C713 559 713 560 713 567

C713 576 710 583 704 588

C700 591 700 591 651 591

C602 591 602 591 600 594

C598 597 598 598 598 644

C598 692 598 692 600 694

C603 696 603 696 660 696

C718 697 718 697 721 700

C726 705 726 709 726 723

C725 733 725 733 722 736

C719 740 719 740 559 740

C399 740 399 740 396 738

Z

M1060 691

C1057 689 1052 686 1050 686

L1048 686

L1047 684

L1047 682

L1045 682

L1044 682

L1043 680

C1043 679 1042 678 1041 677

C1040 675 1039 674 1039 674

C1039 673 1038 672 1037 671

C1035 669 1035 667 1035 594

C1035 520 1035 520 1039 513

C1041 508 1043 506 1044 506

C1045 506 1046 505 1047 505

C1048 504 1050 503 1052 503

C1054 503 1056 502 1057 501

C1059 500 1064 500 1084 500

C1108 500 1108 500 1111 497

C1113 495 1114 493 1114 491

L1114 489

L1076 488

C1045 488 1039 488 1038 486

C1037 486 1036 485 1036 485

C1034 485 1029 480 1028 476

C1027 473 1026 469 1026 464

C1026 457 1026 457 1031 452

C1036 447 1036 447 1055 446

C1073 446 1077 445 1077 443

C1077 443 1075 440 1072 437

C1068 434 1066 430 1066 430

C1066 429 1066 428 1065 428

C1064 427 1064 425 1064 423

C1064 421 1064 419 1065 419

C1066 418 1066 417 1066 416

C1066 413 1072 405 1076 403

C1079 400 1087 400 1090 403

C1093 404 1111 423 1117 429

C1120 433 1122 437 1122 438

L1122 440

L1124 440

C1124 441 1125 442 1126 443

L1127 446

L1142 446

C1157 446 1157 446 1159 443

C1160 441 1162 439 1163 439

L1164 439

L1164 438

C1164 436 1168 431 1172 429

C1175 427 1183 417 1183 415

L1183 414

L1184 413

C1185 413 1186 412 1186 410

C1187 409 1189 406 1191 405

C1194 401 1195 401 1199 401

C1205 401 1210 403 1215 408

C1218 411 1219 412 1219 415

L1219 418

L1221 418

L1223 419

L1223 422

C1223 423 1221 426 1220 428

C1218 430 1217 432 1217 433

C1217 433 1216 435 1215 435

C1214 436 1213 437 1213 438

C1213 438 1212 439 1212 440

C1211 441 1210 442 1210 443

L1210 445

L1212 445

C1212 446 1224 446 1237 446

C1252 446 1261 446 1263 447

C1266 449 1270 452 1270 454

L1270 455

L1272 455

L1273 456

L1273 465

C1273 473 1273 475 1271 477

C1270 479 1269 480 1269 481

C1269 481 1267 483 1264 485

C1260 488 1260 488 1210 488

C1160 488 1160 488 1158 491

C1158 493 1157 496 1157 497

L1158 500

L1193 500

C1219 500 1228 501 1229 502

C1230 502 1232 503 1234 503

C1235 503 1237 504 1238 505

C1239 505 1240 506 1241 506

C1243 506 1244 508 1247 515

C1251 522 1251 524 1251 599

C1250 675 1250 680 1246 682

C1245 683 1244 684 1244 685

C1244 685 1242 687 1240 688

C1238 689 1236 690 1235 691

C1233 692 1223 693 1147 693

C1062 693 1061 693 1060 691

Z

M1206 647

L1206 639

L1141 639

L1077 639

L1076 647

L1076 656

L1141 656

L1206 656

L1206 647

Z

M1206 598

L1206 591

L1204 591

C1203 590 1173 590 1139 590

L1077 591

L1076 598

L1076 606

L1141 606

L1206 606

L1206 598

Z

M1206 549

L1206 543

L1204 543

C1203 542 1174 542 1140 542

L1079 543

L1078 549

L1078 556

L1142 556

L1206 556

L1206 549

Z

M989 542

C987 540 984 538 982 537

C981 536 978 535 977 534

C967 527 965 526 964 526

C963 526 962 525 961 524

C960 524 958 522 957 521

C952 519 942 510 941 506

C940 505 940 502 941 499

C941 494 942 493 950 485

C958 477 959 476 962 476

C964 476 966 477 967 478

C969 478 970 479 971 479

C972 479 973 480 974 480

C974 481 976 483 979 484

C981 485 983 487 984 488

C985 488 987 491 990 492

C992 494 994 496 995 496

C995 496 997 497 998 498

C998 499 1000 500 1000 500

C1002 500 1014 512 1016 515

C1016 517 1017 520 1017 523

C1017 528 1014 536 1012 536

C1011 536 1008 538 1006 541

C1001 545 1000 546 997 546

C993 546 992 545 989 542

Z

M998 477

C998 475 989 469 986 468

C983 467 974 460 973 458

C972 458 971 457 970 457

C968 457 964 454 960 450

C958 449 954 445 952 443

C949 441 947 438 947 437

L947 436

L946 436

L944 435

L944 433

C944 427 953 414 961 409

C965 406 974 407 980 411

C982 413 984 414 985 414

C985 414 986 415 987 416

C988 416 989 418 991 418

L993 419

L993 421

L993 423

L996 424

C997 425 1000 427 1002 428

C1004 429 1006 431 1007 431

L1009 432

L1009 433

C1009 434 1010 435 1011 436

C1012 436 1014 437 1014 438

C1015 439 1017 442 1018 443

C1021 446 1022 450 1022 459

C1022 464 1022 464 1018 468

C1011 474 1005 478 1002 478

L999 478

L998 477

Z

"/>

</svg>

