<?xml version="1.0" encoding="utf-8"?>
<svg version="1.0" width="324.000000pt" height="324.000000pt" viewBox="0 0 324.000000 324.000000" preserveAspectRatio="xMidYMid meet" xmlns="http://www.w3.org/2000/svg">
  <path stroke="none" d=" M18 321 C11 317 7 308 9 300 C9 297 22 275 59 216 C86 172 112 129 116 121 C125 107 125 107 125 80 C125 66 125 53 126 52 C127 50 131 49 134 50 C137 52 137 52 137 82 C137 112 137 112 79 206 C48 258 21 302 21 303 C21 305 21 307 23 309 C25 311 25 311 151 311 C277 311 277 311 280 309 C281 307 282 305 282 304 C282 303 270 282 254 257 C239 232 227 211 226 210 C226 208 230 203 232 203 C234 203 235 204 236 204 C238 205 289 288 292 295 C297 305 292 318 283 322 C281 323 239 323 151 323 C27 323 21 323 18 321 Z M78 264 L78 244 L85 244 L91 244 L91 264 L91 283 L85 283 L78 283 L78 264 Z M105 257 L105 230 L111 230 L117 230 L117 257 L117 283 L111 283 L105 283 L105 257 Z M132 237 L132 190 L138 190 L144 190 L144 237 L144 283 L138 283 L132 283 L132 237 Z M158 257 L158 230 L165 230 L171 230 L171 257 L171 283 L165 283 L158 283 L158 257 Z M185 243 L185 204 L192 204 L198 204 L198 243 L198 283 L192 283 L185 283 L185 243 Z M212 257 L212 230 L219 230 L225 230 L225 257 L225 283 L219 283 L212 283 L212 257 Z M220 187 C199 182 182 168 173 149 C166 133 166 134 165 81 C165 33 165 33 168 31 C170 30 172 29 176 29 C180 29 181 29 183 27 C186 24 186 20 182 17 C180 15 179 15 151 15 C136 15 122 15 122 16 C119 16 117 21 118 24 C119 29 121 29 133 29 C148 29 151 30 151 36 C151 37 150 39 149 40 C147 42 146 42 134 42 C120 42 116 41 111 37 C102 28 104 11 115 5 C119 3 121 3 151 3 C187 3 187 3 193 9 C203 21 197 39 182 42 L178 42 L178 58 L178 74 L184 67 C192 59 197 55 206 51 C218 45 223 43 239 44 C252 44 254 44 260 46 C268 49 270 51 269 56 C267 60 264 61 258 59 C235 51 213 57 196 73 C189 80 184 88 181 97 C179 102 179 106 179 116 C178 131 180 138 188 150 C203 171 230 182 255 174 C274 169 289 154 296 136 C298 130 298 126 299 116 C299 104 300 104 302 102 C305 101 305 101 308 102 C311 104 312 109 312 120 C309 153 288 179 257 187 C246 190 230 190 220 187 Z M214 134 C203 123 201 121 201 118 C201 117 202 115 203 114 C207 110 209 112 220 122 L230 132 L265 92 C296 58 301 52 304 52 C308 52 310 54 310 58 C310 61 304 68 272 104 C235 145 233 147 230 147 C227 147 225 146 214 134 Z "/>
  <path fill="#ffffff" stroke="none" d=" "/>
</svg>