<?xml version="1.0" standalone="no"?>

<!DOCTYPE svg PUBLIC "-//W3C//DTD SVG 20010904//EN"

 "http://www.w3.org/TR/2001/REC-SVG-20010904/DTD/svg10.dtd">

<svg version="1.0" xmlns="http://www.w3.org/2000/svg"

 width="304.000000pt" height="304.000000pt" viewBox="0 0 304.000000 304.000000"

 preserveAspectRatio="xMidYMid meet">

<path fill="#282828" stroke="none" d="
M106 284

L12 284

L12 282

L12 280

L149 280

C234 280 287 281 288 281

L289 282

L288 284

L288 285

L244 285

C220 285 158 284 106 284

Z

M168 273

L137 273

L137 271

C137 268 145 240 146 238

C147 236 149 236 189 236

C212 237 231 237 232 237

C232 238 228 269 227 272

L226 274

L213 274

C205 274 185 273 168 273

Z

M223 266

C224 262 227 242 227 241

L227 241

L188 241

L150 242

L146 255

L142 268

L153 268

C159 268 178 269 194 269

L223 269

L223 266

Z

M129 228

L128 227

L128 226

L129 224

L142 224

L156 225

L156 227

L156 229

L143 229

C136 229 130 229 129 228

Z

M177 228

C176 228 176 227 176 226

L176 224

L190 224

L203 224

L204 226

L204 227

L203 228

C201 229 178 229 177 228

Z

M225 228

C225 227 224 226 225 225

L225 224

L239 224

L252 224

L252 226

C253 226 253 228 252 228

C252 229 227 229 225 228

Z

M272 227

L272 225

L280 225

L288 225

L288 226

C289 229 288 229 280 229

L272 229

L272 227

Z

M32 226

C31 223 34 223 47 223

L60 224

L60 226

L60 228

L46 228

L33 228

L32 226

Z

M81 227

C81 226 81 225 81 224

C82 223 106 223 108 224

L109 225

L109 226

L108 228

L95 228

L82 228

L81 227

Z

M23 214

C23 214 25 206 27 198

L31 183

L32 183

C44 183 107 183 107 184

C108 184 105 207 103 214

L103 216

L63 216

L24 216

L23 214

Z

M99 212

C99 212 100 206 101 200

C102 193 103 188 102 188

C102 187 87 187 68 187

L35 187

L33 194

C32 197 31 203 30 206

L28 211

L62 211

C81 211 97 212 98 212

L99 212

L99 212

Z

M119 197

C119 196 121 191 124 187

L129 178

L71 178

C39 178 13 178 12 177

L11 176

L11 175

L12 173

L72 173

L132 173

L132 172

C133 171 137 167 142 163

C151 157 152 156 162 154

C168 153 173 152 174 151

L176 151

L176 136

L177 121

L185 120

L194 120

L193 88

C193 56 193 56 185 42

C181 34 177 27 177 26

C177 24 178 22 179 21

C181 19 182 19 205 19

C229 19 229 19 231 22

C232 23 233 25 233 26

C233 27 229 34 225 42

C216 57 216 57 216 89

L216 120

L223 120

C227 120 232 120 232 121

L234 121

L234 140

L234 159

L238 159

C242 159 242 159 248 166

C253 173 253 173 271 173

L288 173

L288 174

L289 176

L288 177

C287 177 280 178 272 178

L258 179

L263 184

C265 187 267 190 267 190

C266 194 262 191 251 178

C239 163 239 163 228 164

C218 164 218 164 208 174

C202 179 197 183 196 183

L195 183

L194 181

L194 180

L203 171

C208 167 212 162 212 162

C212 162 209 159 204 156

C197 151 197 151 175 156

C153 161 153 161 145 167

C138 173 137 174 130 185

C126 192 122 198 121 198

L120 198

L119 197

Z

M229 142

L229 125

L223 125

L216 125

L216 130

C216 133 215 135 213 138

C210 140 208 141 206 141

C198 141 194 137 194 129

L193 126

L187 125

L180 125

L180 138

L180 150

L182 150

C183 149 187 148 191 148

C198 147 198 147 208 153

C217 159 218 159 223 159

L229 159

L229 142

Z

M207 136

C209 135 210 134 210 134

C211 133 211 116 211 95

L211 58

L205 58

L198 58

L198 95

C198 119 198 132 199 133

C200 134 201 136 202 136

C205 137 205 137 207 136

Z

M218 44

L223 36

L205 35

C196 35 188 35 187 35

L187 36

L191 42

C197 54 196 53 205 53

C213 53 213 53 218 44

Z

M227 29

C227 28 228 27 228 26

L228 24

L226 24

C224 23 183 23 182 24

C182 25 182 26 182 28

L183 30

L204 30

C220 30 226 30 227 29

Z

"/>

<path fill="#ffffff" stroke="none" d="
"/>

</svg>

