<?xml version="1.0" encoding="utf-8"?>
<svg version="1.0" width="244.000000pt" height="244.000000pt" viewBox="0 0 244.000000 244.000000" preserveAspectRatio="xMidYMid meet" xmlns="http://www.w3.org/2000/svg">
  <path stroke="none" d=" M17 225 C13 221 13 221 13 121 C13 10 13 17 19 13 C22 11 25 11 121 11 C230 11 225 11 229 17 C231 20 231 22 231 121 C231 222 231 222 227 226 C223 229 223 229 122 229 C21 229 21 229 17 225 Z M55 219 C55 217 56 214 57 212 L57 208 L53 206 C51 205 47 204 44 203 C40 202 35 201 33 200 C28 199 28 199 25 203 C21 206 21 207 21 213 C21 222 22 222 40 222 L54 222 L55 219 Z M67 221 C67 220 64 217 64 217 L63 217 L63 219 C62 221 63 222 65 222 L67 222 L67 221 Z M100 218 L104 214 L103 210 C102 208 100 203 100 199 C98 193 96 187 95 185 C94 184 83 188 79 190 C75 192 70 198 67 202 C66 206 66 206 69 210 C71 213 73 217 74 218 L75 222 L85 222 C96 222 96 222 100 218 Z M178 218 C180 210 180 209 176 206 C173 205 169 204 165 203 C161 202 157 201 155 200 L151 199 L146 204 C141 210 132 214 123 216 L117 217 L119 220 C122 222 122 222 150 222 L177 222 L178 218 Z M189 221 C189 220 189 219 188 218 L187 217 L187 217 C186 217 186 219 186 220 L185 222 L187 222 L189 222 L189 221 Z M221 220 C223 219 223 218 223 207 C222 197 222 195 220 190 L218 186 L214 186 C207 186 200 190 195 196 C189 203 188 205 192 210 C193 212 195 216 196 218 C198 222 198 222 208 222 C216 222 219 222 221 220 Z M122 208 C130 207 136 204 141 198 L144 195 L140 190 C135 184 132 179 130 168 C129 163 127 158 127 157 L125 155 L125 156 C125 157 124 160 122 164 C119 171 111 179 106 181 L103 182 L104 184 C104 186 105 190 106 195 C107 199 109 204 110 207 L111 211 L113 211 C114 210 118 209 122 208 Z M184 197 C189 188 197 182 209 178 L211 178 L207 176 C205 175 199 173 195 172 C184 169 181 169 175 164 L170 160 L168 162 C162 165 158 173 156 184 C156 186 155 189 155 190 L154 192 L157 193 C158 193 163 195 167 195 C173 197 180 199 182 201 L182 201 L184 197 Z M62 196 C64 193 67 190 69 187 C73 184 82 179 85 179 L87 179 L87 178 C87 176 79 173 71 172 C62 170 57 167 52 163 C50 161 48 160 47 160 C45 160 38 169 36 173 C34 179 31 191 33 192 C33 193 38 194 43 195 C48 196 53 198 55 198 C59 201 59 200 62 196 Z M26 179 C29 169 31 164 37 158 L43 153 L41 150 C41 148 39 144 38 140 C38 136 36 131 35 128 L34 124 L32 124 C32 124 29 124 26 125 L21 126 L21 154 C21 181 21 186 24 186 L25 186 L26 179 Z M149 180 C151 171 154 164 160 158 L166 153 L164 150 C164 148 162 143 161 138 C160 133 158 128 157 126 C156 124 155 124 151 124 C143 126 133 133 129 140 C127 144 127 144 131 149 C134 153 138 164 138 168 C138 173 144 186 147 186 L148 186 L149 180 Z M104 173 C112 168 118 157 118 149 C118 146 113 143 106 142 C103 141 98 140 95 139 C90 138 90 138 85 143 C79 149 72 153 64 154 C60 155 57 156 56 156 L56 157 L59 159 C63 162 66 163 75 164 C83 166 90 170 94 173 C97 177 99 177 104 173 Z M223 158 L223 141 L218 140 C212 138 212 138 206 144 C200 150 193 153 184 155 L179 155 L179 156 C179 159 187 163 197 165 C205 166 213 170 217 174 C218 175 220 176 221 176 L223 175 L223 158 Z M59 147 C69 145 72 144 78 138 L83 134 L79 129 C73 123 71 118 69 108 C67 99 65 94 64 94 L63 94 L63 96 C63 99 58 108 54 112 C52 114 49 117 46 119 C44 120 41 121 41 122 L41 122 L42 125 C43 126 45 131 45 135 C46 139 47 144 48 146 L49 149 L50 149 C51 149 55 148 59 147 Z M181 147 C186 146 191 145 193 144 C198 142 205 135 205 134 C205 133 203 131 202 129 C197 124 193 117 192 110 C191 106 190 101 189 99 L188 94 L187 94 L186 94 L185 98 C184 105 178 112 172 117 C169 119 166 121 165 121 L164 122 L165 125 C166 127 168 132 169 136 C169 140 171 145 171 146 L172 149 L173 149 C173 149 177 148 181 147 Z M124 134 C129 127 136 121 143 119 L149 116 L145 114 C143 113 138 111 134 111 C124 109 117 105 112 101 L109 98 L105 102 C99 107 97 111 95 121 L93 130 L94 131 C95 131 99 132 103 133 C107 134 113 136 115 137 C118 138 120 139 120 139 C121 139 122 136 124 134 Z M223 120 L223 107 L221 111 C219 114 216 130 216 131 C217 131 221 133 222 133 L223 133 L223 120 Z M87 119 C89 111 92 104 98 98 C104 91 104 91 102 86 C101 84 100 79 99 75 C98 71 97 67 96 65 L94 62 L90 63 C87 64 83 65 81 66 C77 68 69 76 67 80 C66 83 66 83 68 87 C72 92 75 97 77 106 C78 115 79 117 83 122 L85 125 L86 125 C86 124 87 122 87 119 Z M210 119 C211 112 215 104 220 98 C223 94 223 94 223 87 C223 79 222 71 219 66 L217 63 L213 63 C205 64 195 70 191 78 C189 82 189 83 190 84 C195 91 197 96 199 103 C201 113 203 118 206 122 L208 125 L209 125 C209 124 210 122 210 119 Z M25 117 L26 116 L24 115 L21 113 L21 115 L21 118 L22 118 C23 118 24 118 25 117 Z M42 112 C50 107 55 100 56 90 C57 87 57 86 54 84 C52 83 48 81 44 80 C41 80 35 78 33 77 C29 76 29 76 25 80 C21 85 21 85 21 95 C21 105 21 105 25 107 C28 108 31 110 33 112 C34 114 36 115 36 115 C37 115 40 114 42 112 Z M162 113 C168 111 172 107 174 103 C177 99 181 88 179 86 C178 84 171 81 163 79 C158 79 154 77 153 77 L151 76 L146 81 C140 88 133 91 124 93 L117 94 L118 96 C121 99 126 101 135 103 C145 105 152 109 156 113 C159 115 158 115 162 113 Z M122 86 C131 84 135 81 140 76 L144 72 L140 68 C135 62 133 57 130 46 C129 41 127 35 127 34 L125 33 L124 38 C121 45 115 52 108 57 L102 61 L104 63 C104 65 106 70 107 75 C108 80 109 85 110 86 L111 88 L113 88 C114 87 118 86 122 86 Z M61 75 C64 68 76 58 84 56 L87 56 L87 55 C87 54 79 50 72 49 C63 47 58 45 52 41 L47 37 L43 41 C41 43 38 46 37 48 C34 54 32 68 33 69 C33 70 38 71 43 72 C48 73 54 75 56 76 C57 77 59 78 59 78 L60 78 L61 75 Z M184 75 C187 67 202 56 208 56 L210 56 L209 55 C208 53 203 51 194 49 C184 47 180 45 174 40 L170 37 L166 41 C162 45 157 53 157 57 C157 58 156 61 156 64 L154 69 L155 70 C156 70 160 71 165 72 C170 73 176 75 178 76 C180 77 182 78 182 78 L183 78 L184 75 Z M26 56 C28 47 32 40 38 35 C43 30 43 30 41 25 L39 19 L31 19 C26 19 23 19 22 20 C21 21 21 27 21 41 C21 58 21 61 23 62 L24 64 L25 64 C25 64 26 60 26 56 Z M154 43 C155 42 158 38 160 35 C165 30 165 30 163 25 L162 19 L145 19 L128 19 L128 20 C127 21 128 23 129 25 C133 29 136 36 138 44 C139 53 141 56 145 61 L147 64 L150 55 C151 50 153 45 154 43 Z M104 50 C111 46 116 39 117 32 C119 26 119 25 116 23 C113 20 107 19 97 19 C87 19 87 19 81 24 C75 28 71 30 59 32 L56 33 L57 35 C59 37 65 40 74 41 C83 43 90 47 94 50 C97 54 99 54 104 50 Z M223 37 C223 26 223 21 222 20 C221 20 218 19 215 19 C209 19 208 19 205 22 C200 27 195 30 186 31 C182 32 179 33 178 33 L178 34 L182 36 C184 38 189 40 193 41 C206 44 210 45 215 49 C217 51 220 53 221 53 L223 53 L223 37 Z M60 24 C64 23 69 22 71 21 L75 19 L61 19 L47 19 L47 20 C47 21 48 22 49 24 L50 27 L51 27 C51 26 55 25 60 24 Z M186 23 C190 23 194 21 195 20 L197 19 L183 19 L170 19 L170 20 C170 20 170 22 171 24 L172 26 L176 26 C178 25 182 24 186 23 Z "/>
  <path fill="#ffffff" stroke="none" d=" "/>
</svg>