<?xml version="1.0" encoding="utf-8"?>
<svg version="1.0" width="228.000000pt" height="228.000000pt" viewBox="0 0 228.000000 228.000000" preserveAspectRatio="xMidYMid meet" xmlns="http://www.w3.org/2000/svg">
  <path fill="#020202" stroke="none" d="M 29 218 C 17 214 10 204 10 190 C 10 181 13 174 19 169 C 21 167 23 165 23 164 L 23 163 L 22 163 C 20 163 15 157 13 153 C 7 140 9 127 19 117 L 23 113 L 19 109 C 11 103 8 93 10 82 C 11 75 14 70 19 66 L 23 62 L 19 58 C 7 46 7 27 18 16 C 23 10 28 8 39 8 C 47 8 48 8 53 11 C 56 13 59 16 60 18 C 61 19 63 21 64 21 L 65 21 L 65 20 C 65 19 72 12 76 10 C 81 7 97 7 102 10 C 106 12 113 19 113 20 L 113 21 L 115 21 L 116 21 L 116 20 C 116 19 123 12 127 10 C 130 8 133 8 140 8 C 151 8 154 9 161 16 L 165 21 L 169 17 C 176 10 180 8 191 8 C 201 8 206 10 212 16 C 217 22 219 27 219 36 C 219 45 217 51 210 57 L 206 62 L 210 66 C 216 72 218 76 219 86 C 219 97 217 103 210 109 L 206 113 L 210 117 C 212 119 215 124 217 127 C 219 132 219 133 219 140 C 218 147 218 150 216 153 C 213 158 209 163 207 163 L 206 163 L 206 164 C 206 165 208 167 210 169 C 216 175 218 180 219 189 C 220 202 214 211 204 216 C 192 222 181 221 171 211 C 168 208 165 206 165 206 C 165 206 163 208 161 210 C 159 213 155 216 152 217 C 140 222 129 220 120 211 C 117 208 114 206 114 206 C 114 206 112 208 110 210 C 105 216 98 219 89 219 C 80 219 74 217 68 210 C 66 208 64 206 64 206 C 64 206 61 208 58 211 C 49 220 40 222 29 218 Z M 45 211 C 53 208 57 203 59 195 C 60 190 60 190 50 179 C 42 172 39 169 37 169 C 32 169 26 172 22 175 C 12 186 15 203 29 210 C 34 213 39 214 45 211 Z M 98 210 C 102 208 104 206 107 202 C 109 198 110 195 110 193 C 110 189 109 188 101 179 C 92 170 91 169 88 169 C 85 169 83 170 76 177 C 67 186 67 186 67 190 C 67 199 72 207 81 211 C 87 214 91 214 98 210 Z M 148 211 C 157 207 162 200 162 192 C 162 189 161 187 152 179 C 143 170 142 169 139 169 C 135 169 134 170 127 177 C 119 186 118 188 119 195 C 120 201 125 207 131 210 C 138 214 141 214 148 211 Z M 198 211 C 208 207 212 200 212 190 C 212 185 212 184 209 179 C 206 173 198 169 191 169 C 187 169 186 169 178 178 C 170 186 170 186 170 191 C 170 200 175 208 184 211 C 189 213 194 213 198 211 Z M 71 173 L 77 166 L 71 159 C 67 155 63 152 63 152 C 62 152 58 155 55 159 L 48 166 L 55 173 C 58 177 62 180 63 180 C 63 180 67 177 71 173 Z M 121 174 C 124 170 127 167 127 166 C 127 164 115 152 114 152 C 113 152 109 155 106 159 L 99 166 L 106 173 C 109 177 113 180 113 180 C 114 180 117 177 121 174 Z M 171 175 C 173 172 176 169 177 168 L 178 166 L 172 159 C 169 155 165 152 164 152 C 163 152 159 156 152 163 L 150 166 L 157 173 C 160 177 164 180 165 180 C 165 180 168 178 171 175 Z M 51 153 C 59 144 60 141 59 138 C 59 136 55 131 50 126 C 40 117 40 117 36 117 C 18 119 10 140 22 153 C 27 159 31 161 38 161 C 43 161 43 161 51 153 Z M 102 153 C 109 145 110 144 110 140 C 110 136 109 135 101 126 C 93 117 93 117 89 117 C 85 117 84 118 76 126 C 67 135 67 135 67 140 C 67 145 67 145 75 153 C 83 161 83 161 88 161 C 94 161 94 161 102 153 Z M 153 152 C 161 144 162 143 162 140 C 162 136 161 135 153 126 C 144 117 143 117 139 117 C 135 117 136.277 117.058 126.277 129.058 C 122.277 133.058 119 136 119 139 C 119 145 120 147 127 154 C 133 161 133 161 139 161 C 144 161 144 161 153 152 Z M 200 159 C 205 157 210 150 212 145 C 216 131 205 117 191 117 C 187 117 186 117 178 125 C 169 134 168 137 170 144 C 171 147 173 150 178 154 C 185 161 185 161 190 161 C 193 161 197 160 200 159 Z M 70 121 C 74 118 78 114 78 114 C 78 114 74 110 70 106 L 62 99 L 56 106 L 49 114 L 55 121 C 59 125 62 128 62 128 C 63 128 66 125 70 121 Z M 122 121 L 128 114 L 122 106 C 118 102 115 99 114 99 C 113 99 109 103 103 111 L 100 114 L 106 121 C 110 125 113 128 114 128 C 115 128 118 125 122 121 Z M 172 121 L 179 114 L 173 107 L 166 99 L 159 105 C 155 109 152 112 151 113 L 150 114 L 157 121 C 161 125 165 128 165 128 C 165 128 169 125 172 121 Z M 50 101 C 59 92 59 92 59 88 C 59 83 59 83 51 74 C 46 70 42 66 41 65 C 35 64 24 69 21 73 C 16 83 15 86 18 95 C 20 103 29 110 38 110 C 41 110 43 108 50 101 Z M 102 101 C 110 93 110 92 110 87 C 110 82 110 82 104 77 L 96.723 67.865 L 100 66.587 L 99 70 L 96 68 C 94 66 92 65 89 65 C 85 65 84 66 76 74 C 68 83 67 84 67 87 C 67 92 69 95 76 103 C 83 109 84 110 90 109 C 94 109 95 108 102 101 Z M 154 101 C 161 92 162 92 162 88 C 162 84 161 83 153 74 C 145 66 144 65 140 65 C 137 65 135 66 133 68 L 133.832 67.097 L 130 71 L 133.207 67.051 L 125 77 C 119 82 119 83 119 88 C 119 93 119 93 126 101 C 134 109 135 110 142 109 C 145 109 146 108 154 101 Z M 201 107 C 206 105 210 99 212 92 C 214 85 212 80 207 73 C 203 68 200 67 192 65 C 188 65 188 65 179 74 C 170 83 168 86 170 91 C 171 94 183 108 186 109 C 189 110 197 109 201 107 Z M 72 69 L 78 62 L 71 54 L 63 47 L 56 54 L 49 62 L 56 69 C 59 73 63 76 63 76 C 64 76 68 73 72 69 Z M 123 69 L 129 62 L 122 54 L 115 47 L 107 54 L 100 62 L 106 69 C 110 73 114 76 115 76 C 115 76 119 73 123 69 Z M 173 70 C 176 66 179 63 179 62 C 179 61 176 57 172 54 L 165 47 L 158 54 L 151 62 L 157 69 C 161 73 165 76 165 76 C 166 76 169 73 173 70 Z M 50 50 C 59 41 60 39 59 32 C 57 21 49 14 38 14 C 31 14 27 16 22 22 C 9 35 19 57 38 58 C 41 58 43 57 50 50 Z M 102 49 C 110 40 110 40 110 35 C 110 17 90 8 76 19 C 70 23 67 29 67 36 C 67 41 67 41 76 49 C 84 58 85 58 89 58 C 94 58 94 58 102 49 Z M 153 49 C 162 41 162 41 162 36 C 162 29 158 22 152 18 C 148 15 147 15 140 15 C 133 15 132 15 128 18 C 123 21 119 29 119 36 C 119 40 119 41 127 49 C 135 58 135 58 140 58 C 144 58 145 58 153 49 Z M 198 57 C 205 55 213 45 213 36 C 213 28 207 20 200 16 C 194 13 186 13 181 16 C 176 19 170 27 169 34 C 169 39 169 40 179 51 C 187 59 189 59 198 57 Z"/>
  <path fill="#020202" stroke="none" d="M 122 203 C 119 199 117 193 118 188 C 118 186 120 184 123 181 L 128 177 L 123 181 C 119 185 119 186 119 191 C 119 196 120 201 124 205 L 125 207 C 124 207 123 205 122 203 Z M 105 206 C 105 205 106 203 107 201 C 109 198 110 195 110 193 C 110 189 109 188 105 184 L 101 179 L 106 183 C 110 188 111 189 111 192 C 111 196 109 201 106 205 L 105 207 L 105 206 Z M 118 145 C 118 142 118 136 118 135 L 119 135 L 119 139 C 119 141 119 144 119 145 L 120 147 L 119 147 L 118 145 Z M 109 145 C 109 144 110 142 110 139 L 111 136 L 111 140 C 111 143 110 144 109 145 L 108 147 L 109 145 Z M 123 130 C 125 128 127 126 127 126 L 124 130 C 121 132 119 134 119 134 L 123 130 Z M 104 129 L 101 126 L 104 129 C 106 131 108 133 108 133 C 108 133 106 131 104 129 Z M 103 100 C 104 98 106 97 106 97 L 104 100 C 103 101 101 102 101 102 L 103 100 Z M 124 99 L 122 97 L 124 99 C 126 100 129.787 105.181 129.787 106.181 C 128.787 106.181 125 101 124 99 Z M 118 90 C 118 89 118 86 118 85 L 119 83 L 119 88 L 119 93 L 118 93 L 118 90 Z M 110 88 L 110 83 L 111 85 C 111 87 111 89 111 90 L 110 93 L 110 88 Z M 105 45 C 110 41 110 40 110 36 C 110 33 109 29 109 27 L 107 24 L 108 24 L 110 27 C 110 29 111 33 111 36 C 111 40 111 41 106 46 L 101 51 L 105 45 Z M 122 45 C 118 41 118 40 118 36 C 118 32 121 22 122 22 L 123 22 L 121 27 C 120 29 119 33 119 36 C 119 40 119 41 123 45 L 127 49 C 127 49 124 47 122 45 Z"/>
</svg>