<?xml version="1.0" encoding="utf-8"?>
<svg version="1.0" width="350.000000pt" height="350.000000pt" viewBox="0 0 350.000000 350.000000" preserveAspectRatio="xMidYMid meet" xmlns="http://www.w3.org/2000/svg">
  <path stroke="none" d=" M149 333 C131 327 119 311 119 292 C119 275 123 265 129 266 C134 268 134 269 133 277 C132 291 132 300 135 305 C138 311 143 316 148 319 C164 326 181 320 189 304 C191 298 191 297 191 286 C190 261 191 236 192 225 C196 204 199 197 209 191 C213 189 215 188 226 188 C240 188 242 189 242 195 C242 200 239 201 228 201 C213 201 210 204 207 219 C204 234 203 254 204 275 C205 288 205 295 204 299 C201 313 192 325 179 331 C171 335 158 336 149 333 Z M64 307 C59 303 62 295 68 295 C71 295 75 299 75 302 C75 307 68 310 64 307 Z M153 306 C150 304 147 301 146 296 C144 290 148 273 159 232 C163 219 168 201 170 192 C180 150 197 96 218 46 C229 18 230 16 233 14 C236 12 241 14 242 18 C242 21 243 20 230 52 C209 103 192 155 181 200 C176 224 175 241 177 278 C178 296 178 296 176 300 C173 305 170 307 163 308 C158 308 156 308 153 306 Z M251 306 C248 303 249 299 251 297 C255 293 262 296 262 301 C262 305 259 308 255 308 C253 308 252 307 251 306 Z M39 281 C36 279 35 278 35 274 C35 271 38 268 41 268 C44 268 48 272 48 274 C48 279 42 283 39 281 Z M92 281 C87 279 87 271 92 269 C98 266 103 272 101 278 C100 279 96 282 95 282 C95 282 93 281 92 281 Z M226 281 C221 279 221 271 226 269 C232 266 237 272 235 278 C234 279 230 282 229 282 C229 282 227 281 226 281 Z M279 280 C275 277 275 273 278 270 C283 266 289 269 289 275 C289 278 285 282 283 282 C282 282 280 281 279 280 Z M129 257 C125 254 125 251 128 247 C131 245 132 245 135 246 C138 248 139 249 139 253 C139 255 138 256 137 257 C134 260 132 259 129 257 Z M63 252 C59 248 62 242 68 242 C72 242 75 245 75 248 C75 251 71 255 68 255 C67 255 65 254 63 252 Z M252 253 C248 250 248 247 252 243 C256 239 262 242 262 249 C262 251 261 252 260 253 C257 256 255 255 252 253 Z M305 253 C299 247 306 238 313 243 C317 246 317 250 313 253 C310 256 308 256 305 253 Z M134 235 C132 233 132 229 134 222 C134 219 135 215 135 214 C135 210 132 205 128 203 C125 201 121 201 75 201 C25 201 25 201 23 198 C20 195 20 193 23 190 C25 188 26 188 76 188 C128 188 128 188 133 190 C142 195 148 204 148 214 C148 221 145 234 142 236 C140 238 136 237 134 235 Z M37 226 C35 225 34 219 37 217 C39 214 45 215 46 217 C49 220 48 223 46 226 C43 228 40 229 37 226 Z M90 225 C88 222 87 220 90 217 C91 215 96 214 99 216 C101 217 102 221 101 223 C99 228 93 229 90 225 Z M224 225 C222 222 221 220 224 217 C225 216 226 215 228 215 C232 215 235 217 236 220 C236 222 236 223 234 225 C230 229 227 229 224 225 Z M278 226 C276 224 275 219 278 217 C280 214 285 215 287 217 C291 221 288 228 283 228 C281 228 279 227 278 226 Z M250 198 C249 197 248 195 248 195 C248 192 252 188 255 188 C258 188 262 191 262 194 C262 197 258 201 255 201 C253 201 251 200 250 198 Z M271 198 C270 197 269 195 269 195 C269 193 271 190 272 189 C273 188 287 188 303 188 C331 188 332 188 334 190 C335 191 336 193 336 195 C336 196 335 198 334 199 C332 201 331 201 303 201 C273 201 273 201 271 198 Z M90 153 C83 152 74 148 68 144 C52 133 42 115 42 95 C41 77 47 64 59 52 C72 39 85 33 104 34 C116 35 124 37 127 41 C129 44 128 47 125 50 C122 51 122 51 117 50 C110 47 98 46 90 48 C77 52 66 61 59 74 C56 81 56 82 55 91 C55 106 58 115 67 126 C74 132 82 137 91 139 C116 146 144 128 148 101 C149 97 149 92 148 90 C147 83 152 79 158 81 C164 84 163 105 155 121 C151 130 139 142 130 147 C119 153 102 155 90 153 Z M276 128 L276 121 L269 121 L263 121 L263 114 L263 108 L269 107 L276 107 L276 101 L276 94 L283 94 L289 94 L289 101 L290 107 L296 107 L303 108 L303 114 L303 121 L296 121 L289 121 L289 128 L289 134 L283 134 L276 134 L276 128 Z M93 120 C92 120 87 115 81 109 C69 98 68 95 72 91 C76 87 79 88 87 97 L95 104 L123 73 C149 44 151 42 154 42 C159 42 162 46 160 49 C159 51 107 112 100 119 C98 120 95 121 93 120 Z "/>
  <path fill="#ffffff" stroke="none" d=" "/>
</svg>