<?xml version="1.0" encoding="utf-8"?>
<svg version="1.0" width="250.000000pt" height="250.000000pt" viewBox="0 0 250.000000 250.000000" preserveAspectRatio="xMidYMid meet" xmlns="http://www.w3.org/2000/svg">
  <path fill="#2f2f2f" stroke="none" d="M 23 177 C 21 175 22 151 23 149 C 24 148 60 142 64 142 L 64 119 L 64 96 L 63 96 C 60 96 24 90 23 89 C 22 87 21 63 23 61 C 24 60 39.024 58.559 82 60 C 157.69 62.538 122.109 51.216 185 90 C 234.039 120.241 231.019 118.963 230 128 L 230 136 L 229 137 C 228 137 224 138 219 138 L 212 140 L 211 149 L 211 158 L 212 158 C 213 158 225 160 228 161 L 230 161 L 230 169 L 230 178 L 127 178 C 48 178 24 178 23 177 Z M 135 163 L 135 155 L 115 151 C 104 150 95 148 94 148 C 93 147 93 138 93 119 L 93 91 L 95 90 C 96 90 106 88 116 86 L 135 84 L 135 75 L 135 67 L 82 67 L 29 67 L 29 75 L 30 83 L 49 87 C 60 88 69 90 70 90 C 71 91 71 147 70 148 C 69 148 60 150 49 151 L 30 155 L 29 163 L 29 171 L 82 171 L 135 171 L 135 163 Z M 223 169 L 223 167 L 220 167 C 214 166 145 156 143 156 L 142 156 L 142 164 L 142 171 L 183 171 L 223 171 L 223 169 Z M 204 148 L 204 139 L 201 138 C 199 137 106 102 102 100 L 100 100 L 100 121 L 100 142 L 106 143 C 124 146 197 157 202 157 L 204 157 L 204 148 Z M 213 132 L 215 131 L 177 111 C 138 90 138 90 125 92 C 118 93 112 94 111 95 L 109 96 L 158 114 C 185 124 207 133 209 133 C 210 133 212 132 213 132 Z M 223 126 C 223 125 147 73 143 71 L 142 71 L 142 78 C 143 84 143 84 182 106 C 204 117 222 127 222 127 L 223 127 L 223 126 Z"/>
  <path fill="#ffffff" stroke="none" d=" "/>
</svg>