<?xml version="1.0" encoding="utf-8"?>
<svg version="1.0" width="180.000000pt" height="180.000000pt" viewBox="0 0 180.000000 180.000000" preserveAspectRatio="xMidYMid meet" xmlns="http://www.w3.org/2000/svg">
  <path stroke="none" d="M 20 104 L 20 47 L 60 47 L 101 47 L 101 33 L 101 19 L 130 19 L 159 19 L 159 91 L 159 162 L 90 162 L 20 162 L 20 104 Z M 44 146 L 44 134 L 33 133 L 23 133 L 23 145 C 23 152 23 158 24 158 C 24 159 29 159 34 159 L 44 159 L 44 146 Z M 101 146 L 101 134 L 74 134 L 48 134 L 47 145 C 47 151 47.642 158.008 47.642 159.008 L 48 159 L 74 159 L 101 159 L 101 146 Z M 157 146 L 157 134 L 130 133 L 104 133 L 104 146 L 104 159 L 130 159 L 157 159 L 157 146 Z M 72 118 L 72 106 L 48 106 L 23 106 L 23 118 L 23 130 L 48 130 L 72 130 L 72 118 Z M 128 118 L 128 106 L 102 106 L 75 106 L 75 118 L 75 130 L 102 130 L 128 130 L 128 118 Z M 157 118 L 157 106 L 145 106 L 133 106 L 133 118 L 133 130 L 145 130 L 157 130 L 157 118 Z M 44 90 L 44 78 L 34 78 L 23 78 L 23 90 L 23 102 L 34 102 L 44 102 L 44 90 Z M 101 90 L 101 78 L 74 78 L 47 78 L 47 89 C 47 96 47 101 48 101 C 48 102 60 102 75 102 L 101 102 L 101 90 Z M 157 90 L 157 78 L 131 78 L 104 78 L 104 90 L 104 102 L 131 102 L 157 102 L 157 90 Z M 72 62 L 72 50 L 48 50 L 23 50 L 23 62 L 23 74 L 48 74 L 72 74 L 72 62 Z M 129.008 73.908 L 129.008 50.183 L 102 50 L 75 50 L 75 62 L 75 74 L 102 74 L 129.008 73.908 Z M 157 62 L 157 50 L 145 50 L 133 50 L 132.725 62.458 L 133 74 L 145 74 L 157 74 L 157 62 Z M 157 34 L 156.908 21.175 L 130 21 L 104 21 L 104 34 L 104 47 L 130 47 L 157 47 L 157 34 Z"/>
  <path fill="#fdfdf7" stroke="none" d="M 23 106 L 73 106 L 23 106 Z"/>
</svg>