<?xml version="1.0" standalone="no"?>

<!DOCTYPE svg PUBLIC "-//W3C//DTD SVG 20010904//EN"

 "http://www.w3.org/TR/2001/REC-SVG-20010904/DTD/svg10.dtd">

<svg version="1.0" xmlns="http://www.w3.org/2000/svg"

 width="1000.000000pt" height="1000.000000pt" viewBox="0 0 1000.000000 1000.000000"

 preserveAspectRatio="xMidYMid meet">

<path fill="#4c4c4e" stroke="none" d="
M12 645

C12 315 12 315 37 291

C50 278 69 260 78 252

C86 244 98 232 103 227

C113 217 149 181 174 158

C182 150 206 127 227 106

C248 85 274 60 285 50

C295 40 305 30 306 29

C309 26 309 26 648 26

L988 26

L988 355

C988 685 988 685 974 698

C967 705 954 717 947 724

C940 731 923 747 910 760

C896 773 875 794 863 806

C850 818 833 834 826 842

C819 849 795 872 774 893

C752 913 724 940 712 952

C690 974 690 974 351 974

L12 974

L12 645

Z

M668 641

L668 336

L355 336

L42 336

L42 641

L42 945

L355 945

L668 945

L668 641

Z

M709 914

C713 910 734 890 754 870

C775 850 796 829 802 824

C808 819 825 802 840 788

C855 773 876 752 887 742

C897 732 914 716 924 706

C933 696 945 685 950 680

C958 673 958 673 958 374

L958 75

L952 80

C947 85 913 118 870 160

C858 172 834 195 818 211

C801 226 776 251 762 265

C747 279 728 299 717 308

C699 326 699 326 699 625

L699 923

L699 923

C699 923 704 919 709 914

Z

M692 292

C701 284 727 258 750 235

C791 195 839 148 887 102

C908 81 936 54 936 54

L936 54

L629 54

C322 54 322 54 282 93

C260 114 234 139 225 149

C215 159 196 177 183 190

C170 202 159 213 158 213

C158 214 151 220 144 228

C98 272 64 305 64 306

L64 307

L370 307

C677 307 677 307 692 292

Z

M562 870

L562 856

L577 856

L592 856

L592 870

L592 884

L577 884

L562 884

L562 870

Z

M119 856

L119 841

L134 841

L149 841

L149 856

L149 870

L134 870

L119 870

L119 856

Z

M286 841

L286 826

L301 826

L316 826

L316 841

L316 855

L301 855

L286 855

L286 841

Z

M425 810

C424 810 424 803 424 796

L424 782

L439 782

L455 783

L455 797

L455 811

L440 811

C432 811 425 811 425 810

Z

M119 722

L119 708

L134 708

L149 708

L149 722

L149 736

L134 736

L119 736

L119 722

Z

M515 707

L515 693

L530 693

L545 693

L545 707

L545 721

L530 721

L515 721

L515 707

Z

M271 678

L271 663

L286 663

L301 663

L301 678

L301 692

L286 692

L271 692

L271 678

Z

M119 589

L119 574

L134 574

L149 574

L149 589

L149 603

L134 603

L119 603

L119 589

Z

M393 589

L393 574

L408 574

L423 574

L423 589

L423 603

L408 603

L393 603

L393 589

Z

M562 589

L562 574

L577 574

L592 574

L592 588

L592 603

L577 603

L562 603

L562 589

Z

M271 485

L271 470

L286 470

L301 470

L301 485

L301 499

L286 499

L271 499

L271 485

Z

M577 441

L577 426

L592 426

L607 426

L607 441

L607 455

L592 455

L577 455

L577 441

Z

M119 425

L119 410

L134 410

L149 410

L149 425

L149 439

L134 439

L119 439

L119 425

Z

M409 409

C408 409 408 402 408 395

L408 381

L423 381

L439 382

L439 396

L439 410

L424 410

C416 410 409 410 409 409

Z

M744 751

L744 737

L759 737

L774 737

L774 751

L774 765

L759 765

L744 765

L744 751

Z

M791 646

C790 646 790 639 790 632

L790 618

L806 618

L821 618

L821 632

L821 647

L806 647

C798 647 791 647 791 646

Z

M884 558

L882 558

L882 543

L882 529

L897 529

L912 530

L912 544

L912 558

L910 558

C897 558 885 558 884 558

Z

M760 483

C759 483 759 476 759 469

L759 455

L774 455

L790 455

L790 469

L790 484

L775 484

C767 484 760 484 760 483

Z

M836 337

L836 322

L851 322

L866 322

L866 337

L866 351

L851 351

L836 351

L836 337

Z

M882 218

L882 203

L897 203

L912 203

L912 217

L912 232

L897 232

L882 232

L882 218

Z

M196 247

L196 233

L211 233

L226 233

L226 247

L226 261

L211 261

L196 261

L196 247

Z

M485 247

L485 233

L500 233

L515 233

L515 247

L515 261

L500 261

L485 261

L485 247

Z

M348 232

L348 218

L363 218

L378 218

L378 232

L378 246

L363 246

L348 246

L348 232

Z

M622 218

L622 203

L637 203

L652 203

L652 218

L652 232

L637 232

L622 232

L622 218

Z

M318 127

L318 113

L333 113

L348 114

L348 128

L348 142

L333 142

L318 142

L318 127

Z

M485 114

L485 99

L500 99

L515 99

L515 114

L515 128

L500 128

L485 128

L485 114

Z

M638 127

C637 127 637 120 637 113

L637 99

L652 99

L667 99

L667 114

L667 128

L653 128

C645 128 638 128 638 127

Z

M775 114

L775 99

L790 99

L805 99

L805 113

L805 128

L790 128

L775 128

L775 114

Z

"/>

<path fill="#ffffff" stroke="none" d="
"/>

</svg>

